<svg xmlns="http://www.w3.org/2000/svg" xmlns:xlink="http://www.w3.org/1999/xlink" contentStyleType="text/css" height="485px" preserveAspectRatio="none" style="width:1125px;height:485px;background:#FFFFFF;" version="1.1" viewBox="0 0 1125 485" width="1125px" zoomAndPan="magnify"><defs/><g><!--class ReadElf--><g id="elem_ReadElf"><rect codeLine="1" fill="#F1F1F1" height="109.1875" id="ReadElf" rx="2.5" ry="2.5" style="stroke:#181818;stroke-width:0.5;" width="389" x="368" y="7"/><ellipse cx="526.75" cy="23" fill="#ADD1B2" rx="11" ry="11" style="stroke:#181818;stroke-width:1.0;"/><path d="M529.7188,28.6406 Q529.1406,28.9375 528.5,29.0781 Q527.8594,29.2344 527.1563,29.2344 Q524.6563,29.2344 523.3281,27.5938 Q522.0156,25.9375 522.0156,22.8125 Q522.0156,19.6875 523.3281,18.0313 Q524.6563,16.375 527.1563,16.375 Q527.8594,16.375 528.5,16.5313 Q529.1563,16.6875 529.7188,16.9844 L529.7188,19.7031 Q529.0938,19.125 528.5,18.8594 Q527.9063,18.5781 527.2813,18.5781 Q525.9375,18.5781 525.25,19.6563 Q524.5625,20.7188 524.5625,22.8125 Q524.5625,24.9063 525.25,25.9844 Q525.9375,27.0469 527.2813,27.0469 Q527.9063,27.0469 528.5,26.7813 Q529.0938,26.5 529.7188,25.9219 L529.7188,28.6406 Z " fill="#000000"/><ellipse cx="552.25" cy="22.5" fill="#84BE84" rx="3" ry="3" style="stroke:#038048;stroke-width:1.0;"/><text fill="#000000" font-family="sans-serif" font-size="14" lengthAdjust="spacing" textLength="52" x="558.25" y="27.8467">ReadElf</text><line style="stroke:#181818;stroke-width:0.5;" x1="369" x2="756" y1="39" y2="39"/><ellipse cx="379" cy="72.9453" fill="#84BE84" rx="3" ry="3" style="stroke:#038048;stroke-width:1.0;"/><text fill="#000000" font-family="sans-serif" font-size="14" lengthAdjust="spacing" textLength="299" x="388" y="76.292">from_slice(buffer: &amp;[u8]): Option&lt;ReadElf&gt;</text><ellipse cx="379" cy="89.2422" fill="#84BE84" rx="3" ry="3" style="stroke:#038048;stroke-width:1.0;"/><text fill="#000000" font-family="sans-serif" font-size="14" lengthAdjust="spacing" textLength="320" x="388" y="92.5889">from_vec(buffer: Vec&lt;u8&gt;): Option&lt;ReadElf&gt;</text><ellipse cx="379" cy="105.5391" fill="#84BE84" rx="3" ry="3" style="stroke:#038048;stroke-width:1.0;"/><text fill="#000000" font-family="sans-serif" font-size="14" lengthAdjust="spacing" textLength="363" x="388" y="108.8857">open&lt;P: AsRef&lt;Path&gt;&gt;(path: P): Option&lt;ReadElf&gt;</text><line style="stroke:#181818;stroke-width:1.0;stroke-dasharray:1.0,2.0;" x1="369" x2="522.5" y1="55.1484" y2="55.1484"/><text fill="#000000" font-family="sans-serif" font-size="14" lengthAdjust="spacing" textLength="80" x="522.5" y="59.4951">&#171;methods&#187;</text><line style="stroke:#181818;stroke-width:1.0;stroke-dasharray:1.0,2.0;" x1="602.5" x2="756" y1="55.1484" y2="55.1484"/></g><!--class BinParser--><g id="elem_BinParser"><rect codeLine="8" fill="#F1F1F1" height="129.4844" id="BinParser" rx="2.5" ry="2.5" style="stroke:#181818;stroke-width:0.5;" width="419" x="353" y="176.19"/><ellipse cx="519.75" cy="192.19" fill="#B4A7E5" rx="11" ry="11" style="stroke:#181818;stroke-width:1.0;"/><path d="M515.6719,187.9556 L515.6719,185.7994 L523.0625,185.7994 L523.0625,187.9556 L520.5938,187.9556 L520.5938,196.0338 L523.0625,196.0338 L523.0625,198.19 L515.6719,198.19 L515.6719,196.0338 L518.1406,196.0338 L518.1406,187.9556 L515.6719,187.9556 Z " fill="#000000"/><ellipse cx="545.25" cy="191.69" fill="#84BE84" rx="3" ry="3" style="stroke:#038048;stroke-width:1.0;"/><text fill="#000000" font-family="sans-serif" font-size="14" font-style="italic" lengthAdjust="spacing" textLength="66" x="551.25" y="197.0367">BinParser</text><line style="stroke:#181818;stroke-width:0.5;" x1="354" x2="771" y1="208.19" y2="208.19"/><line style="stroke:#181818;stroke-width:0.5;" x1="354" x2="771" y1="216.19" y2="216.19"/><ellipse cx="364" cy="229.8384" fill="#84BE84" rx="3" ry="3" style="stroke:#038048;stroke-width:1.0;"/><text fill="#000000" font-family="sans-serif" font-size="14" lengthAdjust="spacing" textLength="303" x="373" y="233.1851">get_u8(offset: u64, Endian: e): Option&lt;u8&gt;</text><ellipse cx="364" cy="246.1353" fill="#84BE84" rx="3" ry="3" style="stroke:#038048;stroke-width:1.0;"/><text fill="#000000" font-family="sans-serif" font-size="14" lengthAdjust="spacing" textLength="321" x="373" y="249.482">get_u16(offset: u64, Endian: e): Option&lt;u16&gt;</text><ellipse cx="364" cy="262.4322" fill="#84BE84" rx="3" ry="3" style="stroke:#038048;stroke-width:1.0;"/><text fill="#000000" font-family="sans-serif" font-size="14" lengthAdjust="spacing" textLength="321" x="373" y="265.7789">get_u32(offset: u64, Endian: e): Option&lt;u32&gt;</text><ellipse cx="364" cy="278.7291" fill="#84BE84" rx="3" ry="3" style="stroke:#038048;stroke-width:1.0;"/><text fill="#000000" font-family="sans-serif" font-size="14" lengthAdjust="spacing" textLength="321" x="373" y="282.0757">get_u64(offset: u64, Endian: e): Option&lt;u64&gt;</text><ellipse cx="364" cy="295.0259" fill="#84BE84" rx="3" ry="3" style="stroke:#038048;stroke-width:1.0;"/><text fill="#000000" font-family="sans-serif" font-size="14" lengthAdjust="spacing" textLength="393" x="373" y="298.3726">get_usize(offset: u64, Endian: e, Class: c): Option&lt;u64&gt;</text></g><!--class slice--><g id="elem_slice"><rect codeLine="16" fill="#F1F1F1" height="113.1875" id="slice" rx="2.5" ry="2.5" style="stroke:#181818;stroke-width:0.5;" width="347" x="7" y="365.67"/><ellipse cx="155.25" cy="381.67" fill="#ADD1B2" rx="11" ry="11" style="stroke:#181818;stroke-width:1.0;"/><path d="M158.2188,387.3106 Q157.6406,387.6075 157,387.7481 Q156.3594,387.9044 155.6563,387.9044 Q153.1563,387.9044 151.8281,386.2638 Q150.5156,384.6075 150.5156,381.4825 Q150.5156,378.3575 151.8281,376.7013 Q153.1563,375.045 155.6563,375.045 Q156.3594,375.045 157,375.2013 Q157.6563,375.3575 158.2188,375.6544 L158.2188,378.3731 Q157.5938,377.795 157,377.5294 Q156.4063,377.2481 155.7813,377.2481 Q154.4375,377.2481 153.75,378.3263 Q153.0625,379.3888 153.0625,381.4825 Q153.0625,383.5763 153.75,384.6544 Q154.4375,385.7169 155.7813,385.7169 Q156.4063,385.7169 157,385.4513 Q157.5938,385.17 158.2188,384.5919 L158.2188,387.3106 Z " fill="#000000"/><ellipse cx="180.75" cy="381.17" fill="#84BE84" rx="3" ry="3" style="stroke:#038048;stroke-width:1.0;"/><text fill="#000000" font-family="sans-serif" font-size="14" lengthAdjust="spacing" textLength="31" x="186.75" y="386.5167">slice</text><line style="stroke:#181818;stroke-width:0.5;" x1="8" x2="353" y1="397.67" y2="397.67"/><line style="stroke:#181818;stroke-width:0.5;" x1="8" x2="353" y1="405.67" y2="405.67"/><ellipse cx="18" cy="419.3184" fill="#84BE84" rx="3" ry="3" style="stroke:#038048;stroke-width:1.0;"/><text fill="#000000" font-family="sans-serif" font-size="14" lengthAdjust="spacing" textLength="303" x="27" y="422.6651">get_u8(offset: u64, Endian: e): Option&lt;u8&gt;</text><ellipse cx="18" cy="435.6153" fill="#84BE84" rx="3" ry="3" style="stroke:#038048;stroke-width:1.0;"/><text fill="#000000" font-family="sans-serif" font-size="14" lengthAdjust="spacing" textLength="321" x="27" y="438.962">get_u16(offset: u64, Endian: e): Option&lt;u16&gt;</text><ellipse cx="18" cy="451.9122" fill="#84BE84" rx="3" ry="3" style="stroke:#038048;stroke-width:1.0;"/><text fill="#000000" font-family="sans-serif" font-size="14" lengthAdjust="spacing" textLength="321" x="27" y="455.2589">get_u32(offset: u64, Endian: e): Option&lt;u32&gt;</text><ellipse cx="18" cy="468.2091" fill="#84BE84" rx="3" ry="3" style="stroke:#038048;stroke-width:1.0;"/><text fill="#000000" font-family="sans-serif" font-size="14" lengthAdjust="spacing" textLength="321" x="27" y="471.5557">get_u64(offset: u64, Endian: e): Option&lt;u64&gt;</text></g><!--class vecbuffer--><g id="elem_vecbuffer"><rect codeLine="23" fill="#F1F1F1" height="113.1875" id="vecbuffer" rx="2.5" ry="2.5" style="stroke:#181818;stroke-width:0.5;" width="347" x="389" y="365.67"/><ellipse cx="520.75" cy="381.67" fill="#ADD1B2" rx="11" ry="11" style="stroke:#181818;stroke-width:1.0;"/><path d="M523.7188,387.3106 Q523.1406,387.6075 522.5,387.7481 Q521.8594,387.9044 521.1563,387.9044 Q518.6563,387.9044 517.3281,386.2638 Q516.0156,384.6075 516.0156,381.4825 Q516.0156,378.3575 517.3281,376.7013 Q518.6563,375.045 521.1563,375.045 Q521.8594,375.045 522.5,375.2013 Q523.1563,375.3575 523.7188,375.6544 L523.7188,378.3731 Q523.0938,377.795 522.5,377.5294 Q521.9063,377.2481 521.2813,377.2481 Q519.9375,377.2481 519.25,378.3263 Q518.5625,379.3888 518.5625,381.4825 Q518.5625,383.5763 519.25,384.6544 Q519.9375,385.7169 521.2813,385.7169 Q521.9063,385.7169 522.5,385.4513 Q523.0938,385.17 523.7188,384.5919 L523.7188,387.3106 Z " fill="#000000"/><ellipse cx="546.25" cy="381.17" fill="#84BE84" rx="3" ry="3" style="stroke:#038048;stroke-width:1.0;"/><text fill="#000000" font-family="sans-serif" font-size="14" lengthAdjust="spacing" textLength="64" x="552.25" y="386.5167">vecbuffer</text><line style="stroke:#181818;stroke-width:0.5;" x1="390" x2="735" y1="397.67" y2="397.67"/><line style="stroke:#181818;stroke-width:0.5;" x1="390" x2="735" y1="405.67" y2="405.67"/><ellipse cx="400" cy="419.3184" fill="#84BE84" rx="3" ry="3" style="stroke:#038048;stroke-width:1.0;"/><text fill="#000000" font-family="sans-serif" font-size="14" lengthAdjust="spacing" textLength="303" x="409" y="422.6651">get_u8(offset: u64, Endian: e): Option&lt;u8&gt;</text><ellipse cx="400" cy="435.6153" fill="#84BE84" rx="3" ry="3" style="stroke:#038048;stroke-width:1.0;"/><text fill="#000000" font-family="sans-serif" font-size="14" lengthAdjust="spacing" textLength="321" x="409" y="438.962">get_u16(offset: u64, Endian: e): Option&lt;u16&gt;</text><ellipse cx="400" cy="451.9122" fill="#84BE84" rx="3" ry="3" style="stroke:#038048;stroke-width:1.0;"/><text fill="#000000" font-family="sans-serif" font-size="14" lengthAdjust="spacing" textLength="321" x="409" y="455.2589">get_u32(offset: u64, Endian: e): Option&lt;u32&gt;</text><ellipse cx="400" cy="468.2091" fill="#84BE84" rx="3" ry="3" style="stroke:#038048;stroke-width:1.0;"/><text fill="#000000" font-family="sans-serif" font-size="14" lengthAdjust="spacing" textLength="321" x="409" y="471.5557">get_u64(offset: u64, Endian: e): Option&lt;u64&gt;</text></g><!--class file--><g id="elem_file"><rect codeLine="30" fill="#F1F1F1" height="113.1875" id="file" rx="2.5" ry="2.5" style="stroke:#181818;stroke-width:0.5;" width="347" x="771" y="365.67"/><ellipse cx="925.25" cy="381.67" fill="#ADD1B2" rx="11" ry="11" style="stroke:#181818;stroke-width:1.0;"/><path d="M928.2188,387.3106 Q927.6406,387.6075 927,387.7481 Q926.3594,387.9044 925.6563,387.9044 Q923.1563,387.9044 921.8281,386.2638 Q920.5156,384.6075 920.5156,381.4825 Q920.5156,378.3575 921.8281,376.7013 Q923.1563,375.045 925.6563,375.045 Q926.3594,375.045 927,375.2013 Q927.6563,375.3575 928.2188,375.6544 L928.2188,378.3731 Q927.5938,377.795 927,377.5294 Q926.4063,377.2481 925.7813,377.2481 Q924.4375,377.2481 923.75,378.3263 Q923.0625,379.3888 923.0625,381.4825 Q923.0625,383.5763 923.75,384.6544 Q924.4375,385.7169 925.7813,385.7169 Q926.4063,385.7169 927,385.4513 Q927.5938,385.17 928.2188,384.5919 L928.2188,387.3106 Z " fill="#000000"/><ellipse cx="950.75" cy="381.17" fill="#84BE84" rx="3" ry="3" style="stroke:#038048;stroke-width:1.0;"/><text fill="#000000" font-family="sans-serif" font-size="14" lengthAdjust="spacing" textLength="19" x="956.75" y="386.5167">file</text><line style="stroke:#181818;stroke-width:0.5;" x1="772" x2="1117" y1="397.67" y2="397.67"/><line style="stroke:#181818;stroke-width:0.5;" x1="772" x2="1117" y1="405.67" y2="405.67"/><ellipse cx="782" cy="419.3184" fill="#84BE84" rx="3" ry="3" style="stroke:#038048;stroke-width:1.0;"/><text fill="#000000" font-family="sans-serif" font-size="14" lengthAdjust="spacing" textLength="303" x="791" y="422.6651">get_u8(offset: u64, Endian: e): Option&lt;u8&gt;</text><ellipse cx="782" cy="435.6153" fill="#84BE84" rx="3" ry="3" style="stroke:#038048;stroke-width:1.0;"/><text fill="#000000" font-family="sans-serif" font-size="14" lengthAdjust="spacing" textLength="321" x="791" y="438.962">get_u16(offset: u64, Endian: e): Option&lt;u16&gt;</text><ellipse cx="782" cy="451.9122" fill="#84BE84" rx="3" ry="3" style="stroke:#038048;stroke-width:1.0;"/><text fill="#000000" font-family="sans-serif" font-size="14" lengthAdjust="spacing" textLength="321" x="791" y="455.2589">get_u32(offset: u64, Endian: e): Option&lt;u32&gt;</text><ellipse cx="782" cy="468.2091" fill="#84BE84" rx="3" ry="3" style="stroke:#038048;stroke-width:1.0;"/><text fill="#000000" font-family="sans-serif" font-size="14" lengthAdjust="spacing" textLength="321" x="791" y="471.5557">get_u64(offset: u64, Endian: e): Option&lt;u64&gt;</text></g><!--reverse link ReadElf to BinParser--><g id="link_ReadElf_BinParser"><path codeLine="37" d="M562.5,128.28 C562.5,147.04 562.5,156.28 562.5,175.81 " fill="none" id="ReadElf-backto-BinParser" style="stroke:#181818;stroke-width:1.0;"/><polygon fill="#181818" points="562.5,116.28,558.5,122.28,562.5,128.28,566.5,122.28,562.5,116.28" style="stroke:#181818;stroke-width:1.0;"/></g><!--reverse link BinParser to slice--><g id="link_BinParser_slice"><path codeLine="38" d="M409.3763,313.8195 C368.2663,333.1195 339.81,346.48 299.93,365.2 " fill="none" id="BinParser-backto-slice" style="stroke:#181818;stroke-width:1.0;stroke-dasharray:7.0,7.0;"/><polygon fill="none" points="425.67,306.17,406.8264,308.3882,411.9261,319.2507,425.67,306.17" style="stroke:#181818;stroke-width:1.0;"/></g><!--reverse link BinParser to vecbuffer--><g id="link_BinParser_vecbuffer"><path codeLine="39" d="M562.5,324.17 C562.5,343.47 562.5,346.48 562.5,365.2 " fill="none" id="BinParser-backto-vecbuffer" style="stroke:#181818;stroke-width:1.0;stroke-dasharray:7.0,7.0;"/><polygon fill="none" points="562.5,306.17,556.5,324.17,568.5,324.17,562.5,306.17" style="stroke:#181818;stroke-width:1.0;"/></g><!--reverse link BinParser to file--><g id="link_BinParser_file"><path codeLine="40" d="M715.6237,313.8195 C756.7337,333.1195 785.19,346.48 825.07,365.2 " fill="none" id="BinParser-backto-file" style="stroke:#181818;stroke-width:1.0;stroke-dasharray:7.0,7.0;"/><polygon fill="none" points="699.33,306.17,713.0739,319.2507,718.1736,308.3882,699.33,306.17" style="stroke:#181818;stroke-width:1.0;"/></g><!--SRC=[tPHDQyCm38Rl-HKwZMnf2sr32COOrjBpGW-xZ54yHruDgHrYPuTz_FSvQTU4i99xV36MzGXBh-H85DnQs2FFTuM4hm3yMYo0qXEweyajO_xOMYDPcTF15afW-5PBYHM1kvSwVRqdy5GwPJIzX64z_myKL-zd5BHEsIr_KwAc6O57kqT9C-wEZ8MbtmXa_p0_GH0fxR2IN21ibCvuPR6wv12zeplKQMYajEW8r4ayWvtE5TS4i0ldtzFpNoRZm3Bf4-lLEB5UzOaa7YUIk4zOzOatc1bi6m49Y07TLEUiRQlOPAhIvUKxwznO4ynDgc9IaltzBm_pVDwDQj0DBVtsdqxRgKFZLURXHLEZNm00]--></g></svg>