<svg xmlns="http://www.w3.org/2000/svg" xmlns:xlink="http://www.w3.org/1999/xlink" contentStyleType="text/css" height="502px" preserveAspectRatio="none" style="width:1139px;height:502px;background:#FFFFFF;" version="1.1" viewBox="0 0 1139 502" width="1139px" zoomAndPan="magnify"><defs/><g><!--class ReadElf--><g id="elem_ReadElf"><rect codeLine="1" fill="#F1F1F1" height="109.1875" id="ReadElf" rx="2.5" ry="2.5" style="stroke:#181818;stroke-width:0.5;" width="389" x="370" y="7"/><ellipse cx="528.75" cy="23" fill="#ADD1B2" rx="11" ry="11" style="stroke:#181818;stroke-width:1.0;"/><path d="M531.7188,28.6406 Q531.1406,28.9375 530.5,29.0781 Q529.8594,29.2344 529.1563,29.2344 Q526.6563,29.2344 525.3281,27.5938 Q524.0156,25.9375 524.0156,22.8125 Q524.0156,19.6875 525.3281,18.0313 Q526.6563,16.375 529.1563,16.375 Q529.8594,16.375 530.5,16.5313 Q531.1563,16.6875 531.7188,16.9844 L531.7188,19.7031 Q531.0938,19.125 530.5,18.8594 Q529.9063,18.5781 529.2813,18.5781 Q527.9375,18.5781 527.25,19.6563 Q526.5625,20.7188 526.5625,22.8125 Q526.5625,24.9063 527.25,25.9844 Q527.9375,27.0469 529.2813,27.0469 Q529.9063,27.0469 530.5,26.7813 Q531.0938,26.5 531.7188,25.9219 L531.7188,28.6406 Z " fill="#000000"/><ellipse cx="554.25" cy="22.5" fill="#84BE84" rx="3" ry="3" style="stroke:#038048;stroke-width:1.0;"/><text fill="#000000" font-family="sans-serif" font-size="14" lengthAdjust="spacing" textLength="52" x="560.25" y="27.8467">ReadElf</text><line style="stroke:#181818;stroke-width:0.5;" x1="371" x2="758" y1="39" y2="39"/><ellipse cx="381" cy="72.9453" fill="#84BE84" rx="3" ry="3" style="stroke:#038048;stroke-width:1.0;"/><text fill="#000000" font-family="sans-serif" font-size="14" lengthAdjust="spacing" textLength="299" x="390" y="76.292">from_slice(buffer: &amp;[u8]): Option&lt;ReadElf&gt;</text><ellipse cx="381" cy="89.2422" fill="#84BE84" rx="3" ry="3" style="stroke:#038048;stroke-width:1.0;"/><text fill="#000000" font-family="sans-serif" font-size="14" lengthAdjust="spacing" textLength="320" x="390" y="92.5889">from_vec(buffer: Vec&lt;u8&gt;): Option&lt;ReadElf&gt;</text><ellipse cx="381" cy="105.5391" fill="#84BE84" rx="3" ry="3" style="stroke:#038048;stroke-width:1.0;"/><text fill="#000000" font-family="sans-serif" font-size="14" lengthAdjust="spacing" textLength="363" x="390" y="108.8857">open&lt;P: AsRef&lt;Path&gt;&gt;(path: P): Option&lt;ReadElf&gt;</text><line style="stroke:#181818;stroke-width:1.0;stroke-dasharray:1.0,2.0;" x1="371" x2="524.5" y1="55.1484" y2="55.1484"/><text fill="#000000" font-family="sans-serif" font-size="14" lengthAdjust="spacing" textLength="80" x="524.5" y="59.4951">&#171;methods&#187;</text><line style="stroke:#181818;stroke-width:1.0;stroke-dasharray:1.0,2.0;" x1="604.5" x2="758" y1="55.1484" y2="55.1484"/></g><!--class BinParser--><g id="elem_BinParser"><rect codeLine="8" fill="#F1F1F1" height="129.4844" id="BinParser" rx="2.5" ry="2.5" style="stroke:#181818;stroke-width:0.5;" width="419" x="355" y="176.19"/><ellipse cx="521.75" cy="192.19" fill="#B4A7E5" rx="11" ry="11" style="stroke:#181818;stroke-width:1.0;"/><path d="M517.6719,187.9556 L517.6719,185.7994 L525.0625,185.7994 L525.0625,187.9556 L522.5938,187.9556 L522.5938,196.0338 L525.0625,196.0338 L525.0625,198.19 L517.6719,198.19 L517.6719,196.0338 L520.1406,196.0338 L520.1406,187.9556 L517.6719,187.9556 Z " fill="#000000"/><ellipse cx="547.25" cy="191.69" fill="#84BE84" rx="3" ry="3" style="stroke:#038048;stroke-width:1.0;"/><text fill="#000000" font-family="sans-serif" font-size="14" font-style="italic" lengthAdjust="spacing" textLength="66" x="553.25" y="197.0367">BinParser</text><line style="stroke:#181818;stroke-width:0.5;" x1="356" x2="773" y1="208.19" y2="208.19"/><line style="stroke:#181818;stroke-width:0.5;" x1="356" x2="773" y1="216.19" y2="216.19"/><ellipse cx="366" cy="229.8384" fill="#84BE84" rx="3" ry="3" style="stroke:#038048;stroke-width:1.0;"/><text fill="#000000" font-family="sans-serif" font-size="14" lengthAdjust="spacing" textLength="303" x="375" y="233.1851">get_u8(offset: u64, Endian: e): Option&lt;u8&gt;</text><ellipse cx="366" cy="246.1353" fill="#84BE84" rx="3" ry="3" style="stroke:#038048;stroke-width:1.0;"/><text fill="#000000" font-family="sans-serif" font-size="14" lengthAdjust="spacing" textLength="321" x="375" y="249.482">get_u16(offset: u64, Endian: e): Option&lt;u16&gt;</text><ellipse cx="366" cy="262.4322" fill="#84BE84" rx="3" ry="3" style="stroke:#038048;stroke-width:1.0;"/><text fill="#000000" font-family="sans-serif" font-size="14" lengthAdjust="spacing" textLength="321" x="375" y="265.7789">get_u32(offset: u64, Endian: e): Option&lt;u32&gt;</text><ellipse cx="366" cy="278.7291" fill="#84BE84" rx="3" ry="3" style="stroke:#038048;stroke-width:1.0;"/><text fill="#000000" font-family="sans-serif" font-size="14" lengthAdjust="spacing" textLength="321" x="375" y="282.0757">get_u64(offset: u64, Endian: e): Option&lt;u64&gt;</text><ellipse cx="366" cy="295.0259" fill="#84BE84" rx="3" ry="3" style="stroke:#038048;stroke-width:1.0;"/><text fill="#000000" font-family="sans-serif" font-size="14" lengthAdjust="spacing" textLength="393" x="375" y="298.3726">get_usize(offset: u64, Endian: e, Class: c): Option&lt;u64&gt;</text></g><!--class Slice--><g id="elem_Slice"><rect codeLine="16" fill="#F1F1F1" height="129.4844" id="Slice" rx="2.5" ry="2.5" style="stroke:#181818;stroke-width:0.5;" width="347" x="9" y="365.68"/><ellipse cx="156.75" cy="381.68" fill="#ADD1B2" rx="11" ry="11" style="stroke:#181818;stroke-width:1.0;"/><path d="M159.7188,387.3206 Q159.1406,387.6175 158.5,387.7581 Q157.8594,387.9144 157.1563,387.9144 Q154.6563,387.9144 153.3281,386.2738 Q152.0156,384.6175 152.0156,381.4925 Q152.0156,378.3675 153.3281,376.7113 Q154.6563,375.055 157.1563,375.055 Q157.8594,375.055 158.5,375.2113 Q159.1563,375.3675 159.7188,375.6644 L159.7188,378.3831 Q159.0938,377.805 158.5,377.5394 Q157.9063,377.2581 157.2813,377.2581 Q155.9375,377.2581 155.25,378.3363 Q154.5625,379.3988 154.5625,381.4925 Q154.5625,383.5863 155.25,384.6644 Q155.9375,385.7269 157.2813,385.7269 Q157.9063,385.7269 158.5,385.4613 Q159.0938,385.18 159.7188,384.6019 L159.7188,387.3206 Z " fill="#000000"/><polygon fill="#4177AF" points="182.25,377.18,178.25,383.18,186.25,383.18" style="stroke:#1963A0;stroke-width:1.0;"/><text fill="#000000" font-family="sans-serif" font-size="14" lengthAdjust="spacing" textLength="32" x="188.25" y="386.5267">Slice</text><line style="stroke:#181818;stroke-width:0.5;" x1="10" x2="355" y1="397.68" y2="397.68"/><line style="stroke:#181818;stroke-width:0.5;" x1="10" x2="355" y1="405.68" y2="405.68"/><polygon fill="#4177AF" points="20,415.3284,16,421.3284,24,421.3284" style="stroke:#1963A0;stroke-width:1.0;"/><text fill="#000000" font-family="sans-serif" font-size="14" lengthAdjust="spacing" textLength="169" x="29" y="422.6751">new(buffer: &amp;[u8]): Slice</text><ellipse cx="20" cy="435.6253" fill="#84BE84" rx="3" ry="3" style="stroke:#038048;stroke-width:1.0;"/><text fill="#000000" font-family="sans-serif" font-size="14" lengthAdjust="spacing" textLength="303" x="29" y="438.972">get_u8(offset: u64, Endian: e): Option&lt;u8&gt;</text><ellipse cx="20" cy="451.9222" fill="#84BE84" rx="3" ry="3" style="stroke:#038048;stroke-width:1.0;"/><text fill="#000000" font-family="sans-serif" font-size="14" lengthAdjust="spacing" textLength="321" x="29" y="455.2689">get_u16(offset: u64, Endian: e): Option&lt;u16&gt;</text><ellipse cx="20" cy="468.2191" fill="#84BE84" rx="3" ry="3" style="stroke:#038048;stroke-width:1.0;"/><text fill="#000000" font-family="sans-serif" font-size="14" lengthAdjust="spacing" textLength="321" x="29" y="471.5657">get_u32(offset: u64, Endian: e): Option&lt;u32&gt;</text><ellipse cx="20" cy="484.5159" fill="#84BE84" rx="3" ry="3" style="stroke:#038048;stroke-width:1.0;"/><text fill="#000000" font-family="sans-serif" font-size="14" lengthAdjust="spacing" textLength="321" x="29" y="487.8626">get_u64(offset: u64, Endian: e): Option&lt;u64&gt;</text></g><!--class VecBuffer--><g id="elem_VecBuffer"><rect codeLine="24" fill="#F1F1F1" height="129.4844" id="VecBuffer" rx="2.5" ry="2.5" style="stroke:#181818;stroke-width:0.5;" width="347" x="391" y="365.68"/><ellipse cx="521.25" cy="381.68" fill="#ADD1B2" rx="11" ry="11" style="stroke:#181818;stroke-width:1.0;"/><path d="M524.2188,387.3206 Q523.6406,387.6175 523,387.7581 Q522.3594,387.9144 521.6563,387.9144 Q519.1563,387.9144 517.8281,386.2738 Q516.5156,384.6175 516.5156,381.4925 Q516.5156,378.3675 517.8281,376.7113 Q519.1563,375.055 521.6563,375.055 Q522.3594,375.055 523,375.2113 Q523.6563,375.3675 524.2188,375.6644 L524.2188,378.3831 Q523.5938,377.805 523,377.5394 Q522.4063,377.2581 521.7813,377.2581 Q520.4375,377.2581 519.75,378.3363 Q519.0625,379.3988 519.0625,381.4925 Q519.0625,383.5863 519.75,384.6644 Q520.4375,385.7269 521.7813,385.7269 Q522.4063,385.7269 523,385.4613 Q523.5938,385.18 524.2188,384.6019 L524.2188,387.3206 Z " fill="#000000"/><polygon fill="#4177AF" points="546.75,377.18,542.75,383.18,550.75,383.18" style="stroke:#1963A0;stroke-width:1.0;"/><text fill="#000000" font-family="sans-serif" font-size="14" lengthAdjust="spacing" textLength="67" x="552.75" y="386.5267">VecBuffer</text><line style="stroke:#181818;stroke-width:0.5;" x1="392" x2="737" y1="397.68" y2="397.68"/><line style="stroke:#181818;stroke-width:0.5;" x1="392" x2="737" y1="405.68" y2="405.68"/><polygon fill="#4177AF" points="402,415.3284,398,421.3284,406,421.3284" style="stroke:#1963A0;stroke-width:1.0;"/><text fill="#000000" font-family="sans-serif" font-size="14" lengthAdjust="spacing" textLength="232" x="411" y="422.6751">new(buffer: Vec&lt;u8&gt;): VecBuffer</text><ellipse cx="402" cy="435.6253" fill="#84BE84" rx="3" ry="3" style="stroke:#038048;stroke-width:1.0;"/><text fill="#000000" font-family="sans-serif" font-size="14" lengthAdjust="spacing" textLength="303" x="411" y="438.972">get_u8(offset: u64, Endian: e): Option&lt;u8&gt;</text><ellipse cx="402" cy="451.9222" fill="#84BE84" rx="3" ry="3" style="stroke:#038048;stroke-width:1.0;"/><text fill="#000000" font-family="sans-serif" font-size="14" lengthAdjust="spacing" textLength="321" x="411" y="455.2689">get_u16(offset: u64, Endian: e): Option&lt;u16&gt;</text><ellipse cx="402" cy="468.2191" fill="#84BE84" rx="3" ry="3" style="stroke:#038048;stroke-width:1.0;"/><text fill="#000000" font-family="sans-serif" font-size="14" lengthAdjust="spacing" textLength="321" x="411" y="471.5657">get_u32(offset: u64, Endian: e): Option&lt;u32&gt;</text><ellipse cx="402" cy="484.5159" fill="#84BE84" rx="3" ry="3" style="stroke:#038048;stroke-width:1.0;"/><text fill="#000000" font-family="sans-serif" font-size="14" lengthAdjust="spacing" textLength="321" x="411" y="487.8626">get_u64(offset: u64, Endian: e): Option&lt;u64&gt;</text></g><!--class File--><g id="elem_File"><rect codeLine="32" fill="#F1F1F1" height="129.4844" id="File" rx="2.5" ry="2.5" style="stroke:#181818;stroke-width:0.5;" width="360" x="772.5" y="365.68"/><ellipse cx="931.25" cy="381.68" fill="#ADD1B2" rx="11" ry="11" style="stroke:#181818;stroke-width:1.0;"/><path d="M934.2188,387.3206 Q933.6406,387.6175 933,387.7581 Q932.3594,387.9144 931.6563,387.9144 Q929.1563,387.9144 927.8281,386.2738 Q926.5156,384.6175 926.5156,381.4925 Q926.5156,378.3675 927.8281,376.7113 Q929.1563,375.055 931.6563,375.055 Q932.3594,375.055 933,375.2113 Q933.6563,375.3675 934.2188,375.6644 L934.2188,378.3831 Q933.5938,377.805 933,377.5394 Q932.4063,377.2581 931.7813,377.2581 Q930.4375,377.2581 929.75,378.3363 Q929.0625,379.3988 929.0625,381.4925 Q929.0625,383.5863 929.75,384.6644 Q930.4375,385.7269 931.7813,385.7269 Q932.4063,385.7269 933,385.4613 Q933.5938,385.18 934.2188,384.6019 L934.2188,387.3206 Z " fill="#000000"/><polygon fill="#4177AF" points="956.75,377.18,952.75,383.18,960.75,383.18" style="stroke:#1963A0;stroke-width:1.0;"/><text fill="#000000" font-family="sans-serif" font-size="14" lengthAdjust="spacing" textLength="23" x="962.75" y="386.5267">File</text><line style="stroke:#181818;stroke-width:0.5;" x1="773.5" x2="1131.5" y1="397.68" y2="397.68"/><line style="stroke:#181818;stroke-width:0.5;" x1="773.5" x2="1131.5" y1="405.68" y2="405.68"/><polygon fill="#4177AF" points="783.5,415.3284,779.5,421.3284,787.5,421.3284" style="stroke:#1963A0;stroke-width:1.0;"/><text fill="#000000" font-family="sans-serif" font-size="14" lengthAdjust="spacing" textLength="334" x="792.5" y="422.6751">open&lt;P: AsRef&lt;Path&gt;&gt;(path: P): Option&lt;File&gt;</text><ellipse cx="783.5" cy="435.6253" fill="#84BE84" rx="3" ry="3" style="stroke:#038048;stroke-width:1.0;"/><text fill="#000000" font-family="sans-serif" font-size="14" lengthAdjust="spacing" textLength="303" x="792.5" y="438.972">get_u8(offset: u64, Endian: e): Option&lt;u8&gt;</text><ellipse cx="783.5" cy="451.9222" fill="#84BE84" rx="3" ry="3" style="stroke:#038048;stroke-width:1.0;"/><text fill="#000000" font-family="sans-serif" font-size="14" lengthAdjust="spacing" textLength="321" x="792.5" y="455.2689">get_u16(offset: u64, Endian: e): Option&lt;u16&gt;</text><ellipse cx="783.5" cy="468.2191" fill="#84BE84" rx="3" ry="3" style="stroke:#038048;stroke-width:1.0;"/><text fill="#000000" font-family="sans-serif" font-size="14" lengthAdjust="spacing" textLength="321" x="792.5" y="471.5657">get_u32(offset: u64, Endian: e): Option&lt;u32&gt;</text><ellipse cx="783.5" cy="484.5159" fill="#84BE84" rx="3" ry="3" style="stroke:#038048;stroke-width:1.0;"/><text fill="#000000" font-family="sans-serif" font-size="14" lengthAdjust="spacing" textLength="321" x="792.5" y="487.8626">get_u64(offset: u64, Endian: e): Option&lt;u64&gt;</text></g><!--reverse link ReadElf to BinParser--><g id="link_ReadElf_BinParser"><path codeLine="40" d="M564.5,128.29 C564.5,147.04 564.5,156.29 564.5,175.81 " fill="none" id="ReadElf-backto-BinParser" style="stroke:#181818;stroke-width:1.0;"/><polygon fill="#181818" points="564.5,116.29,560.5,122.29,564.5,128.29,568.5,122.29,564.5,116.29" style="stroke:#181818;stroke-width:1.0;"/></g><!--reverse link BinParser to Slice--><g id="link_BinParser_Slice"><path codeLine="41" d="M417.6811,313.9903 C378.6811,333.1303 352.1,346.18 313.11,365.32 " fill="none" id="BinParser-backto-Slice" style="stroke:#181818;stroke-width:1.0;stroke-dasharray:7.0,7.0;"/><polygon fill="none" points="433.84,306.06,415.0377,308.604,420.3245,319.3766,433.84,306.06" style="stroke:#181818;stroke-width:1.0;"/></g><!--reverse link BinParser to VecBuffer--><g id="link_BinParser_VecBuffer"><path codeLine="42" d="M564.5,323.93 C564.5,343.13 564.5,346.19 564.5,365.39 " fill="none" id="BinParser-backto-VecBuffer" style="stroke:#181818;stroke-width:1.0;stroke-dasharray:7.0,7.0;"/><polygon fill="none" points="564.5,305.93,558.5,323.93,570.5,323.93,564.5,305.93" style="stroke:#181818;stroke-width:1.0;"/></g><!--reverse link BinParser to File--><g id="link_BinParser_File"><path codeLine="43" d="M713.4171,313.8914 C753.0271,333.0314 780.23,346.18 819.84,365.32 " fill="none" id="BinParser-backto-File" style="stroke:#181818;stroke-width:1.0;stroke-dasharray:7.0,7.0;"/><polygon fill="none" points="697.21,306.06,710.8066,319.2938,716.0275,308.4891,697.21,306.06" style="stroke:#181818;stroke-width:1.0;"/></g><!--SRC=[tPHVQuCm5CNV_HJtQRZP5jgAI0Y1TNIlamxsCaPnUhC6R1IZ6-nFF_kYjKPSYtlMbs0yl-0zv-OwKH8g1HiCutN2uSi2_SncGEaUYrqQAyRqQxthy3pTRrKY8hHVIyun9t3rNFelrmGUiaAaaZR7i8x-7QDM_OGHBNrsIPzcA6b0u5PjaDCWB7QCsPbU20Hdc1_BSeGiCETXXB0ICWXpXNbJW_E6nRRqxPHpXGM1qdCdi9Qn22K1DCVf_-devzumCFUwn78nJ2mNNS9pXmdFxH9AVE85PW9tLO04eXwjtJaSitsi4cjSEKZy-1DUBHY9QQPitMohkj1pfPjER6MZC-1U96ti_xjQ5S76uyDfgDrCuwcP3vQP5FHRJxfZz_SsJLVqFbGM_G80]--></g></svg>