<svg xmlns="http://www.w3.org/2000/svg" xmlns:xlink="http://www.w3.org/1999/xlink" contentStyleType="text/css" height="502px" preserveAspectRatio="none" style="width:1139px;height:502px;background:#FFFFFF;" version="1.1" viewBox="0 0 1139 502" width="1139px" zoomAndPan="magnify"><defs/><g><!--class ReadElf--><g id="elem_ReadElf"><rect codeLine="2" fill="#F1F1F1" height="109.1875" id="ReadElf" rx="2.5" ry="2.5" style="stroke:#181818;stroke-width:0.5;" width="389" x="370" y="7"/><ellipse cx="528.75" cy="23" fill="#F1F1F1" rx="11" ry="11" style="stroke:#181818;stroke-width:1.0;"/><path d="M528.2344,23.5625 Q526.375,22.8594 525.7188,22.0938 Q525.0781,21.3125 525.0781,20 Q525.0781,18.3125 526.1563,17.3438 Q527.2344,16.375 529.1094,16.375 Q529.9688,16.375 530.8125,16.5781 Q531.6719,16.7656 532.5156,17.1563 L532.5156,19.5469 Q531.7344,18.9844 530.9063,18.7031 Q530.0938,18.4063 529.2969,18.4063 Q528.4219,18.4063 527.9375,18.7656 Q527.4688,19.125 527.4688,19.7813 Q527.4688,20.2969 527.8125,20.6406 Q528.1563,20.9688 529.25,21.375 L530.3125,21.7813 Q531.7969,22.3281 532.5,23.2344 Q533.2188,24.1406 533.2188,25.5156 Q533.2188,27.3906 532.1094,28.3125 Q531,29.2344 528.75,29.2344 Q527.8281,29.2344 526.9063,29.0156 Q525.9844,28.7969 525.125,28.375 L525.125,25.8438 Q526.0938,26.5313 527.0156,26.875 Q527.9375,27.2188 528.8281,27.2188 Q529.7344,27.2188 530.2344,26.8125 Q530.7344,26.3906 530.7344,25.6563 Q530.7344,25.0938 530.3906,24.6875 Q530.0625,24.2656 529.4375,24.0156 L528.2344,23.5625 Z " fill="#000000"/><ellipse cx="554.25" cy="22.5" fill="#84BE84" rx="3" ry="3" style="stroke:#038048;stroke-width:1.0;"/><text fill="#000000" font-family="sans-serif" font-size="14" lengthAdjust="spacing" textLength="52" x="560.25" y="27.8467">ReadElf</text><line style="stroke:#181818;stroke-width:0.5;" x1="371" x2="758" y1="39" y2="39"/><ellipse cx="381" cy="72.9453" fill="#84BE84" rx="3" ry="3" style="stroke:#038048;stroke-width:1.0;"/><text fill="#000000" font-family="sans-serif" font-size="14" lengthAdjust="spacing" textLength="299" x="390" y="76.292">from_slice(buffer: &amp;[u8]): Option&lt;ReadElf&gt;</text><ellipse cx="381" cy="89.2422" fill="#84BE84" rx="3" ry="3" style="stroke:#038048;stroke-width:1.0;"/><text fill="#000000" font-family="sans-serif" font-size="14" lengthAdjust="spacing" textLength="320" x="390" y="92.5889">from_vec(buffer: Vec&lt;u8&gt;): Option&lt;ReadElf&gt;</text><ellipse cx="381" cy="105.5391" fill="#84BE84" rx="3" ry="3" style="stroke:#038048;stroke-width:1.0;"/><text fill="#000000" font-family="sans-serif" font-size="14" lengthAdjust="spacing" textLength="363" x="390" y="108.8857">open&lt;P: AsRef&lt;Path&gt;&gt;(path: P): Option&lt;ReadElf&gt;</text><line style="stroke:#181818;stroke-width:1.0;stroke-dasharray:1.0,2.0;" x1="371" x2="524.5" y1="55.1484" y2="55.1484"/><text fill="#000000" font-family="sans-serif" font-size="14" lengthAdjust="spacing" textLength="80" x="524.5" y="59.4951">&#171;methods&#187;</text><line style="stroke:#181818;stroke-width:1.0;stroke-dasharray:1.0,2.0;" x1="604.5" x2="758" y1="55.1484" y2="55.1484"/></g><!--class BinParser--><g id="elem_BinParser"><rect codeLine="9" fill="#F1F1F1" height="129.4844" id="BinParser" rx="2.5" ry="2.5" style="stroke:#181818;stroke-width:0.5;" width="419" x="355" y="176.19"/><ellipse cx="521.75" cy="192.19" fill="#B4A7E5" rx="11" ry="11" style="stroke:#181818;stroke-width:1.0;"/><path d="M517.6719,187.9556 L517.6719,185.7994 L525.0625,185.7994 L525.0625,187.9556 L522.5938,187.9556 L522.5938,196.0338 L525.0625,196.0338 L525.0625,198.19 L517.6719,198.19 L517.6719,196.0338 L520.1406,196.0338 L520.1406,187.9556 L517.6719,187.9556 Z " fill="#000000"/><ellipse cx="547.25" cy="191.69" fill="#84BE84" rx="3" ry="3" style="stroke:#038048;stroke-width:1.0;"/><text fill="#000000" font-family="sans-serif" font-size="14" font-style="italic" lengthAdjust="spacing" textLength="66" x="553.25" y="197.0367">BinParser</text><line style="stroke:#181818;stroke-width:0.5;" x1="356" x2="773" y1="208.19" y2="208.19"/><line style="stroke:#181818;stroke-width:0.5;" x1="356" x2="773" y1="216.19" y2="216.19"/><ellipse cx="366" cy="229.8384" fill="#84BE84" rx="3" ry="3" style="stroke:#038048;stroke-width:1.0;"/><text fill="#000000" font-family="sans-serif" font-size="14" lengthAdjust="spacing" textLength="303" x="375" y="233.1851">get_u8(offset: u64, Endian: e): Option&lt;u8&gt;</text><ellipse cx="366" cy="246.1353" fill="#84BE84" rx="3" ry="3" style="stroke:#038048;stroke-width:1.0;"/><text fill="#000000" font-family="sans-serif" font-size="14" lengthAdjust="spacing" textLength="321" x="375" y="249.482">get_u16(offset: u64, Endian: e): Option&lt;u16&gt;</text><ellipse cx="366" cy="262.4322" fill="#84BE84" rx="3" ry="3" style="stroke:#038048;stroke-width:1.0;"/><text fill="#000000" font-family="sans-serif" font-size="14" lengthAdjust="spacing" textLength="321" x="375" y="265.7789">get_u32(offset: u64, Endian: e): Option&lt;u32&gt;</text><ellipse cx="366" cy="278.7291" fill="#84BE84" rx="3" ry="3" style="stroke:#038048;stroke-width:1.0;"/><text fill="#000000" font-family="sans-serif" font-size="14" lengthAdjust="spacing" textLength="321" x="375" y="282.0757">get_u64(offset: u64, Endian: e): Option&lt;u64&gt;</text><ellipse cx="366" cy="295.0259" fill="#84BE84" rx="3" ry="3" style="stroke:#038048;stroke-width:1.0;"/><text fill="#000000" font-family="sans-serif" font-size="14" lengthAdjust="spacing" textLength="393" x="375" y="298.3726">get_usize(offset: u64, Endian: e, Class: c): Option&lt;u64&gt;</text></g><!--class Slice--><g id="elem_Slice"><rect codeLine="17" fill="#F1F1F1" height="129.4844" id="Slice" rx="2.5" ry="2.5" style="stroke:#181818;stroke-width:0.5;" width="347" x="9" y="365.68"/><ellipse cx="156.75" cy="381.68" fill="#F1F1F1" rx="11" ry="11" style="stroke:#181818;stroke-width:1.0;"/><path d="M156.2344,382.2425 Q154.375,381.5394 153.7188,380.7738 Q153.0781,379.9925 153.0781,378.68 Q153.0781,376.9925 154.1563,376.0238 Q155.2344,375.055 157.1094,375.055 Q157.9688,375.055 158.8125,375.2581 Q159.6719,375.4456 160.5156,375.8363 L160.5156,378.2269 Q159.7344,377.6644 158.9063,377.3831 Q158.0938,377.0863 157.2969,377.0863 Q156.4219,377.0863 155.9375,377.4456 Q155.4688,377.805 155.4688,378.4613 Q155.4688,378.9769 155.8125,379.3206 Q156.1563,379.6488 157.25,380.055 L158.3125,380.4613 Q159.7969,381.0081 160.5,381.9144 Q161.2188,382.8206 161.2188,384.1956 Q161.2188,386.0706 160.1094,386.9925 Q159,387.9144 156.75,387.9144 Q155.8281,387.9144 154.9063,387.6956 Q153.9844,387.4769 153.125,387.055 L153.125,384.5238 Q154.0938,385.2113 155.0156,385.555 Q155.9375,385.8988 156.8281,385.8988 Q157.7344,385.8988 158.2344,385.4925 Q158.7344,385.0706 158.7344,384.3363 Q158.7344,383.7738 158.3906,383.3675 Q158.0625,382.9456 157.4375,382.6956 L156.2344,382.2425 Z " fill="#000000"/><polygon fill="#4177AF" points="182.25,377.18,178.25,383.18,186.25,383.18" style="stroke:#1963A0;stroke-width:1.0;"/><text fill="#000000" font-family="sans-serif" font-size="14" lengthAdjust="spacing" textLength="32" x="188.25" y="386.5267">Slice</text><line style="stroke:#181818;stroke-width:0.5;" x1="10" x2="355" y1="397.68" y2="397.68"/><line style="stroke:#181818;stroke-width:0.5;" x1="10" x2="355" y1="405.68" y2="405.68"/><polygon fill="#4177AF" points="20,415.3284,16,421.3284,24,421.3284" style="stroke:#1963A0;stroke-width:1.0;"/><text fill="#000000" font-family="sans-serif" font-size="14" lengthAdjust="spacing" textLength="169" x="29" y="422.6751">new(buffer: &amp;[u8]): Slice</text><ellipse cx="20" cy="435.6253" fill="#84BE84" rx="3" ry="3" style="stroke:#038048;stroke-width:1.0;"/><text fill="#000000" font-family="sans-serif" font-size="14" lengthAdjust="spacing" textLength="303" x="29" y="438.972">get_u8(offset: u64, Endian: e): Option&lt;u8&gt;</text><ellipse cx="20" cy="451.9222" fill="#84BE84" rx="3" ry="3" style="stroke:#038048;stroke-width:1.0;"/><text fill="#000000" font-family="sans-serif" font-size="14" lengthAdjust="spacing" textLength="321" x="29" y="455.2689">get_u16(offset: u64, Endian: e): Option&lt;u16&gt;</text><ellipse cx="20" cy="468.2191" fill="#84BE84" rx="3" ry="3" style="stroke:#038048;stroke-width:1.0;"/><text fill="#000000" font-family="sans-serif" font-size="14" lengthAdjust="spacing" textLength="321" x="29" y="471.5657">get_u32(offset: u64, Endian: e): Option&lt;u32&gt;</text><ellipse cx="20" cy="484.5159" fill="#84BE84" rx="3" ry="3" style="stroke:#038048;stroke-width:1.0;"/><text fill="#000000" font-family="sans-serif" font-size="14" lengthAdjust="spacing" textLength="321" x="29" y="487.8626">get_u64(offset: u64, Endian: e): Option&lt;u64&gt;</text></g><!--class VecBuffer--><g id="elem_VecBuffer"><rect codeLine="25" fill="#F1F1F1" height="129.4844" id="VecBuffer" rx="2.5" ry="2.5" style="stroke:#181818;stroke-width:0.5;" width="347" x="391" y="365.68"/><ellipse cx="521.25" cy="381.68" fill="#F1F1F1" rx="11" ry="11" style="stroke:#181818;stroke-width:1.0;"/><path d="M520.7344,382.2425 Q518.875,381.5394 518.2188,380.7738 Q517.5781,379.9925 517.5781,378.68 Q517.5781,376.9925 518.6563,376.0238 Q519.7344,375.055 521.6094,375.055 Q522.4688,375.055 523.3125,375.2581 Q524.1719,375.4456 525.0156,375.8363 L525.0156,378.2269 Q524.2344,377.6644 523.4063,377.3831 Q522.5938,377.0863 521.7969,377.0863 Q520.9219,377.0863 520.4375,377.4456 Q519.9688,377.805 519.9688,378.4613 Q519.9688,378.9769 520.3125,379.3206 Q520.6563,379.6488 521.75,380.055 L522.8125,380.4613 Q524.2969,381.0081 525,381.9144 Q525.7188,382.8206 525.7188,384.1956 Q525.7188,386.0706 524.6094,386.9925 Q523.5,387.9144 521.25,387.9144 Q520.3281,387.9144 519.4063,387.6956 Q518.4844,387.4769 517.625,387.055 L517.625,384.5238 Q518.5938,385.2113 519.5156,385.555 Q520.4375,385.8988 521.3281,385.8988 Q522.2344,385.8988 522.7344,385.4925 Q523.2344,385.0706 523.2344,384.3363 Q523.2344,383.7738 522.8906,383.3675 Q522.5625,382.9456 521.9375,382.6956 L520.7344,382.2425 Z " fill="#000000"/><polygon fill="#4177AF" points="546.75,377.18,542.75,383.18,550.75,383.18" style="stroke:#1963A0;stroke-width:1.0;"/><text fill="#000000" font-family="sans-serif" font-size="14" lengthAdjust="spacing" textLength="67" x="552.75" y="386.5267">VecBuffer</text><line style="stroke:#181818;stroke-width:0.5;" x1="392" x2="737" y1="397.68" y2="397.68"/><line style="stroke:#181818;stroke-width:0.5;" x1="392" x2="737" y1="405.68" y2="405.68"/><polygon fill="#4177AF" points="402,415.3284,398,421.3284,406,421.3284" style="stroke:#1963A0;stroke-width:1.0;"/><text fill="#000000" font-family="sans-serif" font-size="14" lengthAdjust="spacing" textLength="232" x="411" y="422.6751">new(buffer: Vec&lt;u8&gt;): VecBuffer</text><ellipse cx="402" cy="435.6253" fill="#84BE84" rx="3" ry="3" style="stroke:#038048;stroke-width:1.0;"/><text fill="#000000" font-family="sans-serif" font-size="14" lengthAdjust="spacing" textLength="303" x="411" y="438.972">get_u8(offset: u64, Endian: e): Option&lt;u8&gt;</text><ellipse cx="402" cy="451.9222" fill="#84BE84" rx="3" ry="3" style="stroke:#038048;stroke-width:1.0;"/><text fill="#000000" font-family="sans-serif" font-size="14" lengthAdjust="spacing" textLength="321" x="411" y="455.2689">get_u16(offset: u64, Endian: e): Option&lt;u16&gt;</text><ellipse cx="402" cy="468.2191" fill="#84BE84" rx="3" ry="3" style="stroke:#038048;stroke-width:1.0;"/><text fill="#000000" font-family="sans-serif" font-size="14" lengthAdjust="spacing" textLength="321" x="411" y="471.5657">get_u32(offset: u64, Endian: e): Option&lt;u32&gt;</text><ellipse cx="402" cy="484.5159" fill="#84BE84" rx="3" ry="3" style="stroke:#038048;stroke-width:1.0;"/><text fill="#000000" font-family="sans-serif" font-size="14" lengthAdjust="spacing" textLength="321" x="411" y="487.8626">get_u64(offset: u64, Endian: e): Option&lt;u64&gt;</text></g><!--class File--><g id="elem_File"><rect codeLine="33" fill="#F1F1F1" height="129.4844" id="File" rx="2.5" ry="2.5" style="stroke:#181818;stroke-width:0.5;" width="360" x="772.5" y="365.68"/><ellipse cx="931.25" cy="381.68" fill="#F1F1F1" rx="11" ry="11" style="stroke:#181818;stroke-width:1.0;"/><path d="M930.7344,382.2425 Q928.875,381.5394 928.2188,380.7738 Q927.5781,379.9925 927.5781,378.68 Q927.5781,376.9925 928.6563,376.0238 Q929.7344,375.055 931.6094,375.055 Q932.4688,375.055 933.3125,375.2581 Q934.1719,375.4456 935.0156,375.8363 L935.0156,378.2269 Q934.2344,377.6644 933.4063,377.3831 Q932.5938,377.0863 931.7969,377.0863 Q930.9219,377.0863 930.4375,377.4456 Q929.9688,377.805 929.9688,378.4613 Q929.9688,378.9769 930.3125,379.3206 Q930.6563,379.6488 931.75,380.055 L932.8125,380.4613 Q934.2969,381.0081 935,381.9144 Q935.7188,382.8206 935.7188,384.1956 Q935.7188,386.0706 934.6094,386.9925 Q933.5,387.9144 931.25,387.9144 Q930.3281,387.9144 929.4063,387.6956 Q928.4844,387.4769 927.625,387.055 L927.625,384.5238 Q928.5938,385.2113 929.5156,385.555 Q930.4375,385.8988 931.3281,385.8988 Q932.2344,385.8988 932.7344,385.4925 Q933.2344,385.0706 933.2344,384.3363 Q933.2344,383.7738 932.8906,383.3675 Q932.5625,382.9456 931.9375,382.6956 L930.7344,382.2425 Z " fill="#000000"/><polygon fill="#4177AF" points="956.75,377.18,952.75,383.18,960.75,383.18" style="stroke:#1963A0;stroke-width:1.0;"/><text fill="#000000" font-family="sans-serif" font-size="14" lengthAdjust="spacing" textLength="23" x="962.75" y="386.5267">File</text><line style="stroke:#181818;stroke-width:0.5;" x1="773.5" x2="1131.5" y1="397.68" y2="397.68"/><line style="stroke:#181818;stroke-width:0.5;" x1="773.5" x2="1131.5" y1="405.68" y2="405.68"/><polygon fill="#4177AF" points="783.5,415.3284,779.5,421.3284,787.5,421.3284" style="stroke:#1963A0;stroke-width:1.0;"/><text fill="#000000" font-family="sans-serif" font-size="14" lengthAdjust="spacing" textLength="334" x="792.5" y="422.6751">open&lt;P: AsRef&lt;Path&gt;&gt;(path: P): Option&lt;File&gt;</text><ellipse cx="783.5" cy="435.6253" fill="#84BE84" rx="3" ry="3" style="stroke:#038048;stroke-width:1.0;"/><text fill="#000000" font-family="sans-serif" font-size="14" lengthAdjust="spacing" textLength="303" x="792.5" y="438.972">get_u8(offset: u64, Endian: e): Option&lt;u8&gt;</text><ellipse cx="783.5" cy="451.9222" fill="#84BE84" rx="3" ry="3" style="stroke:#038048;stroke-width:1.0;"/><text fill="#000000" font-family="sans-serif" font-size="14" lengthAdjust="spacing" textLength="321" x="792.5" y="455.2689">get_u16(offset: u64, Endian: e): Option&lt;u16&gt;</text><ellipse cx="783.5" cy="468.2191" fill="#84BE84" rx="3" ry="3" style="stroke:#038048;stroke-width:1.0;"/><text fill="#000000" font-family="sans-serif" font-size="14" lengthAdjust="spacing" textLength="321" x="792.5" y="471.5657">get_u32(offset: u64, Endian: e): Option&lt;u32&gt;</text><ellipse cx="783.5" cy="484.5159" fill="#84BE84" rx="3" ry="3" style="stroke:#038048;stroke-width:1.0;"/><text fill="#000000" font-family="sans-serif" font-size="14" lengthAdjust="spacing" textLength="321" x="792.5" y="487.8626">get_u64(offset: u64, Endian: e): Option&lt;u64&gt;</text></g><!--reverse link ReadElf to BinParser--><g id="link_ReadElf_BinParser"><path codeLine="41" d="M564.5,128.29 C564.5,147.04 564.5,156.29 564.5,175.81 " fill="none" id="ReadElf-backto-BinParser" style="stroke:#181818;stroke-width:1.0;"/><polygon fill="#181818" points="564.5,116.29,560.5,122.29,564.5,128.29,568.5,122.29,564.5,116.29" style="stroke:#181818;stroke-width:1.0;"/></g><!--reverse link BinParser to Slice--><g id="link_BinParser_Slice"><path codeLine="42" d="M417.6811,313.9903 C378.6811,333.1303 352.1,346.18 313.11,365.32 " fill="none" id="BinParser-backto-Slice" style="stroke:#181818;stroke-width:1.0;stroke-dasharray:7.0,7.0;"/><polygon fill="none" points="433.84,306.06,415.0377,308.604,420.3245,319.3766,433.84,306.06" style="stroke:#181818;stroke-width:1.0;"/></g><!--reverse link BinParser to VecBuffer--><g id="link_BinParser_VecBuffer"><path codeLine="43" d="M564.5,323.93 C564.5,343.13 564.5,346.19 564.5,365.39 " fill="none" id="BinParser-backto-VecBuffer" style="stroke:#181818;stroke-width:1.0;stroke-dasharray:7.0,7.0;"/><polygon fill="none" points="564.5,305.93,558.5,323.93,570.5,323.93,564.5,305.93" style="stroke:#181818;stroke-width:1.0;"/></g><!--reverse link BinParser to File--><g id="link_BinParser_File"><path codeLine="44" d="M713.4171,313.8914 C753.0271,333.0314 780.23,346.18 819.84,365.32 " fill="none" id="BinParser-backto-File" style="stroke:#181818;stroke-width:1.0;stroke-dasharray:7.0,7.0;"/><polygon fill="none" points="697.21,306.06,710.8066,319.2938,716.0275,308.4891,697.21,306.06" style="stroke:#181818;stroke-width:1.0;"/></g><!--SRC=[tPHTQuCm58Rl_HNdQhZP5jgAI0Y1TNItamvsCqPnUh86R9GaRh2F_lR5pgcu5dTjRaAIzmavxpavdZQgJ0niC4xN6OSF1-oOpO3IFPfTdch6xFAuwt6LxxSw4mcwpoNdg0XSF9RXqoM1kyA8NDBw6jRHlsBIg1ymeMN8pkdp0YMD25ph3N8QnMR7c5lOYK1qWlbo74z8Wuh72S9Ao2XM6bKTW_U2Pbk6RiwvHaEW3Fm9h6KgOaa0s-liUphwUJ0Cp8CkiLmC4yj5bmZyOIBmkuGMxtY6cS1D5cjD8EdHrfr3dTpxAcMrBGU9Rt-oTnICnBLEtBRSLiT8JyNUrc8Z6vy3jo9h4l-_trKHR3n6_FQrgsawRLk4qpOB-ccRtK_zzpRRikWTL1Pz0m00]--></g></svg>