<svg xmlns="http://www.w3.org/2000/svg" xmlns:xlink="http://www.w3.org/1999/xlink" contentStyleType="text/css" height="657px" preserveAspectRatio="none" style="width:1313px;height:657px;background:#FFFFFF;" version="1.1" viewBox="0 0 1313 657" width="1313px" zoomAndPan="magnify"><defs/><g><!--class ReadElf--><g id="elem_ReadElf"><rect codeLine="1" fill="#F1F1F1" height="276.1563" id="ReadElf" rx="2.5" ry="2.5" style="stroke:#181818;stroke-width:0.5;" width="389" x="481" y="7"/><ellipse cx="639.75" cy="23" fill="#ADD1B2" rx="11" ry="11" style="stroke:#181818;stroke-width:1.0;"/><path d="M642.7188,28.6406 Q642.1406,28.9375 641.5,29.0781 Q640.8594,29.2344 640.1563,29.2344 Q637.6563,29.2344 636.3281,27.5938 Q635.0156,25.9375 635.0156,22.8125 Q635.0156,19.6875 636.3281,18.0313 Q637.6563,16.375 640.1563,16.375 Q640.8594,16.375 641.5,16.5313 Q642.1563,16.6875 642.7188,16.9844 L642.7188,19.7031 Q642.0938,19.125 641.5,18.8594 Q640.9063,18.5781 640.2813,18.5781 Q638.9375,18.5781 638.25,19.6563 Q637.5625,20.7188 637.5625,22.8125 Q637.5625,24.9063 638.25,25.9844 Q638.9375,27.0469 640.2813,27.0469 Q640.9063,27.0469 641.5,26.7813 Q642.0938,26.5 642.7188,25.9219 L642.7188,28.6406 Z " fill="#000000"/><ellipse cx="665.25" cy="22.5" fill="#84BE84" rx="3" ry="3" style="stroke:#038048;stroke-width:1.0;"/><text fill="#000000" font-family="sans-serif" font-size="14" lengthAdjust="spacing" textLength="52" x="671.25" y="27.8467">ReadElf</text><line style="stroke:#181818;stroke-width:0.5;" x1="482" x2="869" y1="39" y2="39"/><ellipse cx="492" cy="72.9453" fill="none" rx="3" ry="3" style="stroke:#038048;stroke-width:1.0;"/><text fill="#000000" font-family="sans-serif" font-size="14" lengthAdjust="spacing" textLength="81" x="501" y="76.292">class: Class</text><ellipse cx="492" cy="89.2422" fill="none" rx="3" ry="3" style="stroke:#038048;stroke-width:1.0;"/><text fill="#000000" font-family="sans-serif" font-size="14" lengthAdjust="spacing" textLength="86" x="501" y="92.5889">data: Endian</text><ellipse cx="492" cy="105.5391" fill="none" rx="3" ry="3" style="stroke:#038048;stroke-width:1.0;"/><text fill="#000000" font-family="sans-serif" font-size="14" lengthAdjust="spacing" textLength="86" x="501" y="108.8857">version: u32</text><ellipse cx="492" cy="121.8359" fill="none" rx="3" ry="3" style="stroke:#038048;stroke-width:1.0;"/><text fill="#000000" font-family="sans-serif" font-size="14" lengthAdjust="spacing" textLength="86" x="501" y="125.1826">osabi: OsAbi</text><ellipse cx="492" cy="138.1328" fill="none" rx="3" ry="3" style="stroke:#038048;stroke-width:1.0;"/><text fill="#000000" font-family="sans-serif" font-size="14" lengthAdjust="spacing" textLength="104" x="501" y="141.4795">abi_version: u8</text><ellipse cx="492" cy="154.4297" fill="none" rx="3" ry="3" style="stroke:#038048;stroke-width:1.0;"/><text fill="#000000" font-family="sans-serif" font-size="14" lengthAdjust="spacing" textLength="189" x="501" y="157.7764">exec_type: ExecutableType</text><ellipse cx="492" cy="170.7266" fill="none" rx="3" ry="3" style="stroke:#038048;stroke-width:1.0;"/><text fill="#000000" font-family="sans-serif" font-size="14" lengthAdjust="spacing" textLength="126" x="501" y="174.0732">machine: Machine</text><ellipse cx="492" cy="187.0234" fill="none" rx="3" ry="3" style="stroke:#038048;stroke-width:1.0;"/><text fill="#000000" font-family="sans-serif" font-size="14" lengthAdjust="spacing" textLength="71" x="501" y="190.3701">entry: u64</text><ellipse cx="492" cy="203.3203" fill="none" rx="3" ry="3" style="stroke:#038048;stroke-width:1.0;"/><text fill="#000000" font-family="sans-serif" font-size="14" lengthAdjust="spacing" textLength="68" x="501" y="206.667">flags: u32</text><line style="stroke:#181818;stroke-width:1.0;stroke-dasharray:1.0,2.0;" x1="482" x2="648.5" y1="55.1484" y2="55.1484"/><text fill="#000000" font-family="sans-serif" font-size="14" lengthAdjust="spacing" textLength="54" x="648.5" y="59.4951">&#171;fields&#187;</text><line style="stroke:#181818;stroke-width:1.0;stroke-dasharray:1.0,2.0;" x1="702.5" x2="869" y1="55.1484" y2="55.1484"/><ellipse cx="492" cy="239.9141" fill="#84BE84" rx="3" ry="3" style="stroke:#038048;stroke-width:1.0;"/><text fill="#000000" font-family="sans-serif" font-size="14" lengthAdjust="spacing" textLength="299" x="501" y="243.2607">from_slice(buffer: &amp;[u8]): Option&lt;ReadElf&gt;</text><ellipse cx="492" cy="256.2109" fill="#84BE84" rx="3" ry="3" style="stroke:#038048;stroke-width:1.0;"/><text fill="#000000" font-family="sans-serif" font-size="14" lengthAdjust="spacing" textLength="320" x="501" y="259.5576">from_vec(buffer: Vec&lt;u8&gt;): Option&lt;ReadElf&gt;</text><ellipse cx="492" cy="272.5078" fill="#84BE84" rx="3" ry="3" style="stroke:#038048;stroke-width:1.0;"/><text fill="#000000" font-family="sans-serif" font-size="14" lengthAdjust="spacing" textLength="363" x="501" y="275.8545">open&lt;P: AsRef&lt;Path&gt;&gt;(path: P): Option&lt;ReadElf&gt;</text><line style="stroke:#181818;stroke-width:1.0;stroke-dasharray:1.0,2.0;" x1="482" x2="635.5" y1="222.1172" y2="222.1172"/><text fill="#000000" font-family="sans-serif" font-size="14" lengthAdjust="spacing" textLength="80" x="635.5" y="226.4639">&#171;methods&#187;</text><line style="stroke:#181818;stroke-width:1.0;stroke-dasharray:1.0,2.0;" x1="715.5" x2="869" y1="222.1172" y2="222.1172"/></g><!--class Endian--><g id="elem_Endian"><rect codeLine="18" fill="#F1F1F1" height="129.4844" id="Endian" rx="2.5" ry="2.5" style="stroke:#181818;stroke-width:0.5;" width="267" x="7" y="431.93"/><ellipse cx="107.25" cy="447.93" fill="#EB937F" rx="11" ry="11" style="stroke:#181818;stroke-width:1.0;"/><path d="M111.3594,453.93 L103.6406,453.93 L103.6406,441.5394 L111.3594,441.5394 L111.3594,443.6956 L106.0938,443.6956 L106.0938,446.3675 L110.8594,446.3675 L110.8594,448.5238 L106.0938,448.5238 L106.0938,451.7738 L111.3594,451.7738 L111.3594,453.93 Z " fill="#000000"/><ellipse cx="132.75" cy="447.43" fill="#84BE84" rx="3" ry="3" style="stroke:#038048;stroke-width:1.0;"/><text fill="#000000" font-family="sans-serif" font-size="14" lengthAdjust="spacing" textLength="47" x="138.75" y="452.7767">Endian</text><line style="stroke:#181818;stroke-width:0.5;" x1="8" x2="273" y1="463.93" y2="463.93"/><ellipse cx="18" cy="497.8753" fill="#84BE84" rx="3" ry="3" style="stroke:#038048;stroke-width:1.0;"/><text fill="#000000" font-family="sans-serif" font-size="14" lengthAdjust="spacing" textLength="241" x="27" y="501.222">try_from(v: u8): Result&lt;Endian, ()&gt;</text><line style="stroke:#181818;stroke-width:1.0;stroke-dasharray:1.0,2.0;" x1="8" x2="100.5" y1="480.0784" y2="480.0784"/><text fill="#000000" font-family="sans-serif" font-size="14" lengthAdjust="spacing" textLength="80" x="100.5" y="484.4251">&#171;methods&#187;</text><line style="stroke:#181818;stroke-width:1.0;stroke-dasharray:1.0,2.0;" x1="180.5" x2="273" y1="480.0784" y2="480.0784"/><ellipse cx="18" cy="534.4691" fill="none" rx="3" ry="3" style="stroke:#038048;stroke-width:1.0;"/><text fill="#000000" font-family="sans-serif" font-size="14" lengthAdjust="spacing" textLength="61" x="27" y="537.8157">Little = 1</text><ellipse cx="18" cy="550.7659" fill="none" rx="3" ry="3" style="stroke:#038048;stroke-width:1.0;"/><text fill="#000000" font-family="sans-serif" font-size="14" lengthAdjust="spacing" textLength="51" x="27" y="554.1126">Big = 2</text><line style="stroke:#181818;stroke-width:1.0;stroke-dasharray:1.0,2.0;" x1="8" x2="105" y1="516.6722" y2="516.6722"/><text fill="#000000" font-family="sans-serif" font-size="14" lengthAdjust="spacing" textLength="71" x="105" y="521.0189">&#171;variants&#187;</text><line style="stroke:#181818;stroke-width:1.0;stroke-dasharray:1.0,2.0;" x1="176" x2="273" y1="516.6722" y2="516.6722"/></g><!--class Class--><g id="elem_Class"><rect codeLine="26" fill="#F1F1F1" height="145.7813" id="Class" rx="2.5" ry="2.5" style="stroke:#181818;stroke-width:0.5;" width="257" x="309" y="423.79"/><ellipse cx="409.25" cy="439.79" fill="#EB937F" rx="11" ry="11" style="stroke:#181818;stroke-width:1.0;"/><path d="M413.3594,445.79 L405.6406,445.79 L405.6406,433.3994 L413.3594,433.3994 L413.3594,435.5556 L408.0938,435.5556 L408.0938,438.2275 L412.8594,438.2275 L412.8594,440.3838 L408.0938,440.3838 L408.0938,443.6338 L413.3594,443.6338 L413.3594,445.79 Z " fill="#000000"/><ellipse cx="434.75" cy="439.29" fill="#84BE84" rx="3" ry="3" style="stroke:#038048;stroke-width:1.0;"/><text fill="#000000" font-family="sans-serif" font-size="14" lengthAdjust="spacing" textLength="37" x="440.75" y="444.6367">Class</text><line style="stroke:#181818;stroke-width:0.5;" x1="310" x2="565" y1="455.79" y2="455.79"/><ellipse cx="320" cy="489.7353" fill="#84BE84" rx="3" ry="3" style="stroke:#038048;stroke-width:1.0;"/><text fill="#000000" font-family="sans-serif" font-size="14" lengthAdjust="spacing" textLength="231" x="329" y="493.082">try_from(v: u8): Result&lt;Class, ()&gt;</text><line style="stroke:#181818;stroke-width:1.0;stroke-dasharray:1.0,2.0;" x1="310" x2="397.5" y1="471.9384" y2="471.9384"/><text fill="#000000" font-family="sans-serif" font-size="14" lengthAdjust="spacing" textLength="80" x="397.5" y="476.2851">&#171;methods&#187;</text><line style="stroke:#181818;stroke-width:1.0;stroke-dasharray:1.0,2.0;" x1="477.5" x2="565" y1="471.9384" y2="471.9384"/><ellipse cx="320" cy="526.3291" fill="none" rx="3" ry="3" style="stroke:#038048;stroke-width:1.0;"/><text fill="#000000" font-family="sans-serif" font-size="14" lengthAdjust="spacing" textLength="63" x="329" y="529.6757">Elf32 = 1</text><ellipse cx="320" cy="542.6259" fill="none" rx="3" ry="3" style="stroke:#038048;stroke-width:1.0;"/><text fill="#000000" font-family="sans-serif" font-size="14" lengthAdjust="spacing" textLength="63" x="329" y="545.9726">Elf64 = 2</text><ellipse cx="320" cy="558.9228" fill="#84BE84" rx="3" ry="3" style="stroke:#038048;stroke-width:1.0;"/><text fill="#000000" font-family="sans-serif" font-size="14" lengthAdjust="spacing" textLength="138" x="329" y="562.2695">Unknown(value: u8)</text><line style="stroke:#181818;stroke-width:1.0;stroke-dasharray:1.0,2.0;" x1="310" x2="402" y1="508.5322" y2="508.5322"/><text fill="#000000" font-family="sans-serif" font-size="14" lengthAdjust="spacing" textLength="71" x="402" y="512.8789">&#171;variants&#187;</text><line style="stroke:#181818;stroke-width:1.0;stroke-dasharray:1.0,2.0;" x1="473" x2="565" y1="508.5322" y2="508.5322"/></g><!--class OsAbi--><g id="elem_OsAbi"><rect codeLine="35" fill="#F1F1F1" height="270.4531" id="OsAbi" rx="2.5" ry="2.5" style="stroke:#181818;stroke-width:0.5;" width="150" x="600.5" y="361.45"/><ellipse cx="623.15" cy="382.7469" fill="#ADD1B2" rx="11" ry="11" style="stroke:#181818;stroke-width:1.0;"/><path d="M626.1188,388.3875 Q625.5406,388.6844 624.9,388.825 Q624.2594,388.9813 623.5563,388.9813 Q621.0563,388.9813 619.7281,387.3406 Q618.4156,385.6844 618.4156,382.5594 Q618.4156,379.4344 619.7281,377.7781 Q621.0563,376.1219 623.5563,376.1219 Q624.2594,376.1219 624.9,376.2781 Q625.5563,376.4344 626.1188,376.7313 L626.1188,379.45 Q625.4938,378.8719 624.9,378.6063 Q624.3063,378.325 623.6813,378.325 Q622.3375,378.325 621.65,379.4031 Q620.9625,380.4656 620.9625,382.5594 Q620.9625,384.6531 621.65,385.7313 Q622.3375,386.7938 623.6813,386.7938 Q624.3063,386.7938 624.9,386.5281 Q625.4938,386.2469 626.1188,385.6688 L626.1188,388.3875 Z " fill="#000000"/><ellipse cx="643.85" cy="382.2469" fill="#84BE84" rx="3" ry="3" style="stroke:#038048;stroke-width:1.0;"/><text fill="#000000" font-family="sans-serif" font-size="14" lengthAdjust="spacing" textLength="40" x="674.85" y="379.4451">OsAbi</text><text fill="#000000" font-family="sans-serif" font-size="14" lengthAdjust="spacing" textLength="90" x="649.85" y="395.742">(ELFOSABI_*)</text><line style="stroke:#181818;stroke-width:0.5;" x1="601.5" x2="749.5" y1="404.0438" y2="404.0438"/><ellipse cx="611.5" cy="437.9891" fill="#84BE84" rx="3" ry="3" style="stroke:#038048;stroke-width:1.0;"/><text fill="#000000" font-family="sans-serif" font-size="14" lengthAdjust="spacing" textLength="81" x="620.5" y="441.3357">os_abi(): u8</text><ellipse cx="611.5" cy="454.2859" fill="#84BE84" rx="3" ry="3" style="stroke:#038048;stroke-width:1.0;"/><text fill="#000000" font-family="sans-serif" font-size="14" lengthAdjust="spacing" textLength="124" x="620.5" y="457.6326">from(v: u8): OsAbi</text><ellipse cx="611.5" cy="470.5828" fill="#84BE84" rx="3" ry="3" style="stroke:#038048;stroke-width:1.0;"/><text fill="#000000" font-family="sans-serif" font-size="14" lengthAdjust="spacing" textLength="70" x="620.5" y="473.9295">to_string()</text><line style="stroke:#181818;stroke-width:1.0;stroke-dasharray:1.0,2.0;" x1="601.5" x2="635.5" y1="420.1922" y2="420.1922"/><text fill="#000000" font-family="sans-serif" font-size="14" lengthAdjust="spacing" textLength="80" x="635.5" y="424.5389">&#171;methods&#187;</text><line style="stroke:#181818;stroke-width:1.0;stroke-dasharray:1.0,2.0;" x1="715.5" x2="749.5" y1="420.1922" y2="420.1922"/><ellipse cx="611.5" cy="507.1766" fill="none" rx="3" ry="3" style="stroke:#038048;stroke-width:1.0;"/><text fill="#000000" font-family="sans-serif" font-size="14" lengthAdjust="spacing" textLength="69" x="620.5" y="510.5232">NONE = 0</text><ellipse cx="611.5" cy="523.4734" fill="none" rx="3" ry="3" style="stroke:#038048;stroke-width:1.0;"/><text fill="#000000" font-family="sans-serif" font-size="14" lengthAdjust="spacing" textLength="67" x="620.5" y="526.8201">HPUX = 1</text><ellipse cx="611.5" cy="539.7703" fill="none" rx="3" ry="3" style="stroke:#038048;stroke-width:1.0;"/><text fill="#000000" font-family="sans-serif" font-size="14" lengthAdjust="spacing" textLength="87" x="620.5" y="543.117">NETBSD = 2</text><ellipse cx="611.5" cy="556.0672" fill="none" rx="3" ry="3" style="stroke:#038048;stroke-width:1.0;"/><text fill="#000000" font-family="sans-serif" font-size="14" lengthAdjust="spacing" textLength="68" x="620.5" y="559.4139">LINUX = 3</text><ellipse cx="611.5" cy="572.3641" fill="none" rx="3" ry="3" style="stroke:#038048;stroke-width:1.0;"/><text fill="#000000" font-family="sans-serif" font-size="14" lengthAdjust="spacing" textLength="101" x="620.5" y="575.7107">GNUHURD = 4</text><ellipse cx="611.5" cy="588.6609" fill="none" rx="3" ry="3" style="stroke:#038048;stroke-width:1.0;"/><text fill="#000000" font-family="sans-serif" font-size="14" lengthAdjust="spacing" textLength="87" x="620.5" y="592.0076">SOLARIS = 6</text><ellipse cx="611.5" cy="604.9578" fill="none" rx="3" ry="3" style="stroke:#038048;stroke-width:1.0;"/><text fill="#000000" font-family="sans-serif" font-size="14" lengthAdjust="spacing" textLength="50" x="620.5" y="608.3045">AIX = 7</text><ellipse cx="611.5" cy="621.2547" fill="none" rx="3" ry="3" style="stroke:#038048;stroke-width:1.0;"/><text fill="#000000" font-family="sans-serif" font-size="14" lengthAdjust="spacing" textLength="54" x="620.5" y="624.6014">IRIX = 8</text><line style="stroke:#181818;stroke-width:1.0;stroke-dasharray:1.0,2.0;" x1="601.5" x2="632" y1="489.3797" y2="489.3797"/><text fill="#000000" font-family="sans-serif" font-size="14" lengthAdjust="spacing" textLength="87" x="632" y="493.7264">&#171;constants&#187;</text><line style="stroke:#181818;stroke-width:1.0;stroke-dasharray:1.0,2.0;" x1="719" x2="749.5" y1="489.3797" y2="489.3797"/></g><!--class ExecutableType--><g id="elem_ExecutableType"><rect codeLine="51" fill="#F1F1F1" height="307.0469" id="ExecutableType" rx="2.5" ry="2.5" style="stroke:#181818;stroke-width:0.5;" width="229" x="786" y="343.15"/><ellipse cx="835.75" cy="364.4469" fill="#EB937F" rx="11" ry="11" style="stroke:#181818;stroke-width:1.0;"/><path d="M839.8594,370.4469 L832.1406,370.4469 L832.1406,358.0563 L839.8594,358.0563 L839.8594,360.2125 L834.5938,360.2125 L834.5938,362.8844 L839.3594,362.8844 L839.3594,365.0406 L834.5938,365.0406 L834.5938,368.2906 L839.8594,368.2906 L839.8594,370.4469 Z " fill="#000000"/><ellipse cx="861.25" cy="363.9469" fill="#84BE84" rx="3" ry="3" style="stroke:#038048;stroke-width:1.0;"/><text fill="#000000" font-family="sans-serif" font-size="14" lengthAdjust="spacing" textLength="110" x="867.25" y="361.1451">ExecutableType</text><text fill="#000000" font-family="sans-serif" font-size="14" lengthAdjust="spacing" textLength="42" x="901.25" y="377.442">(ET_*)</text><line style="stroke:#181818;stroke-width:0.5;" x1="787" x2="1014" y1="385.7438" y2="385.7438"/><ellipse cx="797" cy="419.6891" fill="#84BE84" rx="3" ry="3" style="stroke:#038048;stroke-width:1.0;"/><text fill="#000000" font-family="sans-serif" font-size="14" lengthAdjust="spacing" textLength="203" x="806" y="423.0357">from(v: u16): ExecutableType</text><ellipse cx="797" cy="435.9859" fill="#84BE84" rx="3" ry="3" style="stroke:#038048;stroke-width:1.0;"/><text fill="#000000" font-family="sans-serif" font-size="14" lengthAdjust="spacing" textLength="70" x="806" y="439.3326">to_string()</text><line style="stroke:#181818;stroke-width:1.0;stroke-dasharray:1.0,2.0;" x1="787" x2="860.5" y1="401.8922" y2="401.8922"/><text fill="#000000" font-family="sans-serif" font-size="14" lengthAdjust="spacing" textLength="80" x="860.5" y="406.2389">&#171;methods&#187;</text><line style="stroke:#181818;stroke-width:1.0;stroke-dasharray:1.0,2.0;" x1="940.5" x2="1014" y1="401.8922" y2="401.8922"/><ellipse cx="797" cy="472.5797" fill="none" rx="3" ry="3" style="stroke:#038048;stroke-width:1.0;"/><text fill="#000000" font-family="sans-serif" font-size="14" lengthAdjust="spacing" textLength="134" x="806" y="475.9264">ET_LOOS = 0xFE00</text><ellipse cx="797" cy="488.8766" fill="none" rx="3" ry="3" style="stroke:#038048;stroke-width:1.0;"/><text fill="#000000" font-family="sans-serif" font-size="14" lengthAdjust="spacing" textLength="127" x="806" y="492.2232">ET_HIOS = 0xFEFF</text><ellipse cx="797" cy="505.1734" fill="none" rx="3" ry="3" style="stroke:#038048;stroke-width:1.0;"/><text fill="#000000" font-family="sans-serif" font-size="14" lengthAdjust="spacing" textLength="153" x="806" y="508.5201">ET_LOPROC = 0xFF00</text><ellipse cx="797" cy="521.4703" fill="none" rx="3" ry="3" style="stroke:#038048;stroke-width:1.0;"/><text fill="#000000" font-family="sans-serif" font-size="14" lengthAdjust="spacing" textLength="146" x="806" y="524.817">ET_HIPROC = 0xFFFF</text><line style="stroke:#181818;stroke-width:1.0;stroke-dasharray:1.0,2.0;" x1="787" x2="857" y1="454.7828" y2="454.7828"/><text fill="#000000" font-family="sans-serif" font-size="14" lengthAdjust="spacing" textLength="87" x="857" y="459.1295">&#171;constants&#187;</text><line style="stroke:#181818;stroke-width:1.0;stroke-dasharray:1.0,2.0;" x1="944" x2="1014" y1="454.7828" y2="454.7828"/><ellipse cx="797" cy="558.0641" fill="none" rx="3" ry="3" style="stroke:#038048;stroke-width:1.0;"/><text fill="#000000" font-family="sans-serif" font-size="14" lengthAdjust="spacing" textLength="151" x="806" y="561.4107">None = ET_NONE = 0</text><ellipse cx="797" cy="574.3609" fill="none" rx="3" ry="3" style="stroke:#038048;stroke-width:1.0;"/><text fill="#000000" font-family="sans-serif" font-size="14" lengthAdjust="spacing" textLength="181" x="806" y="577.7076">Relocatable = ET_REL = 1</text><ellipse cx="797" cy="590.6578" fill="none" rx="3" ry="3" style="stroke:#038048;stroke-width:1.0;"/><text fill="#000000" font-family="sans-serif" font-size="14" lengthAdjust="spacing" textLength="187" x="806" y="594.0045">Executable = ET_EXEC = 2</text><ellipse cx="797" cy="606.9547" fill="none" rx="3" ry="3" style="stroke:#038048;stroke-width:1.0;"/><text fill="#000000" font-family="sans-serif" font-size="14" lengthAdjust="spacing" textLength="153" x="806" y="610.3014">Shared = ET_DYN = 3</text><ellipse cx="797" cy="623.2516" fill="none" rx="3" ry="3" style="stroke:#038048;stroke-width:1.0;"/><text fill="#000000" font-family="sans-serif" font-size="14" lengthAdjust="spacing" textLength="147" x="806" y="626.5982">Core = ET_CORE = 4</text><ellipse cx="797" cy="639.5484" fill="#84BE84" rx="3" ry="3" style="stroke:#038048;stroke-width:1.0;"/><text fill="#000000" font-family="sans-serif" font-size="14" lengthAdjust="spacing" textLength="147" x="806" y="642.8951">Unknown(value: u16)</text><line style="stroke:#181818;stroke-width:1.0;stroke-dasharray:1.0,2.0;" x1="787" x2="865" y1="540.2672" y2="540.2672"/><text fill="#000000" font-family="sans-serif" font-size="14" lengthAdjust="spacing" textLength="71" x="865" y="544.6139">&#171;variants&#187;</text><line style="stroke:#181818;stroke-width:1.0;stroke-dasharray:1.0,2.0;" x1="936" x2="1014" y1="540.2672" y2="540.2672"/></g><!--class Machine--><g id="elem_Machine"><rect codeLine="69" fill="#F1F1F1" height="237.8594" id="Machine" rx="2.5" ry="2.5" style="stroke:#181818;stroke-width:0.5;" width="256" x="1050.5" y="377.75"/><ellipse cx="1139.75" cy="399.0469" fill="#ADD1B2" rx="11" ry="11" style="stroke:#181818;stroke-width:1.0;"/><path d="M1142.7188,404.6875 Q1142.1406,404.9844 1141.5,405.125 Q1140.8594,405.2813 1140.1563,405.2813 Q1137.6563,405.2813 1136.3281,403.6406 Q1135.0156,401.9844 1135.0156,398.8594 Q1135.0156,395.7344 1136.3281,394.0781 Q1137.6563,392.4219 1140.1563,392.4219 Q1140.8594,392.4219 1141.5,392.5781 Q1142.1563,392.7344 1142.7188,393.0313 L1142.7188,395.75 Q1142.0938,395.1719 1141.5,394.9063 Q1140.9063,394.625 1140.2813,394.625 Q1138.9375,394.625 1138.25,395.7031 Q1137.5625,396.7656 1137.5625,398.8594 Q1137.5625,400.9531 1138.25,402.0313 Q1138.9375,403.0938 1140.2813,403.0938 Q1140.9063,403.0938 1141.5,402.8281 Q1142.0938,402.5469 1142.7188,401.9688 L1142.7188,404.6875 Z " fill="#000000"/><ellipse cx="1165.25" cy="398.5469" fill="#84BE84" rx="3" ry="3" style="stroke:#038048;stroke-width:1.0;"/><text fill="#000000" font-family="sans-serif" font-size="14" lengthAdjust="spacing" textLength="58" x="1171.25" y="395.7451">Machine</text><text fill="#000000" font-family="sans-serif" font-size="14" lengthAdjust="spacing" textLength="45" x="1177.75" y="412.042">(EM_*)</text><line style="stroke:#181818;stroke-width:0.5;" x1="1051.5" x2="1305.5" y1="420.3438" y2="420.3438"/><ellipse cx="1061.5" cy="454.2891" fill="#84BE84" rx="3" ry="3" style="stroke:#038048;stroke-width:1.0;"/><text fill="#000000" font-family="sans-serif" font-size="14" lengthAdjust="spacing" textLength="105" x="1070.5" y="457.6357">machine(): u16</text><ellipse cx="1061.5" cy="470.5859" fill="#84BE84" rx="3" ry="3" style="stroke:#038048;stroke-width:1.0;"/><text fill="#000000" font-family="sans-serif" font-size="14" lengthAdjust="spacing" textLength="151" x="1070.5" y="473.9326">from(v: u16): Machine</text><ellipse cx="1061.5" cy="486.8828" fill="#84BE84" rx="3" ry="3" style="stroke:#038048;stroke-width:1.0;"/><text fill="#000000" font-family="sans-serif" font-size="14" lengthAdjust="spacing" textLength="70" x="1070.5" y="490.2295">to_string()</text><line style="stroke:#181818;stroke-width:1.0;stroke-dasharray:1.0,2.0;" x1="1051.5" x2="1138.5" y1="436.4922" y2="436.4922"/><text fill="#000000" font-family="sans-serif" font-size="14" lengthAdjust="spacing" textLength="80" x="1138.5" y="440.8389">&#171;methods&#187;</text><line style="stroke:#181818;stroke-width:1.0;stroke-dasharray:1.0,2.0;" x1="1218.5" x2="1305.5" y1="436.4922" y2="436.4922"/><text fill="#000000" font-family="sans-serif" font-size="14" lengthAdjust="spacing" textLength="188" x="1056.5" y="526.8232">None = EM_NONE = x0000</text><text fill="#000000" font-family="sans-serif" font-size="14" lengthAdjust="spacing" textLength="177" x="1056.5" y="543.1201">i386 = EM_386 = 0x0003</text><text fill="#000000" font-family="sans-serif" font-size="14" lengthAdjust="spacing" textLength="178" x="1056.5" y="559.417">Arm = EM_ARM = 0x0028</text><text fill="#000000" font-family="sans-serif" font-size="14" lengthAdjust="spacing" textLength="222" x="1056.5" y="575.7139">x86_64 = EM_X86_64 = 0x003E</text><text fill="#000000" font-family="sans-serif" font-size="14" lengthAdjust="spacing" textLength="244" x="1056.5" y="592.0107">Aarch64 = EM_AARCH64 = 0x00B7</text><text fill="#000000" font-family="sans-serif" font-size="14" lengthAdjust="spacing" textLength="138" x="1056.5" y="608.3076">Unknown(value: 16)</text><line style="stroke:#181818;stroke-width:1.0;stroke-dasharray:1.0,2.0;" x1="1051.5" x2="1135" y1="505.6797" y2="505.6797"/><text fill="#000000" font-family="sans-serif" font-size="14" lengthAdjust="spacing" textLength="87" x="1135" y="510.0264">&#171;constants&#187;</text><line style="stroke:#181818;stroke-width:1.0;stroke-dasharray:1.0,2.0;" x1="1222" x2="1305.5" y1="505.6797" y2="505.6797"/></g><!--reverse link ReadElf to Endian--><g id="link_ReadElf_Endian"><path codeLine="83" d="M469.7677,236.5681 C406.9377,267.8481 349.38,300.75 291.5,343.15 C256.63,368.7 222.36,402.41 195.3,431.64 " fill="none" id="ReadElf-backto-Endian" style="stroke:#181818;stroke-width:1.0;"/><polygon fill="#181818" points="480.51,231.22,473.3561,230.3133,469.7677,236.5681,476.9215,237.4748,480.51,231.22" style="stroke:#181818;stroke-width:1.0;"/></g><!--reverse link ReadElf to Class--><g id="link_ReadElf_Class"><path codeLine="84" d="M575.1972,293.4096 C542.6572,341.2096 514.21,383 486.7,423.4 " fill="none" id="ReadElf-backto-Class" style="stroke:#181818;stroke-width:1.0;"/><polygon fill="#181818" points="581.95,283.49,575.267,286.1989,575.1972,293.4096,581.8801,290.7008,581.95,283.49" style="stroke:#181818;stroke-width:1.0;"/></g><!--reverse link ReadElf to OsAbi--><g id="link_ReadElf_OsAbi"><path codeLine="85" d="M675.5,295.49 C675.5,321.02 675.5,335.66 675.5,361.09 " fill="none" id="ReadElf-backto-OsAbi" style="stroke:#181818;stroke-width:1.0;"/><polygon fill="#181818" points="675.5,283.49,671.5,289.49,675.5,295.49,679.5,289.49,675.5,283.49" style="stroke:#181818;stroke-width:1.0;"/></g><!--reverse link ReadElf to ExecutableType--><g id="link_ReadElf_ExecutableType"><path codeLine="86" d="M770.432,293.5823 C782.982,313.0923 789.46,323.15 802.19,342.92 " fill="none" id="ReadElf-backto-ExecutableType" style="stroke:#181818;stroke-width:1.0;"/><polygon fill="#181818" points="763.94,283.49,763.8219,290.7001,770.432,293.5823,770.5501,286.3722,763.94,283.49" style="stroke:#181818;stroke-width:1.0;"/></g><!--reverse link ReadElf to Machine--><g id="link_ReadElf_Machine"><path codeLine="87" d="M880.7569,245.4707 C935.3769,275.3607 982.84,304.95 1032.5,343.15 C1046.01,353.55 1059.43,365.2 1072.34,377.31 " fill="none" id="ReadElf-backto-Machine" style="stroke:#181818;stroke-width:1.0;"/><polygon fill="#181818" points="870.23,239.71,873.5732,246.0993,880.7569,245.4707,877.4137,239.0814,870.23,239.71" style="stroke:#181818;stroke-width:1.0;"/></g><!--SRC=[dLLHRvim47xlhx3wC95shKXIiGWn99AI9L824MccJjk4768ID68YRB9Kq_xxZCy9aBLhDLxmVNTdxhxxRAwZ53E60e9NRXgZNnT8FBUtoBBYXAGhPjl2ak2rZ3JHe7m1ii8ScyYbgmHJGFOaPqb6JLHqEu1a32yJ4_dCMIQ023kiude0aWE9Glwq8s8_iImuNgRaGTZWtk9ear3XdC929L6UFuazZ3kmunIlMVLjsSQMy4tMw2FEist8qYGYshA8OvARwDtNelUz9QhSSL6LfTYmQ_5x4fsYFvF8AdhsI_7PZb1hPYA71IIsPfXlR5lRYPU9Pi_a_Bwu48qKMyLZVGH_roxw3Sjwj7r9dTWj8An8kGMvxv7MiglqFSu5oElvauJpbA2Fg0rsFraBerCL8QVxVpN8rDTB44rtErK5mZJkP0tIND0VDFj9jJrE2oBtbxM1IgM846ReKgw-KSsT3Fsvqn-7LwtBVrUTiL08JsjLaclqKDCdpqB6yuIkjLQrOPHHniywyNpF5PNhO8rcYyUgBSzzwC_lgxucOq-wks1-yXQZHL3wbNJd_iG9ndC1600uupBy0nZZG5gzcbWQXqHoqeHASXvUf-L4GjjeFN_qtao7-Dp4zyiMzCFGrVKJEXgVqE6m5ZiB_07WmqPq3LVnBsd9osWfPf7Ld4L0qYp2iX5m1-wa9hbJb-1q7zr1DQdv1kTa1PxxBruriq6MguI17xZLwCubAvYiQLPTM792QbsEPlhwQDIT9oNRDfuRL-CoVEkSZfnDZvmTT5tHdtHx1hXWePSkwDx9j-1nWgdoTE0S7Nf6A4-mS3uUrwM_wq8cpgFDCS1nWi7e5D47UPyHgFWx_fAkRbOtntzC0uCVKGE2KzpCR4gwuLFy_G40]--></g></svg>