<svg xmlns="http://www.w3.org/2000/svg" xmlns:xlink="http://www.w3.org/1999/xlink" contentStyleType="text/css" height="640px" preserveAspectRatio="none" style="width:1313px;height:640px;background:#FFFFFF;" version="1.1" viewBox="0 0 1313 640" width="1313px" zoomAndPan="magnify"><defs/><g><!--class ReadElf--><g id="elem_ReadElf"><rect codeLine="1" fill="#F1F1F1" height="259.8594" id="ReadElf" rx="2.5" ry="2.5" style="stroke:#181818;stroke-width:0.5;" width="415" x="468" y="7"/><ellipse cx="639.75" cy="23" fill="#ADD1B2" rx="11" ry="11" style="stroke:#181818;stroke-width:1.0;"/><path d="M642.7188,28.6406 Q642.1406,28.9375 641.5,29.0781 Q640.8594,29.2344 640.1563,29.2344 Q637.6563,29.2344 636.3281,27.5938 Q635.0156,25.9375 635.0156,22.8125 Q635.0156,19.6875 636.3281,18.0313 Q637.6563,16.375 640.1563,16.375 Q640.8594,16.375 641.5,16.5313 Q642.1563,16.6875 642.7188,16.9844 L642.7188,19.7031 Q642.0938,19.125 641.5,18.8594 Q640.9063,18.5781 640.2813,18.5781 Q638.9375,18.5781 638.25,19.6563 Q637.5625,20.7188 637.5625,22.8125 Q637.5625,24.9063 638.25,25.9844 Q638.9375,27.0469 640.2813,27.0469 Q640.9063,27.0469 641.5,26.7813 Q642.0938,26.5 642.7188,25.9219 L642.7188,28.6406 Z " fill="#000000"/><ellipse cx="665.25" cy="22.5" fill="#84BE84" rx="3" ry="3" style="stroke:#038048;stroke-width:1.0;"/><text fill="#000000" font-family="sans-serif" font-size="14" lengthAdjust="spacing" textLength="52" x="671.25" y="27.8467">ReadElf</text><line style="stroke:#181818;stroke-width:0.5;" x1="469" x2="882" y1="39" y2="39"/><ellipse cx="479" cy="72.9453" fill="none" rx="3" ry="3" style="stroke:#038048;stroke-width:1.0;"/><text fill="#000000" font-family="sans-serif" font-size="14" lengthAdjust="spacing" textLength="81" x="488" y="76.292">class: Class</text><ellipse cx="479" cy="89.2422" fill="none" rx="3" ry="3" style="stroke:#038048;stroke-width:1.0;"/><text fill="#000000" font-family="sans-serif" font-size="14" lengthAdjust="spacing" textLength="86" x="488" y="92.5889">data: Endian</text><ellipse cx="479" cy="105.5391" fill="none" rx="3" ry="3" style="stroke:#038048;stroke-width:1.0;"/><text fill="#000000" font-family="sans-serif" font-size="14" lengthAdjust="spacing" textLength="86" x="488" y="108.8857">version: u32</text><ellipse cx="479" cy="121.8359" fill="none" rx="3" ry="3" style="stroke:#038048;stroke-width:1.0;"/><text fill="#000000" font-family="sans-serif" font-size="14" lengthAdjust="spacing" textLength="86" x="488" y="125.1826">osabi: OsAbi</text><ellipse cx="479" cy="138.1328" fill="none" rx="3" ry="3" style="stroke:#038048;stroke-width:1.0;"/><text fill="#000000" font-family="sans-serif" font-size="14" lengthAdjust="spacing" textLength="104" x="488" y="141.4795">abi_version: u8</text><ellipse cx="479" cy="154.4297" fill="none" rx="3" ry="3" style="stroke:#038048;stroke-width:1.0;"/><text fill="#000000" font-family="sans-serif" font-size="14" lengthAdjust="spacing" textLength="189" x="488" y="157.7764">exec_type: ExecutableType</text><ellipse cx="479" cy="170.7266" fill="none" rx="3" ry="3" style="stroke:#038048;stroke-width:1.0;"/><text fill="#000000" font-family="sans-serif" font-size="14" lengthAdjust="spacing" textLength="126" x="488" y="174.0732">machine: Machine</text><ellipse cx="479" cy="187.0234" fill="none" rx="3" ry="3" style="stroke:#038048;stroke-width:1.0;"/><text fill="#000000" font-family="sans-serif" font-size="14" lengthAdjust="spacing" textLength="71" x="488" y="190.3701">entry: u64</text><ellipse cx="479" cy="203.3203" fill="none" rx="3" ry="3" style="stroke:#038048;stroke-width:1.0;"/><text fill="#000000" font-family="sans-serif" font-size="14" lengthAdjust="spacing" textLength="68" x="488" y="206.667">flags: u32</text><line style="stroke:#181818;stroke-width:1.0;stroke-dasharray:1.0,2.0;" x1="469" x2="648.5" y1="55.1484" y2="55.1484"/><text fill="#000000" font-family="sans-serif" font-size="14" lengthAdjust="spacing" textLength="54" x="648.5" y="59.4951">&#171;fields&#187;</text><line style="stroke:#181818;stroke-width:1.0;stroke-dasharray:1.0,2.0;" x1="702.5" x2="882" y1="55.1484" y2="55.1484"/><ellipse cx="479" cy="239.9141" fill="#84BE84" rx="3" ry="3" style="stroke:#038048;stroke-width:1.0;"/><text fill="#000000" font-family="sans-serif" font-size="14" lengthAdjust="spacing" textLength="266" x="488" y="243.2607">open(buffer: &amp;[u8]): Option&lt;ReadElf&gt;</text><ellipse cx="479" cy="256.2109" fill="#84BE84" rx="3" ry="3" style="stroke:#038048;stroke-width:1.0;"/><text fill="#000000" font-family="sans-serif" font-size="14" lengthAdjust="spacing" textLength="389" x="488" y="259.5576">open_file&lt;P: AsRef&lt;Path&gt;&gt;(path: P): Option&lt;ReadElf&gt;</text><line style="stroke:#181818;stroke-width:1.0;stroke-dasharray:1.0,2.0;" x1="469" x2="635.5" y1="222.1172" y2="222.1172"/><text fill="#000000" font-family="sans-serif" font-size="14" lengthAdjust="spacing" textLength="80" x="635.5" y="226.4639">&#171;methods&#187;</text><line style="stroke:#181818;stroke-width:1.0;stroke-dasharray:1.0,2.0;" x1="715.5" x2="882" y1="222.1172" y2="222.1172"/></g><!--class Endian--><g id="elem_Endian"><rect codeLine="17" fill="#F1F1F1" height="129.4844" id="Endian" rx="2.5" ry="2.5" style="stroke:#181818;stroke-width:0.5;" width="267" x="7" y="415.64"/><ellipse cx="107.25" cy="431.64" fill="#EB937F" rx="11" ry="11" style="stroke:#181818;stroke-width:1.0;"/><path d="M111.3594,437.64 L103.6406,437.64 L103.6406,425.2494 L111.3594,425.2494 L111.3594,427.4056 L106.0938,427.4056 L106.0938,430.0775 L110.8594,430.0775 L110.8594,432.2338 L106.0938,432.2338 L106.0938,435.4838 L111.3594,435.4838 L111.3594,437.64 Z " fill="#000000"/><ellipse cx="132.75" cy="431.14" fill="#84BE84" rx="3" ry="3" style="stroke:#038048;stroke-width:1.0;"/><text fill="#000000" font-family="sans-serif" font-size="14" lengthAdjust="spacing" textLength="47" x="138.75" y="436.4867">Endian</text><line style="stroke:#181818;stroke-width:0.5;" x1="8" x2="273" y1="447.64" y2="447.64"/><ellipse cx="18" cy="481.5853" fill="#84BE84" rx="3" ry="3" style="stroke:#038048;stroke-width:1.0;"/><text fill="#000000" font-family="sans-serif" font-size="14" lengthAdjust="spacing" textLength="241" x="27" y="484.932">try_from(v: u8): Result&lt;Endian, ()&gt;</text><line style="stroke:#181818;stroke-width:1.0;stroke-dasharray:1.0,2.0;" x1="8" x2="100.5" y1="463.7884" y2="463.7884"/><text fill="#000000" font-family="sans-serif" font-size="14" lengthAdjust="spacing" textLength="80" x="100.5" y="468.1351">&#171;methods&#187;</text><line style="stroke:#181818;stroke-width:1.0;stroke-dasharray:1.0,2.0;" x1="180.5" x2="273" y1="463.7884" y2="463.7884"/><ellipse cx="18" cy="518.1791" fill="none" rx="3" ry="3" style="stroke:#038048;stroke-width:1.0;"/><text fill="#000000" font-family="sans-serif" font-size="14" lengthAdjust="spacing" textLength="61" x="27" y="521.5257">Little = 1</text><ellipse cx="18" cy="534.4759" fill="none" rx="3" ry="3" style="stroke:#038048;stroke-width:1.0;"/><text fill="#000000" font-family="sans-serif" font-size="14" lengthAdjust="spacing" textLength="51" x="27" y="537.8226">Big = 2</text><line style="stroke:#181818;stroke-width:1.0;stroke-dasharray:1.0,2.0;" x1="8" x2="105" y1="500.3822" y2="500.3822"/><text fill="#000000" font-family="sans-serif" font-size="14" lengthAdjust="spacing" textLength="71" x="105" y="504.7289">&#171;variants&#187;</text><line style="stroke:#181818;stroke-width:1.0;stroke-dasharray:1.0,2.0;" x1="176" x2="273" y1="500.3822" y2="500.3822"/></g><!--class Class--><g id="elem_Class"><rect codeLine="25" fill="#F1F1F1" height="145.7813" id="Class" rx="2.5" ry="2.5" style="stroke:#181818;stroke-width:0.5;" width="257" x="309" y="407.5"/><ellipse cx="409.25" cy="423.5" fill="#EB937F" rx="11" ry="11" style="stroke:#181818;stroke-width:1.0;"/><path d="M413.3594,429.5 L405.6406,429.5 L405.6406,417.1094 L413.3594,417.1094 L413.3594,419.2656 L408.0938,419.2656 L408.0938,421.9375 L412.8594,421.9375 L412.8594,424.0938 L408.0938,424.0938 L408.0938,427.3438 L413.3594,427.3438 L413.3594,429.5 Z " fill="#000000"/><ellipse cx="434.75" cy="423" fill="#84BE84" rx="3" ry="3" style="stroke:#038048;stroke-width:1.0;"/><text fill="#000000" font-family="sans-serif" font-size="14" lengthAdjust="spacing" textLength="37" x="440.75" y="428.3467">Class</text><line style="stroke:#181818;stroke-width:0.5;" x1="310" x2="565" y1="439.5" y2="439.5"/><ellipse cx="320" cy="473.4453" fill="#84BE84" rx="3" ry="3" style="stroke:#038048;stroke-width:1.0;"/><text fill="#000000" font-family="sans-serif" font-size="14" lengthAdjust="spacing" textLength="231" x="329" y="476.792">try_from(v: u8): Result&lt;Class, ()&gt;</text><line style="stroke:#181818;stroke-width:1.0;stroke-dasharray:1.0,2.0;" x1="310" x2="397.5" y1="455.6484" y2="455.6484"/><text fill="#000000" font-family="sans-serif" font-size="14" lengthAdjust="spacing" textLength="80" x="397.5" y="459.9951">&#171;methods&#187;</text><line style="stroke:#181818;stroke-width:1.0;stroke-dasharray:1.0,2.0;" x1="477.5" x2="565" y1="455.6484" y2="455.6484"/><ellipse cx="320" cy="510.0391" fill="none" rx="3" ry="3" style="stroke:#038048;stroke-width:1.0;"/><text fill="#000000" font-family="sans-serif" font-size="14" lengthAdjust="spacing" textLength="63" x="329" y="513.3857">Elf32 = 1</text><ellipse cx="320" cy="526.3359" fill="none" rx="3" ry="3" style="stroke:#038048;stroke-width:1.0;"/><text fill="#000000" font-family="sans-serif" font-size="14" lengthAdjust="spacing" textLength="63" x="329" y="529.6826">Elf64 = 2</text><ellipse cx="320" cy="542.6328" fill="#84BE84" rx="3" ry="3" style="stroke:#038048;stroke-width:1.0;"/><text fill="#000000" font-family="sans-serif" font-size="14" lengthAdjust="spacing" textLength="138" x="329" y="545.9795">Unknown(value: u8)</text><line style="stroke:#181818;stroke-width:1.0;stroke-dasharray:1.0,2.0;" x1="310" x2="402" y1="492.2422" y2="492.2422"/><text fill="#000000" font-family="sans-serif" font-size="14" lengthAdjust="spacing" textLength="71" x="402" y="496.5889">&#171;variants&#187;</text><line style="stroke:#181818;stroke-width:1.0;stroke-dasharray:1.0,2.0;" x1="473" x2="565" y1="492.2422" y2="492.2422"/></g><!--class OsAbi--><g id="elem_OsAbi"><rect codeLine="34" fill="#F1F1F1" height="270.4531" id="OsAbi" rx="2.5" ry="2.5" style="stroke:#181818;stroke-width:0.5;" width="150" x="600.5" y="345.16"/><ellipse cx="623.15" cy="366.4569" fill="#ADD1B2" rx="11" ry="11" style="stroke:#181818;stroke-width:1.0;"/><path d="M626.1188,372.0975 Q625.5406,372.3944 624.9,372.535 Q624.2594,372.6912 623.5563,372.6912 Q621.0563,372.6912 619.7281,371.0506 Q618.4156,369.3944 618.4156,366.2694 Q618.4156,363.1444 619.7281,361.4881 Q621.0563,359.8319 623.5563,359.8319 Q624.2594,359.8319 624.9,359.9881 Q625.5563,360.1444 626.1188,360.4412 L626.1188,363.16 Q625.4938,362.5819 624.9,362.3162 Q624.3063,362.035 623.6813,362.035 Q622.3375,362.035 621.65,363.1131 Q620.9625,364.1756 620.9625,366.2694 Q620.9625,368.3631 621.65,369.4412 Q622.3375,370.5037 623.6813,370.5037 Q624.3063,370.5037 624.9,370.2381 Q625.4938,369.9569 626.1188,369.3787 L626.1188,372.0975 Z " fill="#000000"/><ellipse cx="643.85" cy="365.9569" fill="#84BE84" rx="3" ry="3" style="stroke:#038048;stroke-width:1.0;"/><text fill="#000000" font-family="sans-serif" font-size="14" lengthAdjust="spacing" textLength="40" x="674.85" y="363.1551">OsAbi</text><text fill="#000000" font-family="sans-serif" font-size="14" lengthAdjust="spacing" textLength="90" x="649.85" y="379.452">(ELFOSABI_*)</text><line style="stroke:#181818;stroke-width:0.5;" x1="601.5" x2="749.5" y1="387.7537" y2="387.7537"/><ellipse cx="611.5" cy="421.6991" fill="#84BE84" rx="3" ry="3" style="stroke:#038048;stroke-width:1.0;"/><text fill="#000000" font-family="sans-serif" font-size="14" lengthAdjust="spacing" textLength="81" x="620.5" y="425.0457">os_abi(): u8</text><ellipse cx="611.5" cy="437.9959" fill="#84BE84" rx="3" ry="3" style="stroke:#038048;stroke-width:1.0;"/><text fill="#000000" font-family="sans-serif" font-size="14" lengthAdjust="spacing" textLength="124" x="620.5" y="441.3426">from(v: u8): OsAbi</text><ellipse cx="611.5" cy="454.2928" fill="#84BE84" rx="3" ry="3" style="stroke:#038048;stroke-width:1.0;"/><text fill="#000000" font-family="sans-serif" font-size="14" lengthAdjust="spacing" textLength="70" x="620.5" y="457.6395">to_string()</text><line style="stroke:#181818;stroke-width:1.0;stroke-dasharray:1.0,2.0;" x1="601.5" x2="635.5" y1="403.9022" y2="403.9022"/><text fill="#000000" font-family="sans-serif" font-size="14" lengthAdjust="spacing" textLength="80" x="635.5" y="408.2489">&#171;methods&#187;</text><line style="stroke:#181818;stroke-width:1.0;stroke-dasharray:1.0,2.0;" x1="715.5" x2="749.5" y1="403.9022" y2="403.9022"/><ellipse cx="611.5" cy="490.8866" fill="none" rx="3" ry="3" style="stroke:#038048;stroke-width:1.0;"/><text fill="#000000" font-family="sans-serif" font-size="14" lengthAdjust="spacing" textLength="69" x="620.5" y="494.2332">NONE = 0</text><ellipse cx="611.5" cy="507.1834" fill="none" rx="3" ry="3" style="stroke:#038048;stroke-width:1.0;"/><text fill="#000000" font-family="sans-serif" font-size="14" lengthAdjust="spacing" textLength="67" x="620.5" y="510.5301">HPUX = 1</text><ellipse cx="611.5" cy="523.4803" fill="none" rx="3" ry="3" style="stroke:#038048;stroke-width:1.0;"/><text fill="#000000" font-family="sans-serif" font-size="14" lengthAdjust="spacing" textLength="87" x="620.5" y="526.827">NETBSD = 2</text><ellipse cx="611.5" cy="539.7772" fill="none" rx="3" ry="3" style="stroke:#038048;stroke-width:1.0;"/><text fill="#000000" font-family="sans-serif" font-size="14" lengthAdjust="spacing" textLength="68" x="620.5" y="543.1239">LINUX = 3</text><ellipse cx="611.5" cy="556.0741" fill="none" rx="3" ry="3" style="stroke:#038048;stroke-width:1.0;"/><text fill="#000000" font-family="sans-serif" font-size="14" lengthAdjust="spacing" textLength="101" x="620.5" y="559.4207">GNUHURD = 4</text><ellipse cx="611.5" cy="572.3709" fill="none" rx="3" ry="3" style="stroke:#038048;stroke-width:1.0;"/><text fill="#000000" font-family="sans-serif" font-size="14" lengthAdjust="spacing" textLength="87" x="620.5" y="575.7176">SOLARIS = 6</text><ellipse cx="611.5" cy="588.6678" fill="none" rx="3" ry="3" style="stroke:#038048;stroke-width:1.0;"/><text fill="#000000" font-family="sans-serif" font-size="14" lengthAdjust="spacing" textLength="50" x="620.5" y="592.0145">AIX = 7</text><ellipse cx="611.5" cy="604.9647" fill="none" rx="3" ry="3" style="stroke:#038048;stroke-width:1.0;"/><text fill="#000000" font-family="sans-serif" font-size="14" lengthAdjust="spacing" textLength="54" x="620.5" y="608.3114">IRIX = 8</text><line style="stroke:#181818;stroke-width:1.0;stroke-dasharray:1.0,2.0;" x1="601.5" x2="632" y1="473.0897" y2="473.0897"/><text fill="#000000" font-family="sans-serif" font-size="14" lengthAdjust="spacing" textLength="87" x="632" y="477.4364">&#171;constants&#187;</text><line style="stroke:#181818;stroke-width:1.0;stroke-dasharray:1.0,2.0;" x1="719" x2="749.5" y1="473.0897" y2="473.0897"/></g><!--class ExecutableType--><g id="elem_ExecutableType"><rect codeLine="50" fill="#F1F1F1" height="307.0469" id="ExecutableType" rx="2.5" ry="2.5" style="stroke:#181818;stroke-width:0.5;" width="229" x="786" y="326.86"/><ellipse cx="835.75" cy="348.1569" fill="#EB937F" rx="11" ry="11" style="stroke:#181818;stroke-width:1.0;"/><path d="M839.8594,354.1569 L832.1406,354.1569 L832.1406,341.7662 L839.8594,341.7662 L839.8594,343.9225 L834.5938,343.9225 L834.5938,346.5944 L839.3594,346.5944 L839.3594,348.7506 L834.5938,348.7506 L834.5938,352.0006 L839.8594,352.0006 L839.8594,354.1569 Z " fill="#000000"/><ellipse cx="861.25" cy="347.6569" fill="#84BE84" rx="3" ry="3" style="stroke:#038048;stroke-width:1.0;"/><text fill="#000000" font-family="sans-serif" font-size="14" lengthAdjust="spacing" textLength="110" x="867.25" y="344.8551">ExecutableType</text><text fill="#000000" font-family="sans-serif" font-size="14" lengthAdjust="spacing" textLength="42" x="901.25" y="361.152">(ET_*)</text><line style="stroke:#181818;stroke-width:0.5;" x1="787" x2="1014" y1="369.4537" y2="369.4537"/><ellipse cx="797" cy="403.3991" fill="#84BE84" rx="3" ry="3" style="stroke:#038048;stroke-width:1.0;"/><text fill="#000000" font-family="sans-serif" font-size="14" lengthAdjust="spacing" textLength="203" x="806" y="406.7457">from(v: u16): ExecutableType</text><ellipse cx="797" cy="419.6959" fill="#84BE84" rx="3" ry="3" style="stroke:#038048;stroke-width:1.0;"/><text fill="#000000" font-family="sans-serif" font-size="14" lengthAdjust="spacing" textLength="70" x="806" y="423.0426">to_string()</text><line style="stroke:#181818;stroke-width:1.0;stroke-dasharray:1.0,2.0;" x1="787" x2="860.5" y1="385.6022" y2="385.6022"/><text fill="#000000" font-family="sans-serif" font-size="14" lengthAdjust="spacing" textLength="80" x="860.5" y="389.9489">&#171;methods&#187;</text><line style="stroke:#181818;stroke-width:1.0;stroke-dasharray:1.0,2.0;" x1="940.5" x2="1014" y1="385.6022" y2="385.6022"/><ellipse cx="797" cy="456.2897" fill="none" rx="3" ry="3" style="stroke:#038048;stroke-width:1.0;"/><text fill="#000000" font-family="sans-serif" font-size="14" lengthAdjust="spacing" textLength="134" x="806" y="459.6364">ET_LOOS = 0xFE00</text><ellipse cx="797" cy="472.5866" fill="none" rx="3" ry="3" style="stroke:#038048;stroke-width:1.0;"/><text fill="#000000" font-family="sans-serif" font-size="14" lengthAdjust="spacing" textLength="127" x="806" y="475.9332">ET_HIOS = 0xFEFF</text><ellipse cx="797" cy="488.8834" fill="none" rx="3" ry="3" style="stroke:#038048;stroke-width:1.0;"/><text fill="#000000" font-family="sans-serif" font-size="14" lengthAdjust="spacing" textLength="153" x="806" y="492.2301">ET_LOPROC = 0xFF00</text><ellipse cx="797" cy="505.1803" fill="none" rx="3" ry="3" style="stroke:#038048;stroke-width:1.0;"/><text fill="#000000" font-family="sans-serif" font-size="14" lengthAdjust="spacing" textLength="146" x="806" y="508.527">ET_HIPROC = 0xFFFF</text><line style="stroke:#181818;stroke-width:1.0;stroke-dasharray:1.0,2.0;" x1="787" x2="857" y1="438.4928" y2="438.4928"/><text fill="#000000" font-family="sans-serif" font-size="14" lengthAdjust="spacing" textLength="87" x="857" y="442.8395">&#171;constants&#187;</text><line style="stroke:#181818;stroke-width:1.0;stroke-dasharray:1.0,2.0;" x1="944" x2="1014" y1="438.4928" y2="438.4928"/><ellipse cx="797" cy="541.7741" fill="none" rx="3" ry="3" style="stroke:#038048;stroke-width:1.0;"/><text fill="#000000" font-family="sans-serif" font-size="14" lengthAdjust="spacing" textLength="151" x="806" y="545.1207">None = ET_NONE = 0</text><ellipse cx="797" cy="558.0709" fill="none" rx="3" ry="3" style="stroke:#038048;stroke-width:1.0;"/><text fill="#000000" font-family="sans-serif" font-size="14" lengthAdjust="spacing" textLength="181" x="806" y="561.4176">Relocatable = ET_REL = 1</text><ellipse cx="797" cy="574.3678" fill="none" rx="3" ry="3" style="stroke:#038048;stroke-width:1.0;"/><text fill="#000000" font-family="sans-serif" font-size="14" lengthAdjust="spacing" textLength="187" x="806" y="577.7145">Executable = ET_EXEC = 2</text><ellipse cx="797" cy="590.6647" fill="none" rx="3" ry="3" style="stroke:#038048;stroke-width:1.0;"/><text fill="#000000" font-family="sans-serif" font-size="14" lengthAdjust="spacing" textLength="153" x="806" y="594.0114">Shared = ET_DYN = 3</text><ellipse cx="797" cy="606.9616" fill="none" rx="3" ry="3" style="stroke:#038048;stroke-width:1.0;"/><text fill="#000000" font-family="sans-serif" font-size="14" lengthAdjust="spacing" textLength="147" x="806" y="610.3082">Core = ET_CORE = 4</text><ellipse cx="797" cy="623.2584" fill="#84BE84" rx="3" ry="3" style="stroke:#038048;stroke-width:1.0;"/><text fill="#000000" font-family="sans-serif" font-size="14" lengthAdjust="spacing" textLength="147" x="806" y="626.6051">Unknown(value: u16)</text><line style="stroke:#181818;stroke-width:1.0;stroke-dasharray:1.0,2.0;" x1="787" x2="865" y1="523.9772" y2="523.9772"/><text fill="#000000" font-family="sans-serif" font-size="14" lengthAdjust="spacing" textLength="71" x="865" y="528.3239">&#171;variants&#187;</text><line style="stroke:#181818;stroke-width:1.0;stroke-dasharray:1.0,2.0;" x1="936" x2="1014" y1="523.9772" y2="523.9772"/></g><!--class Machine--><g id="elem_Machine"><rect codeLine="68" fill="#F1F1F1" height="237.8594" id="Machine" rx="2.5" ry="2.5" style="stroke:#181818;stroke-width:0.5;" width="256" x="1050.5" y="361.46"/><ellipse cx="1139.75" cy="382.7569" fill="#ADD1B2" rx="11" ry="11" style="stroke:#181818;stroke-width:1.0;"/><path d="M1142.7188,388.3975 Q1142.1406,388.6944 1141.5,388.835 Q1140.8594,388.9913 1140.1563,388.9913 Q1137.6563,388.9913 1136.3281,387.3506 Q1135.0156,385.6944 1135.0156,382.5694 Q1135.0156,379.4444 1136.3281,377.7881 Q1137.6563,376.1319 1140.1563,376.1319 Q1140.8594,376.1319 1141.5,376.2881 Q1142.1563,376.4444 1142.7188,376.7413 L1142.7188,379.46 Q1142.0938,378.8819 1141.5,378.6163 Q1140.9063,378.335 1140.2813,378.335 Q1138.9375,378.335 1138.25,379.4131 Q1137.5625,380.4756 1137.5625,382.5694 Q1137.5625,384.6631 1138.25,385.7413 Q1138.9375,386.8038 1140.2813,386.8038 Q1140.9063,386.8038 1141.5,386.5381 Q1142.0938,386.2569 1142.7188,385.6788 L1142.7188,388.3975 Z " fill="#000000"/><ellipse cx="1165.25" cy="382.2569" fill="#84BE84" rx="3" ry="3" style="stroke:#038048;stroke-width:1.0;"/><text fill="#000000" font-family="sans-serif" font-size="14" lengthAdjust="spacing" textLength="58" x="1171.25" y="379.4551">Machine</text><text fill="#000000" font-family="sans-serif" font-size="14" lengthAdjust="spacing" textLength="45" x="1177.75" y="395.752">(EM_*)</text><line style="stroke:#181818;stroke-width:0.5;" x1="1051.5" x2="1305.5" y1="404.0538" y2="404.0538"/><ellipse cx="1061.5" cy="437.9991" fill="#84BE84" rx="3" ry="3" style="stroke:#038048;stroke-width:1.0;"/><text fill="#000000" font-family="sans-serif" font-size="14" lengthAdjust="spacing" textLength="105" x="1070.5" y="441.3457">machine(): u16</text><ellipse cx="1061.5" cy="454.2959" fill="#84BE84" rx="3" ry="3" style="stroke:#038048;stroke-width:1.0;"/><text fill="#000000" font-family="sans-serif" font-size="14" lengthAdjust="spacing" textLength="151" x="1070.5" y="457.6426">from(v: u16): Machine</text><ellipse cx="1061.5" cy="470.5928" fill="#84BE84" rx="3" ry="3" style="stroke:#038048;stroke-width:1.0;"/><text fill="#000000" font-family="sans-serif" font-size="14" lengthAdjust="spacing" textLength="70" x="1070.5" y="473.9395">to_string()</text><line style="stroke:#181818;stroke-width:1.0;stroke-dasharray:1.0,2.0;" x1="1051.5" x2="1138.5" y1="420.2022" y2="420.2022"/><text fill="#000000" font-family="sans-serif" font-size="14" lengthAdjust="spacing" textLength="80" x="1138.5" y="424.5489">&#171;methods&#187;</text><line style="stroke:#181818;stroke-width:1.0;stroke-dasharray:1.0,2.0;" x1="1218.5" x2="1305.5" y1="420.2022" y2="420.2022"/><text fill="#000000" font-family="sans-serif" font-size="14" lengthAdjust="spacing" textLength="188" x="1056.5" y="510.5332">None = EM_NONE = x0000</text><text fill="#000000" font-family="sans-serif" font-size="14" lengthAdjust="spacing" textLength="177" x="1056.5" y="526.8301">i386 = EM_386 = 0x0003</text><text fill="#000000" font-family="sans-serif" font-size="14" lengthAdjust="spacing" textLength="178" x="1056.5" y="543.127">Arm = EM_ARM = 0x0028</text><text fill="#000000" font-family="sans-serif" font-size="14" lengthAdjust="spacing" textLength="222" x="1056.5" y="559.4239">x86_64 = EM_X86_64 = 0x003E</text><text fill="#000000" font-family="sans-serif" font-size="14" lengthAdjust="spacing" textLength="244" x="1056.5" y="575.7207">Aarch64 = EM_AARCH64 = 0x00B7</text><text fill="#000000" font-family="sans-serif" font-size="14" lengthAdjust="spacing" textLength="138" x="1056.5" y="592.0176">Unknown(value: 16)</text><line style="stroke:#181818;stroke-width:1.0;stroke-dasharray:1.0,2.0;" x1="1051.5" x2="1135" y1="489.3897" y2="489.3897"/><text fill="#000000" font-family="sans-serif" font-size="14" lengthAdjust="spacing" textLength="87" x="1135" y="493.7364">&#171;constants&#187;</text><line style="stroke:#181818;stroke-width:1.0;stroke-dasharray:1.0,2.0;" x1="1222" x2="1305.5" y1="489.3897" y2="489.3897"/></g><!--reverse link ReadElf to Endian--><g id="link_ReadElf_Endian"><path codeLine="82" d="M457.1843,229.6796 C397.8443,258.4796 345.47,288.02 291.5,326.86 C256.27,352.22 221.83,386.09 194.76,415.46 " fill="none" id="ReadElf-backto-Endian" style="stroke:#181818;stroke-width:1.0;"/><polygon fill="#181818" points="467.98,224.44,460.8356,223.4612,457.1843,229.6796,464.3287,230.6583,467.98,224.44" style="stroke:#181818;stroke-width:1.0;"/></g><!--reverse link ReadElf to Class--><g id="link_ReadElf_Class"><path codeLine="83" d="M578.658,276.8644 C545.618,324.2644 516.26,366.39 487.92,407.05 " fill="none" id="ReadElf-backto-Class" style="stroke:#181818;stroke-width:1.0;"/><polygon fill="#181818" points="585.52,267.02,578.8075,269.6549,578.658,276.8644,585.3705,274.2296,585.52,267.02" style="stroke:#181818;stroke-width:1.0;"/></g><!--reverse link ReadElf to OsAbi--><g id="link_ReadElf_OsAbi"><path codeLine="84" d="M675.5,279.02 C675.5,304.42 675.5,319.13 675.5,344.71 " fill="none" id="ReadElf-backto-OsAbi" style="stroke:#181818;stroke-width:1.0;"/><polygon fill="#181818" points="675.5,267.02,671.5,273.02,675.5,279.02,679.5,273.02,675.5,267.02" style="stroke:#181818;stroke-width:1.0;"/></g><!--reverse link ReadElf to ExecutableType--><g id="link_ReadElf_ExecutableType"><path codeLine="85" d="M767.164,277.0393 C779.984,296.4893 786.7,306.69 799.81,326.59 " fill="none" id="ReadElf-backto-ExecutableType" style="stroke:#181818;stroke-width:1.0;"/><polygon fill="#181818" points="760.56,267.02,760.5222,274.231,767.164,277.0393,767.2018,269.8283,760.56,267.02" style="stroke:#181818;stroke-width:1.0;"/></g><!--reverse link ReadElf to Machine--><g id="link_ReadElf_Machine"><path codeLine="86" d="M894.0088,239.2548 C944.7288,266.4148 986.9,292.41 1032.5,326.86 C1046.25,337.25 1059.87,348.96 1072.94,361.16 " fill="none" id="ReadElf-backto-Machine" style="stroke:#181818;stroke-width:1.0;"/><polygon fill="#181818" points="883.43,233.59,886.8311,239.9487,894.0088,239.2548,890.6076,232.8962,883.43,233.59" style="stroke:#181818;stroke-width:1.0;"/></g><!--SRC=[dLLHRzem47xlhx3wC8LshLAeCXGnf433G8841P2OjYaou42quA3OOLJJ_liSdy49OwDQNkBxxiwv- -wpSxzCC6Ce87Zb9X7wUOF4y_Y8Mgqe9icAjTl2ak2zZBHHjtW1ii8SsyYbgnXJGFOaOt5ARPGtwe2a32zY6_dCMSI023lKSKq0oO4iG_ww8s8_iSmvNYHaAcnmR_5o4rFX7C529L6UlOezh6UmemIlcVwsR6DB-2Qjz97k23KMUHIHp4RllkJDRpLHtuwBUbgAXxQE3ACu8QsnZHmMaAWrndpJRXixyRBH-4BYhviRKLU-LRIK6Vsp555-66NfrjWNJ8ZT0iBoXBSWzpqoQcsTliUP07avVnXpdX3q4Js1tOdNmgZh8kIm_gy6cNgz1D5qewuh4ARrB6kGven-f-aFQknnaXEvlwmDH2SrWJ13jtBrbHhkiETFdCuWlAlT_hlgb8L2HqPDAwZIGqbkF0qPpsAwDcfwmsLA6J_hnFCzLrHkWjKVp-QwBS-TTYOlkg_Xm9Fk1fYVl5b_5XH-fSI9FtI2mKG05W3Ee0Z_0COWa5Qp99QAvYKdLQWWPtgTbXC9JrRjyabwCntYSqFVBrem3ptND4zeVt12UxrIx3Zmku3tAj4bNCN_JKjUIWinYwpgB0AIf4ii6m5tu0vBaZjr2KvtxdRrf2ORd94LU5u-UtfctJHJ2Lq_SFNepYKhc2nfLjq_Sa9gNOncT7qqwWgJadsoBeshShUzTKv7paP7pWwcgUYF6qqBNB0m2nTqxsHRy3Z1I7dgS8uEJIkK9rWuvyTruM-ua8cpvUOOu3X1jt-Aw82ypmXK_1t_C7SFguVZBwE2mN-b0i4fhcPM9LtnAVv-0m00]--></g></svg>