<svg xmlns="http://www.w3.org/2000/svg" xmlns:xlink="http://www.w3.org/1999/xlink" contentStyleType="text/css" height="657px" preserveAspectRatio="none" style="width:1313px;height:657px;background:#FFFFFF;" version="1.1" viewBox="0 0 1313 657" width="1313px" zoomAndPan="magnify"><defs/><g><!--class ReadElf--><g id="elem_ReadElf"><rect codeLine="2" fill="#F1F1F1" height="276.1563" id="ReadElf" rx="2.5" ry="2.5" style="stroke:#181818;stroke-width:0.5;" width="389" x="481" y="7"/><ellipse cx="639.75" cy="23" fill="#F1F1F1" rx="11" ry="11" style="stroke:#181818;stroke-width:1.0;"/><path d="M639.2344,23.5625 Q637.375,22.8594 636.7188,22.0938 Q636.0781,21.3125 636.0781,20 Q636.0781,18.3125 637.1563,17.3438 Q638.2344,16.375 640.1094,16.375 Q640.9688,16.375 641.8125,16.5781 Q642.6719,16.7656 643.5156,17.1563 L643.5156,19.5469 Q642.7344,18.9844 641.9063,18.7031 Q641.0938,18.4063 640.2969,18.4063 Q639.4219,18.4063 638.9375,18.7656 Q638.4688,19.125 638.4688,19.7813 Q638.4688,20.2969 638.8125,20.6406 Q639.1563,20.9688 640.25,21.375 L641.3125,21.7813 Q642.7969,22.3281 643.5,23.2344 Q644.2188,24.1406 644.2188,25.5156 Q644.2188,27.3906 643.1094,28.3125 Q642,29.2344 639.75,29.2344 Q638.8281,29.2344 637.9063,29.0156 Q636.9844,28.7969 636.125,28.375 L636.125,25.8438 Q637.0938,26.5313 638.0156,26.875 Q638.9375,27.2188 639.8281,27.2188 Q640.7344,27.2188 641.2344,26.8125 Q641.7344,26.3906 641.7344,25.6563 Q641.7344,25.0938 641.3906,24.6875 Q641.0625,24.2656 640.4375,24.0156 L639.2344,23.5625 Z " fill="#000000"/><ellipse cx="665.25" cy="22.5" fill="#84BE84" rx="3" ry="3" style="stroke:#038048;stroke-width:1.0;"/><text fill="#000000" font-family="sans-serif" font-size="14" lengthAdjust="spacing" textLength="52" x="671.25" y="27.8467">ReadElf</text><line style="stroke:#181818;stroke-width:0.5;" x1="482" x2="869" y1="39" y2="39"/><ellipse cx="492" cy="72.9453" fill="none" rx="3" ry="3" style="stroke:#038048;stroke-width:1.0;"/><text fill="#000000" font-family="sans-serif" font-size="14" lengthAdjust="spacing" textLength="81" x="501" y="76.292">class: Class</text><ellipse cx="492" cy="89.2422" fill="none" rx="3" ry="3" style="stroke:#038048;stroke-width:1.0;"/><text fill="#000000" font-family="sans-serif" font-size="14" lengthAdjust="spacing" textLength="86" x="501" y="92.5889">data: Endian</text><ellipse cx="492" cy="105.5391" fill="none" rx="3" ry="3" style="stroke:#038048;stroke-width:1.0;"/><text fill="#000000" font-family="sans-serif" font-size="14" lengthAdjust="spacing" textLength="86" x="501" y="108.8857">version: u32</text><ellipse cx="492" cy="121.8359" fill="none" rx="3" ry="3" style="stroke:#038048;stroke-width:1.0;"/><text fill="#000000" font-family="sans-serif" font-size="14" lengthAdjust="spacing" textLength="86" x="501" y="125.1826">osabi: OsAbi</text><ellipse cx="492" cy="138.1328" fill="none" rx="3" ry="3" style="stroke:#038048;stroke-width:1.0;"/><text fill="#000000" font-family="sans-serif" font-size="14" lengthAdjust="spacing" textLength="104" x="501" y="141.4795">abi_version: u8</text><ellipse cx="492" cy="154.4297" fill="none" rx="3" ry="3" style="stroke:#038048;stroke-width:1.0;"/><text fill="#000000" font-family="sans-serif" font-size="14" lengthAdjust="spacing" textLength="189" x="501" y="157.7764">exec_type: ExecutableType</text><ellipse cx="492" cy="170.7266" fill="none" rx="3" ry="3" style="stroke:#038048;stroke-width:1.0;"/><text fill="#000000" font-family="sans-serif" font-size="14" lengthAdjust="spacing" textLength="126" x="501" y="174.0732">machine: Machine</text><ellipse cx="492" cy="187.0234" fill="none" rx="3" ry="3" style="stroke:#038048;stroke-width:1.0;"/><text fill="#000000" font-family="sans-serif" font-size="14" lengthAdjust="spacing" textLength="71" x="501" y="190.3701">entry: u64</text><ellipse cx="492" cy="203.3203" fill="none" rx="3" ry="3" style="stroke:#038048;stroke-width:1.0;"/><text fill="#000000" font-family="sans-serif" font-size="14" lengthAdjust="spacing" textLength="68" x="501" y="206.667">flags: u32</text><line style="stroke:#181818;stroke-width:1.0;stroke-dasharray:1.0,2.0;" x1="482" x2="648.5" y1="55.1484" y2="55.1484"/><text fill="#000000" font-family="sans-serif" font-size="14" lengthAdjust="spacing" textLength="54" x="648.5" y="59.4951">&#171;fields&#187;</text><line style="stroke:#181818;stroke-width:1.0;stroke-dasharray:1.0,2.0;" x1="702.5" x2="869" y1="55.1484" y2="55.1484"/><ellipse cx="492" cy="239.9141" fill="#84BE84" rx="3" ry="3" style="stroke:#038048;stroke-width:1.0;"/><text fill="#000000" font-family="sans-serif" font-size="14" lengthAdjust="spacing" textLength="299" x="501" y="243.2607">from_slice(buffer: &amp;[u8]): Option&lt;ReadElf&gt;</text><ellipse cx="492" cy="256.2109" fill="#84BE84" rx="3" ry="3" style="stroke:#038048;stroke-width:1.0;"/><text fill="#000000" font-family="sans-serif" font-size="14" lengthAdjust="spacing" textLength="320" x="501" y="259.5576">from_vec(buffer: Vec&lt;u8&gt;): Option&lt;ReadElf&gt;</text><ellipse cx="492" cy="272.5078" fill="#84BE84" rx="3" ry="3" style="stroke:#038048;stroke-width:1.0;"/><text fill="#000000" font-family="sans-serif" font-size="14" lengthAdjust="spacing" textLength="363" x="501" y="275.8545">open&lt;P: AsRef&lt;Path&gt;&gt;(path: P): Option&lt;ReadElf&gt;</text><line style="stroke:#181818;stroke-width:1.0;stroke-dasharray:1.0,2.0;" x1="482" x2="635.5" y1="222.1172" y2="222.1172"/><text fill="#000000" font-family="sans-serif" font-size="14" lengthAdjust="spacing" textLength="80" x="635.5" y="226.4639">&#171;methods&#187;</text><line style="stroke:#181818;stroke-width:1.0;stroke-dasharray:1.0,2.0;" x1="715.5" x2="869" y1="222.1172" y2="222.1172"/></g><!--class Endian--><g id="elem_Endian"><rect codeLine="19" fill="#F1F1F1" height="145.7813" id="Endian" rx="2.5" ry="2.5" style="stroke:#181818;stroke-width:0.5;" width="267" x="7" y="423.79"/><ellipse cx="107.25" cy="439.79" fill="#EB937F" rx="11" ry="11" style="stroke:#181818;stroke-width:1.0;"/><path d="M111.3594,445.79 L103.6406,445.79 L103.6406,433.3994 L111.3594,433.3994 L111.3594,435.5556 L106.0938,435.5556 L106.0938,438.2275 L110.8594,438.2275 L110.8594,440.3838 L106.0938,440.3838 L106.0938,443.6338 L111.3594,443.6338 L111.3594,445.79 Z " fill="#000000"/><ellipse cx="132.75" cy="439.29" fill="#84BE84" rx="3" ry="3" style="stroke:#038048;stroke-width:1.0;"/><text fill="#000000" font-family="sans-serif" font-size="14" lengthAdjust="spacing" textLength="47" x="138.75" y="444.6367">Endian</text><line style="stroke:#181818;stroke-width:0.5;" x1="8" x2="273" y1="455.79" y2="455.79"/><ellipse cx="18" cy="489.7353" fill="#84BE84" rx="3" ry="3" style="stroke:#038048;stroke-width:1.0;"/><text fill="#000000" font-family="sans-serif" font-size="14" lengthAdjust="spacing" textLength="241" x="27" y="493.082">try_from(v: u8): Result&lt;Endian, ()&gt;</text><ellipse cx="18" cy="506.0322" fill="#84BE84" rx="3" ry="3" style="stroke:#038048;stroke-width:1.0;"/><text fill="#000000" font-family="sans-serif" font-size="14" lengthAdjust="spacing" textLength="70" x="27" y="509.3789">to_string()</text><line style="stroke:#181818;stroke-width:1.0;stroke-dasharray:1.0,2.0;" x1="8" x2="100.5" y1="471.9384" y2="471.9384"/><text fill="#000000" font-family="sans-serif" font-size="14" lengthAdjust="spacing" textLength="80" x="100.5" y="476.2851">&#171;methods&#187;</text><line style="stroke:#181818;stroke-width:1.0;stroke-dasharray:1.0,2.0;" x1="180.5" x2="273" y1="471.9384" y2="471.9384"/><ellipse cx="18" cy="542.6259" fill="none" rx="3" ry="3" style="stroke:#038048;stroke-width:1.0;"/><text fill="#000000" font-family="sans-serif" font-size="14" lengthAdjust="spacing" textLength="61" x="27" y="545.9726">Little = 1</text><ellipse cx="18" cy="558.9228" fill="none" rx="3" ry="3" style="stroke:#038048;stroke-width:1.0;"/><text fill="#000000" font-family="sans-serif" font-size="14" lengthAdjust="spacing" textLength="51" x="27" y="562.2695">Big = 2</text><line style="stroke:#181818;stroke-width:1.0;stroke-dasharray:1.0,2.0;" x1="8" x2="105" y1="524.8291" y2="524.8291"/><text fill="#000000" font-family="sans-serif" font-size="14" lengthAdjust="spacing" textLength="71" x="105" y="529.1757">&#171;variants&#187;</text><line style="stroke:#181818;stroke-width:1.0;stroke-dasharray:1.0,2.0;" x1="176" x2="273" y1="524.8291" y2="524.8291"/></g><!--class Class--><g id="elem_Class"><rect codeLine="28" fill="#F1F1F1" height="162.0781" id="Class" rx="2.5" ry="2.5" style="stroke:#181818;stroke-width:0.5;" width="257" x="309" y="415.64"/><ellipse cx="409.25" cy="431.64" fill="#EB937F" rx="11" ry="11" style="stroke:#181818;stroke-width:1.0;"/><path d="M413.3594,437.64 L405.6406,437.64 L405.6406,425.2494 L413.3594,425.2494 L413.3594,427.4056 L408.0938,427.4056 L408.0938,430.0775 L412.8594,430.0775 L412.8594,432.2338 L408.0938,432.2338 L408.0938,435.4838 L413.3594,435.4838 L413.3594,437.64 Z " fill="#000000"/><ellipse cx="434.75" cy="431.14" fill="#84BE84" rx="3" ry="3" style="stroke:#038048;stroke-width:1.0;"/><text fill="#000000" font-family="sans-serif" font-size="14" lengthAdjust="spacing" textLength="37" x="440.75" y="436.4867">Class</text><line style="stroke:#181818;stroke-width:0.5;" x1="310" x2="565" y1="447.64" y2="447.64"/><ellipse cx="320" cy="481.5853" fill="#84BE84" rx="3" ry="3" style="stroke:#038048;stroke-width:1.0;"/><text fill="#000000" font-family="sans-serif" font-size="14" lengthAdjust="spacing" textLength="231" x="329" y="484.932">try_from(v: u8): Result&lt;Class, ()&gt;</text><ellipse cx="320" cy="497.8822" fill="#84BE84" rx="3" ry="3" style="stroke:#038048;stroke-width:1.0;"/><text fill="#000000" font-family="sans-serif" font-size="14" lengthAdjust="spacing" textLength="70" x="329" y="501.2289">to_string()</text><line style="stroke:#181818;stroke-width:1.0;stroke-dasharray:1.0,2.0;" x1="310" x2="397.5" y1="463.7884" y2="463.7884"/><text fill="#000000" font-family="sans-serif" font-size="14" lengthAdjust="spacing" textLength="80" x="397.5" y="468.1351">&#171;methods&#187;</text><line style="stroke:#181818;stroke-width:1.0;stroke-dasharray:1.0,2.0;" x1="477.5" x2="565" y1="463.7884" y2="463.7884"/><ellipse cx="320" cy="534.4759" fill="none" rx="3" ry="3" style="stroke:#038048;stroke-width:1.0;"/><text fill="#000000" font-family="sans-serif" font-size="14" lengthAdjust="spacing" textLength="63" x="329" y="537.8226">Elf32 = 1</text><ellipse cx="320" cy="550.7728" fill="none" rx="3" ry="3" style="stroke:#038048;stroke-width:1.0;"/><text fill="#000000" font-family="sans-serif" font-size="14" lengthAdjust="spacing" textLength="63" x="329" y="554.1195">Elf64 = 2</text><ellipse cx="320" cy="567.0697" fill="#84BE84" rx="3" ry="3" style="stroke:#038048;stroke-width:1.0;"/><text fill="#000000" font-family="sans-serif" font-size="14" lengthAdjust="spacing" textLength="138" x="329" y="570.4164">Unknown(value: u8)</text><line style="stroke:#181818;stroke-width:1.0;stroke-dasharray:1.0,2.0;" x1="310" x2="402" y1="516.6791" y2="516.6791"/><text fill="#000000" font-family="sans-serif" font-size="14" lengthAdjust="spacing" textLength="71" x="402" y="521.0257">&#171;variants&#187;</text><line style="stroke:#181818;stroke-width:1.0;stroke-dasharray:1.0,2.0;" x1="473" x2="565" y1="516.6791" y2="516.6791"/></g><!--class OsAbi--><g id="elem_OsAbi"><rect codeLine="38" fill="#F1F1F1" height="270.4531" id="OsAbi" rx="2.5" ry="2.5" style="stroke:#181818;stroke-width:0.5;" width="150" x="600.5" y="361.45"/><ellipse cx="623.15" cy="382.7469" fill="#F1F1F1" rx="11" ry="11" style="stroke:#181818;stroke-width:1.0;"/><path d="M622.6344,383.3094 Q620.775,382.6063 620.1188,381.8406 Q619.4781,381.0594 619.4781,379.7469 Q619.4781,378.0594 620.5563,377.0906 Q621.6344,376.1219 623.5094,376.1219 Q624.3688,376.1219 625.2125,376.325 Q626.0719,376.5125 626.9156,376.9031 L626.9156,379.2938 Q626.1344,378.7313 625.3063,378.45 Q624.4938,378.1531 623.6969,378.1531 Q622.8219,378.1531 622.3375,378.5125 Q621.8688,378.8719 621.8688,379.5281 Q621.8688,380.0438 622.2125,380.3875 Q622.5563,380.7156 623.65,381.1219 L624.7125,381.5281 Q626.1969,382.075 626.9,382.9813 Q627.6188,383.8875 627.6188,385.2625 Q627.6188,387.1375 626.5094,388.0594 Q625.4,388.9813 623.15,388.9813 Q622.2281,388.9813 621.3063,388.7625 Q620.3844,388.5438 619.525,388.1219 L619.525,385.5906 Q620.4938,386.2781 621.4156,386.6219 Q622.3375,386.9656 623.2281,386.9656 Q624.1344,386.9656 624.6344,386.5594 Q625.1344,386.1375 625.1344,385.4031 Q625.1344,384.8406 624.7906,384.4344 Q624.4625,384.0125 623.8375,383.7625 L622.6344,383.3094 Z " fill="#000000"/><ellipse cx="643.85" cy="382.2469" fill="#84BE84" rx="3" ry="3" style="stroke:#038048;stroke-width:1.0;"/><text fill="#000000" font-family="sans-serif" font-size="14" lengthAdjust="spacing" textLength="40" x="674.85" y="379.4451">OsAbi</text><text fill="#000000" font-family="sans-serif" font-size="14" lengthAdjust="spacing" textLength="90" x="649.85" y="395.742">(ELFOSABI_*)</text><line style="stroke:#181818;stroke-width:0.5;" x1="601.5" x2="749.5" y1="404.0438" y2="404.0438"/><ellipse cx="611.5" cy="437.9891" fill="#84BE84" rx="3" ry="3" style="stroke:#038048;stroke-width:1.0;"/><text fill="#000000" font-family="sans-serif" font-size="14" lengthAdjust="spacing" textLength="81" x="620.5" y="441.3357">os_abi(): u8</text><ellipse cx="611.5" cy="454.2859" fill="#84BE84" rx="3" ry="3" style="stroke:#038048;stroke-width:1.0;"/><text fill="#000000" font-family="sans-serif" font-size="14" lengthAdjust="spacing" textLength="124" x="620.5" y="457.6326">from(v: u8): OsAbi</text><ellipse cx="611.5" cy="470.5828" fill="#84BE84" rx="3" ry="3" style="stroke:#038048;stroke-width:1.0;"/><text fill="#000000" font-family="sans-serif" font-size="14" lengthAdjust="spacing" textLength="70" x="620.5" y="473.9295">to_string()</text><line style="stroke:#181818;stroke-width:1.0;stroke-dasharray:1.0,2.0;" x1="601.5" x2="635.5" y1="420.1922" y2="420.1922"/><text fill="#000000" font-family="sans-serif" font-size="14" lengthAdjust="spacing" textLength="80" x="635.5" y="424.5389">&#171;methods&#187;</text><line style="stroke:#181818;stroke-width:1.0;stroke-dasharray:1.0,2.0;" x1="715.5" x2="749.5" y1="420.1922" y2="420.1922"/><ellipse cx="611.5" cy="507.1766" fill="none" rx="3" ry="3" style="stroke:#038048;stroke-width:1.0;"/><text fill="#000000" font-family="sans-serif" font-size="14" lengthAdjust="spacing" textLength="69" x="620.5" y="510.5232">NONE = 0</text><ellipse cx="611.5" cy="523.4734" fill="none" rx="3" ry="3" style="stroke:#038048;stroke-width:1.0;"/><text fill="#000000" font-family="sans-serif" font-size="14" lengthAdjust="spacing" textLength="67" x="620.5" y="526.8201">HPUX = 1</text><ellipse cx="611.5" cy="539.7703" fill="none" rx="3" ry="3" style="stroke:#038048;stroke-width:1.0;"/><text fill="#000000" font-family="sans-serif" font-size="14" lengthAdjust="spacing" textLength="87" x="620.5" y="543.117">NETBSD = 2</text><ellipse cx="611.5" cy="556.0672" fill="none" rx="3" ry="3" style="stroke:#038048;stroke-width:1.0;"/><text fill="#000000" font-family="sans-serif" font-size="14" lengthAdjust="spacing" textLength="68" x="620.5" y="559.4139">LINUX = 3</text><ellipse cx="611.5" cy="572.3641" fill="none" rx="3" ry="3" style="stroke:#038048;stroke-width:1.0;"/><text fill="#000000" font-family="sans-serif" font-size="14" lengthAdjust="spacing" textLength="101" x="620.5" y="575.7107">GNUHURD = 4</text><ellipse cx="611.5" cy="588.6609" fill="none" rx="3" ry="3" style="stroke:#038048;stroke-width:1.0;"/><text fill="#000000" font-family="sans-serif" font-size="14" lengthAdjust="spacing" textLength="87" x="620.5" y="592.0076">SOLARIS = 6</text><ellipse cx="611.5" cy="604.9578" fill="none" rx="3" ry="3" style="stroke:#038048;stroke-width:1.0;"/><text fill="#000000" font-family="sans-serif" font-size="14" lengthAdjust="spacing" textLength="50" x="620.5" y="608.3045">AIX = 7</text><ellipse cx="611.5" cy="621.2547" fill="none" rx="3" ry="3" style="stroke:#038048;stroke-width:1.0;"/><text fill="#000000" font-family="sans-serif" font-size="14" lengthAdjust="spacing" textLength="54" x="620.5" y="624.6014">IRIX = 8</text><line style="stroke:#181818;stroke-width:1.0;stroke-dasharray:1.0,2.0;" x1="601.5" x2="632" y1="489.3797" y2="489.3797"/><text fill="#000000" font-family="sans-serif" font-size="14" lengthAdjust="spacing" textLength="87" x="632" y="493.7264">&#171;constants&#187;</text><line style="stroke:#181818;stroke-width:1.0;stroke-dasharray:1.0,2.0;" x1="719" x2="749.5" y1="489.3797" y2="489.3797"/></g><!--class ExecutableType--><g id="elem_ExecutableType"><rect codeLine="54" fill="#F1F1F1" height="307.0469" id="ExecutableType" rx="2.5" ry="2.5" style="stroke:#181818;stroke-width:0.5;" width="229" x="786" y="343.15"/><ellipse cx="835.75" cy="364.4469" fill="#EB937F" rx="11" ry="11" style="stroke:#181818;stroke-width:1.0;"/><path d="M839.8594,370.4469 L832.1406,370.4469 L832.1406,358.0563 L839.8594,358.0563 L839.8594,360.2125 L834.5938,360.2125 L834.5938,362.8844 L839.3594,362.8844 L839.3594,365.0406 L834.5938,365.0406 L834.5938,368.2906 L839.8594,368.2906 L839.8594,370.4469 Z " fill="#000000"/><ellipse cx="861.25" cy="363.9469" fill="#84BE84" rx="3" ry="3" style="stroke:#038048;stroke-width:1.0;"/><text fill="#000000" font-family="sans-serif" font-size="14" lengthAdjust="spacing" textLength="110" x="867.25" y="361.1451">ExecutableType</text><text fill="#000000" font-family="sans-serif" font-size="14" lengthAdjust="spacing" textLength="42" x="901.25" y="377.442">(ET_*)</text><line style="stroke:#181818;stroke-width:0.5;" x1="787" x2="1014" y1="385.7438" y2="385.7438"/><ellipse cx="797" cy="419.6891" fill="#84BE84" rx="3" ry="3" style="stroke:#038048;stroke-width:1.0;"/><text fill="#000000" font-family="sans-serif" font-size="14" lengthAdjust="spacing" textLength="203" x="806" y="423.0357">from(v: u16): ExecutableType</text><ellipse cx="797" cy="435.9859" fill="#84BE84" rx="3" ry="3" style="stroke:#038048;stroke-width:1.0;"/><text fill="#000000" font-family="sans-serif" font-size="14" lengthAdjust="spacing" textLength="70" x="806" y="439.3326">to_string()</text><line style="stroke:#181818;stroke-width:1.0;stroke-dasharray:1.0,2.0;" x1="787" x2="860.5" y1="401.8922" y2="401.8922"/><text fill="#000000" font-family="sans-serif" font-size="14" lengthAdjust="spacing" textLength="80" x="860.5" y="406.2389">&#171;methods&#187;</text><line style="stroke:#181818;stroke-width:1.0;stroke-dasharray:1.0,2.0;" x1="940.5" x2="1014" y1="401.8922" y2="401.8922"/><ellipse cx="797" cy="472.5797" fill="none" rx="3" ry="3" style="stroke:#038048;stroke-width:1.0;"/><text fill="#000000" font-family="sans-serif" font-size="14" lengthAdjust="spacing" textLength="134" x="806" y="475.9264">ET_LOOS = 0xFE00</text><ellipse cx="797" cy="488.8766" fill="none" rx="3" ry="3" style="stroke:#038048;stroke-width:1.0;"/><text fill="#000000" font-family="sans-serif" font-size="14" lengthAdjust="spacing" textLength="127" x="806" y="492.2232">ET_HIOS = 0xFEFF</text><ellipse cx="797" cy="505.1734" fill="none" rx="3" ry="3" style="stroke:#038048;stroke-width:1.0;"/><text fill="#000000" font-family="sans-serif" font-size="14" lengthAdjust="spacing" textLength="153" x="806" y="508.5201">ET_LOPROC = 0xFF00</text><ellipse cx="797" cy="521.4703" fill="none" rx="3" ry="3" style="stroke:#038048;stroke-width:1.0;"/><text fill="#000000" font-family="sans-serif" font-size="14" lengthAdjust="spacing" textLength="146" x="806" y="524.817">ET_HIPROC = 0xFFFF</text><line style="stroke:#181818;stroke-width:1.0;stroke-dasharray:1.0,2.0;" x1="787" x2="857" y1="454.7828" y2="454.7828"/><text fill="#000000" font-family="sans-serif" font-size="14" lengthAdjust="spacing" textLength="87" x="857" y="459.1295">&#171;constants&#187;</text><line style="stroke:#181818;stroke-width:1.0;stroke-dasharray:1.0,2.0;" x1="944" x2="1014" y1="454.7828" y2="454.7828"/><ellipse cx="797" cy="558.0641" fill="none" rx="3" ry="3" style="stroke:#038048;stroke-width:1.0;"/><text fill="#000000" font-family="sans-serif" font-size="14" lengthAdjust="spacing" textLength="151" x="806" y="561.4107">None = ET_NONE = 0</text><ellipse cx="797" cy="574.3609" fill="none" rx="3" ry="3" style="stroke:#038048;stroke-width:1.0;"/><text fill="#000000" font-family="sans-serif" font-size="14" lengthAdjust="spacing" textLength="181" x="806" y="577.7076">Relocatable = ET_REL = 1</text><ellipse cx="797" cy="590.6578" fill="none" rx="3" ry="3" style="stroke:#038048;stroke-width:1.0;"/><text fill="#000000" font-family="sans-serif" font-size="14" lengthAdjust="spacing" textLength="187" x="806" y="594.0045">Executable = ET_EXEC = 2</text><ellipse cx="797" cy="606.9547" fill="none" rx="3" ry="3" style="stroke:#038048;stroke-width:1.0;"/><text fill="#000000" font-family="sans-serif" font-size="14" lengthAdjust="spacing" textLength="153" x="806" y="610.3014">Shared = ET_DYN = 3</text><ellipse cx="797" cy="623.2516" fill="none" rx="3" ry="3" style="stroke:#038048;stroke-width:1.0;"/><text fill="#000000" font-family="sans-serif" font-size="14" lengthAdjust="spacing" textLength="147" x="806" y="626.5982">Core = ET_CORE = 4</text><ellipse cx="797" cy="639.5484" fill="#84BE84" rx="3" ry="3" style="stroke:#038048;stroke-width:1.0;"/><text fill="#000000" font-family="sans-serif" font-size="14" lengthAdjust="spacing" textLength="147" x="806" y="642.8951">Unknown(value: u16)</text><line style="stroke:#181818;stroke-width:1.0;stroke-dasharray:1.0,2.0;" x1="787" x2="865" y1="540.2672" y2="540.2672"/><text fill="#000000" font-family="sans-serif" font-size="14" lengthAdjust="spacing" textLength="71" x="865" y="544.6139">&#171;variants&#187;</text><line style="stroke:#181818;stroke-width:1.0;stroke-dasharray:1.0,2.0;" x1="936" x2="1014" y1="540.2672" y2="540.2672"/></g><!--class Machine--><g id="elem_Machine"><rect codeLine="72" fill="#F1F1F1" height="237.8594" id="Machine" rx="2.5" ry="2.5" style="stroke:#181818;stroke-width:0.5;" width="256" x="1050.5" y="377.75"/><ellipse cx="1139.75" cy="399.0469" fill="#F1F1F1" rx="11" ry="11" style="stroke:#181818;stroke-width:1.0;"/><path d="M1139.2344,399.6094 Q1137.375,398.9063 1136.7188,398.1406 Q1136.0781,397.3594 1136.0781,396.0469 Q1136.0781,394.3594 1137.1563,393.3906 Q1138.2344,392.4219 1140.1094,392.4219 Q1140.9688,392.4219 1141.8125,392.625 Q1142.6719,392.8125 1143.5156,393.2031 L1143.5156,395.5938 Q1142.7344,395.0313 1141.9063,394.75 Q1141.0938,394.4531 1140.2969,394.4531 Q1139.4219,394.4531 1138.9375,394.8125 Q1138.4688,395.1719 1138.4688,395.8281 Q1138.4688,396.3438 1138.8125,396.6875 Q1139.1563,397.0156 1140.25,397.4219 L1141.3125,397.8281 Q1142.7969,398.375 1143.5,399.2813 Q1144.2188,400.1875 1144.2188,401.5625 Q1144.2188,403.4375 1143.1094,404.3594 Q1142,405.2813 1139.75,405.2813 Q1138.8281,405.2813 1137.9063,405.0625 Q1136.9844,404.8438 1136.125,404.4219 L1136.125,401.8906 Q1137.0938,402.5781 1138.0156,402.9219 Q1138.9375,403.2656 1139.8281,403.2656 Q1140.7344,403.2656 1141.2344,402.8594 Q1141.7344,402.4375 1141.7344,401.7031 Q1141.7344,401.1406 1141.3906,400.7344 Q1141.0625,400.3125 1140.4375,400.0625 L1139.2344,399.6094 Z " fill="#000000"/><ellipse cx="1165.25" cy="398.5469" fill="#84BE84" rx="3" ry="3" style="stroke:#038048;stroke-width:1.0;"/><text fill="#000000" font-family="sans-serif" font-size="14" lengthAdjust="spacing" textLength="58" x="1171.25" y="395.7451">Machine</text><text fill="#000000" font-family="sans-serif" font-size="14" lengthAdjust="spacing" textLength="45" x="1177.75" y="412.042">(EM_*)</text><line style="stroke:#181818;stroke-width:0.5;" x1="1051.5" x2="1305.5" y1="420.3438" y2="420.3438"/><ellipse cx="1061.5" cy="454.2891" fill="#84BE84" rx="3" ry="3" style="stroke:#038048;stroke-width:1.0;"/><text fill="#000000" font-family="sans-serif" font-size="14" lengthAdjust="spacing" textLength="105" x="1070.5" y="457.6357">machine(): u16</text><ellipse cx="1061.5" cy="470.5859" fill="#84BE84" rx="3" ry="3" style="stroke:#038048;stroke-width:1.0;"/><text fill="#000000" font-family="sans-serif" font-size="14" lengthAdjust="spacing" textLength="151" x="1070.5" y="473.9326">from(v: u16): Machine</text><ellipse cx="1061.5" cy="486.8828" fill="#84BE84" rx="3" ry="3" style="stroke:#038048;stroke-width:1.0;"/><text fill="#000000" font-family="sans-serif" font-size="14" lengthAdjust="spacing" textLength="70" x="1070.5" y="490.2295">to_string()</text><line style="stroke:#181818;stroke-width:1.0;stroke-dasharray:1.0,2.0;" x1="1051.5" x2="1138.5" y1="436.4922" y2="436.4922"/><text fill="#000000" font-family="sans-serif" font-size="14" lengthAdjust="spacing" textLength="80" x="1138.5" y="440.8389">&#171;methods&#187;</text><line style="stroke:#181818;stroke-width:1.0;stroke-dasharray:1.0,2.0;" x1="1218.5" x2="1305.5" y1="436.4922" y2="436.4922"/><text fill="#000000" font-family="sans-serif" font-size="14" lengthAdjust="spacing" textLength="188" x="1056.5" y="526.8232">None = EM_NONE = x0000</text><text fill="#000000" font-family="sans-serif" font-size="14" lengthAdjust="spacing" textLength="177" x="1056.5" y="543.1201">i386 = EM_386 = 0x0003</text><text fill="#000000" font-family="sans-serif" font-size="14" lengthAdjust="spacing" textLength="178" x="1056.5" y="559.417">Arm = EM_ARM = 0x0028</text><text fill="#000000" font-family="sans-serif" font-size="14" lengthAdjust="spacing" textLength="222" x="1056.5" y="575.7139">x86_64 = EM_X86_64 = 0x003E</text><text fill="#000000" font-family="sans-serif" font-size="14" lengthAdjust="spacing" textLength="244" x="1056.5" y="592.0107">Aarch64 = EM_AARCH64 = 0x00B7</text><text fill="#000000" font-family="sans-serif" font-size="14" lengthAdjust="spacing" textLength="138" x="1056.5" y="608.3076">Unknown(value: 16)</text><line style="stroke:#181818;stroke-width:1.0;stroke-dasharray:1.0,2.0;" x1="1051.5" x2="1135" y1="505.6797" y2="505.6797"/><text fill="#000000" font-family="sans-serif" font-size="14" lengthAdjust="spacing" textLength="87" x="1135" y="510.0264">&#171;constants&#187;</text><line style="stroke:#181818;stroke-width:1.0;stroke-dasharray:1.0,2.0;" x1="1222" x2="1305.5" y1="505.6797" y2="505.6797"/></g><!--reverse link ReadElf to Endian--><g id="link_ReadElf_Endian"><path codeLine="86" d="M469.7677,236.5681 C406.9377,267.8481 349.38,300.75 291.5,343.15 C259.79,366.39 228.57,396.37 202.82,423.6 " fill="none" id="ReadElf-backto-Endian" style="stroke:#181818;stroke-width:1.0;"/><polygon fill="#181818" points="480.51,231.22,473.3561,230.3133,469.7677,236.5681,476.9215,237.4748,480.51,231.22" style="stroke:#181818;stroke-width:1.0;"/></g><!--reverse link ReadElf to Class--><g id="link_ReadElf_Class"><path codeLine="87" d="M575.198,293.4102 C544.808,338.0602 518.84,376.19 492.25,415.26 " fill="none" id="ReadElf-backto-Class" style="stroke:#181818;stroke-width:1.0;"/><polygon fill="#181818" points="581.95,283.49,575.2673,286.1995,575.198,293.4102,581.8808,290.7008,581.95,283.49" style="stroke:#181818;stroke-width:1.0;"/></g><!--reverse link ReadElf to OsAbi--><g id="link_ReadElf_OsAbi"><path codeLine="88" d="M675.5,295.49 C675.5,321.02 675.5,335.66 675.5,361.09 " fill="none" id="ReadElf-backto-OsAbi" style="stroke:#181818;stroke-width:1.0;"/><polygon fill="#181818" points="675.5,283.49,671.5,289.49,675.5,295.49,679.5,289.49,675.5,283.49" style="stroke:#181818;stroke-width:1.0;"/></g><!--reverse link ReadElf to ExecutableType--><g id="link_ReadElf_ExecutableType"><path codeLine="89" d="M770.432,293.5823 C782.982,313.0923 789.46,323.15 802.19,342.92 " fill="none" id="ReadElf-backto-ExecutableType" style="stroke:#181818;stroke-width:1.0;"/><polygon fill="#181818" points="763.94,283.49,763.8219,290.7001,770.432,293.5823,770.5501,286.3722,763.94,283.49" style="stroke:#181818;stroke-width:1.0;"/></g><!--reverse link ReadElf to Machine--><g id="link_ReadElf_Machine"><path codeLine="90" d="M880.7569,245.4707 C935.3769,275.3607 982.84,304.95 1032.5,343.15 C1046.01,353.55 1059.43,365.2 1072.34,377.31 " fill="none" id="ReadElf-backto-Machine" style="stroke:#181818;stroke-width:1.0;"/><polygon fill="#181818" points="870.23,239.71,873.5732,246.0993,880.7569,245.4707,877.4137,239.0814,870.23,239.71" style="stroke:#181818;stroke-width:1.0;"/></g><!--SRC=[dLLHRvim47xlhx3wC95rhMXIiGYnI2GbIwG48j9CdRO9ESGqQ0GYRB9Kq_xx3fyJe4lNghpW- -xEt7ttsLnmaHUX83wZAoU9oEyp0i_L5R6iA6R9YlTwO4dm8amevoOPb2z4LbHGapZfAgOf8ZkMypXBJL9qseXad2vZatZSNiQ8W1rKSLq4sPw5WNZSCjWFbeMWouJTWOtk3GtNSGhEAIvKKYhoHzZ3k44xIkW3hxujszWmiSuQVKHvjWbu4eTCMnPHn7AJlFjMT7-qeCgjWAeinKQl5hzZuJ7w2mkjejjxBZxRijIQcSJcFeki6HNhNa_RmiiainCvVyxEe95YetYiZ-3Vsg7VeAn7svNKmMu-uqKYBCpzGBIMAa9a0OmsJX-qLhNVZkOG9UeRJc8X4aO-aMkq-_436EsgAZdkjnKbKzzG4z3IQLSbWMdSoAAakKX_fjclLDlHf63oWx9O9MIfCq8vEPUhxwdcJ8RUtEwFW_Ujy__taV40jAcrAbKskgf9-6GdOPPoyQGLrtCTA5r7QpHRt5TzkSvTVtvRDJOPkzBTGVEpknWj_DAlr3tt9hO_dWDW862Fo_2FQ8nzQNLhUcgS8yb94oh9kNkPbYC9rqRhzEbyDHtmkOddbIte-w6ZwqTqD3wYms4jTkPx0yI7ZUWQhkAV4vERfQMy8Qiv2vybMKXb8-ZsdKbDSySkqUdSEuDgKlCrpTaAFRTVtMfcWonN2GFFTwhHFTKiC5aNhRhKv8ZKkfpDzENPg7jHQlRQE3MlneNvsa4TI9iUIDlhkk8_xdGDTE52BrtOlfrlq6FxK-Lfuq7QTur0dc5mtX_MfR_ZO2RDm_KXmBRzmUWOqKTzFs5G4NZuRRs_N5qU_aCD37zM3GYFSJEpgUc6J_7t5m00]--></g></svg>