<svg xmlns="http://www.w3.org/2000/svg" xmlns:xlink="http://www.w3.org/1999/xlink" contentStyleType="text/css" height="572px" preserveAspectRatio="none" style="width:1386px;height:572px;background:#FFFFFF;" version="1.1" viewBox="0 0 1386 572" width="1386px" zoomAndPan="magnify"><defs/><g><!--class ReadElf--><g id="elem_ReadElf"><rect codeLine="2" fill="#F1F1F1" height="129.4844" id="ReadElf" rx="2.5" ry="2.5" style="stroke:#181818;stroke-width:0.5;" width="299" x="44" y="7"/><ellipse cx="157.75" cy="23" fill="#F1F1F1" rx="11" ry="11" style="stroke:#181818;stroke-width:1.0;"/><path d="M157.2344,23.5625 Q155.375,22.8594 154.7188,22.0938 Q154.0781,21.3125 154.0781,20 Q154.0781,18.3125 155.1563,17.3438 Q156.2344,16.375 158.1094,16.375 Q158.9688,16.375 159.8125,16.5781 Q160.6719,16.7656 161.5156,17.1563 L161.5156,19.5469 Q160.7344,18.9844 159.9063,18.7031 Q159.0938,18.4063 158.2969,18.4063 Q157.4219,18.4063 156.9375,18.7656 Q156.4688,19.125 156.4688,19.7813 Q156.4688,20.2969 156.8125,20.6406 Q157.1563,20.9688 158.25,21.375 L159.3125,21.7813 Q160.7969,22.3281 161.5,23.2344 Q162.2188,24.1406 162.2188,25.5156 Q162.2188,27.3906 161.1094,28.3125 Q160,29.2344 157.75,29.2344 Q156.8281,29.2344 155.9063,29.0156 Q154.9844,28.7969 154.125,28.375 L154.125,25.8438 Q155.0938,26.5313 156.0156,26.875 Q156.9375,27.2188 157.8281,27.2188 Q158.7344,27.2188 159.2344,26.8125 Q159.7344,26.3906 159.7344,25.6563 Q159.7344,25.0938 159.3906,24.6875 Q159.0625,24.2656 158.4375,24.0156 L157.2344,23.5625 Z " fill="#000000"/><ellipse cx="183.25" cy="22.5" fill="#84BE84" rx="3" ry="3" style="stroke:#038048;stroke-width:1.0;"/><text fill="#000000" font-family="sans-serif" font-size="14" lengthAdjust="spacing" textLength="52" x="189.25" y="27.8467">ReadElf</text><line style="stroke:#181818;stroke-width:0.5;" x1="45" x2="342" y1="39" y2="39"/><rect fill="none" height="6" style="stroke:#C82930;stroke-width:1.0;" width="6" x="52" y="69.9453"/><text fill="#000000" font-family="sans-serif" font-size="14" lengthAdjust="spacing" textLength="273" x="64" y="76.292">parser: Box&lt;dyn binparser::BinParser&gt;</text><rect fill="none" height="6" style="stroke:#C82930;stroke-width:1.0;" width="6" x="52" y="86.2422"/><text fill="#000000" font-family="sans-serif" font-size="14" lengthAdjust="spacing" textLength="177" x="64" y="92.5889">string_section_index: u16</text><line style="stroke:#181818;stroke-width:1.0;stroke-dasharray:1.0,2.0;" x1="45" x2="166.5" y1="55.1484" y2="55.1484"/><text fill="#000000" font-family="sans-serif" font-size="14" lengthAdjust="spacing" textLength="54" x="166.5" y="59.4951">&#171;fields&#187;</text><line style="stroke:#181818;stroke-width:1.0;stroke-dasharray:1.0,2.0;" x1="220.5" x2="342" y1="55.1484" y2="55.1484"/><ellipse cx="55" cy="125.8359" fill="#84BE84" rx="3" ry="3" style="stroke:#038048;stroke-width:1.0;"/><text fill="#000000" font-family="sans-serif" font-size="14" lengthAdjust="spacing" textLength="244" x="64" y="129.1826">section_headers(): SectionHeaders</text><line style="stroke:#181818;stroke-width:1.0;stroke-dasharray:1.0,2.0;" x1="45" x2="153.5" y1="108.0391" y2="108.0391"/><text fill="#000000" font-family="sans-serif" font-size="14" lengthAdjust="spacing" textLength="80" x="153.5" y="112.3857">&#171;methods&#187;</text><line style="stroke:#181818;stroke-width:1.0;stroke-dasharray:1.0,2.0;" x1="233.5" x2="342" y1="108.0391" y2="108.0391"/></g><!--class BinParser--><g id="elem_BinParser"><rect codeLine="10" fill="#F1F1F1" height="64.2969" id="BinParser" rx="2.5" ry="2.5" style="stroke:#181818;stroke-width:0.5;" width="373" x="7" y="237.93"/><ellipse cx="150.75" cy="253.93" fill="#B4A7E5" rx="11" ry="11" style="stroke:#181818;stroke-width:1.0;"/><path d="M146.6719,249.6956 L146.6719,247.5394 L154.0625,247.5394 L154.0625,249.6956 L151.5938,249.6956 L151.5938,257.7738 L154.0625,257.7738 L154.0625,259.93 L146.6719,259.93 L146.6719,257.7738 L149.1406,257.7738 L149.1406,249.6956 L146.6719,249.6956 Z " fill="#000000"/><ellipse cx="176.25" cy="253.43" fill="#84BE84" rx="3" ry="3" style="stroke:#038048;stroke-width:1.0;"/><text fill="#000000" font-family="sans-serif" font-size="14" font-style="italic" lengthAdjust="spacing" textLength="66" x="182.25" y="258.7767">BinParser</text><line style="stroke:#181818;stroke-width:0.5;" x1="8" x2="379" y1="269.93" y2="269.93"/><line style="stroke:#181818;stroke-width:0.5;" x1="8" x2="379" y1="277.93" y2="277.93"/><ellipse cx="18" cy="291.5784" fill="#84BE84" rx="3" ry="3" style="stroke:#038048;stroke-width:1.0;"/><text fill="#000000" font-family="sans-serif" font-size="14" lengthAdjust="spacing" textLength="347" x="27" y="294.9251">get_map(offset: u64, size: usize): Option&lt;Buffer&gt;</text></g><!--class Buffer--><g id="elem_Buffer"><rect codeLine="14" fill="#F1F1F1" height="162.0781" id="Buffer" rx="2.5" ry="2.5" style="stroke:#181818;stroke-width:0.5;" width="156" x="348.5" y="403.67"/><ellipse cx="396.25" cy="419.67" fill="#EB937F" rx="11" ry="11" style="stroke:#181818;stroke-width:1.0;"/><path d="M400.3594,425.67 L392.6406,425.67 L392.6406,413.2794 L400.3594,413.2794 L400.3594,415.4356 L395.0938,415.4356 L395.0938,418.1075 L399.8594,418.1075 L399.8594,420.2637 L395.0938,420.2637 L395.0938,423.5137 L400.3594,423.5137 L400.3594,425.67 Z " fill="#000000"/><ellipse cx="421.75" cy="419.17" fill="#84BE84" rx="3" ry="3" style="stroke:#038048;stroke-width:1.0;"/><text fill="#000000" font-family="sans-serif" font-size="14" lengthAdjust="spacing" textLength="41" x="427.75" y="424.5167">Buffer</text><line style="stroke:#181818;stroke-width:0.5;" x1="349.5" x2="503.5" y1="435.67" y2="435.67"/><ellipse cx="359.5" cy="469.6153" fill="#84BE84" rx="3" ry="3" style="stroke:#038048;stroke-width:1.0;"/><text fill="#000000" font-family="sans-serif" font-size="14" lengthAdjust="spacing" textLength="90" x="368.5" y="472.962">AsRef(&amp;[u8])</text><ellipse cx="359.5" cy="485.9122" fill="#84BE84" rx="3" ry="3" style="stroke:#038048;stroke-width:1.0;"/><text fill="#000000" font-family="sans-serif" font-size="14" lengthAdjust="spacing" textLength="130" x="368.5" y="489.2589">Owning(Vec&lt;u8&gt;)</text><line style="stroke:#181818;stroke-width:1.0;stroke-dasharray:1.0,2.0;" x1="349.5" x2="391" y1="451.8184" y2="451.8184"/><text fill="#000000" font-family="sans-serif" font-size="14" lengthAdjust="spacing" textLength="71" x="391" y="456.1651">&#171;variants&#187;</text><line style="stroke:#181818;stroke-width:1.0;stroke-dasharray:1.0,2.0;" x1="462" x2="503.5" y1="451.8184" y2="451.8184"/><ellipse cx="359.5" cy="522.5059" fill="#84BE84" rx="3" ry="3" style="stroke:#038048;stroke-width:1.0;"/><text fill="#000000" font-family="sans-serif" font-size="14" lengthAdjust="spacing" textLength="85" x="368.5" y="525.8526">is_ref(): bool</text><ellipse cx="359.5" cy="538.8028" fill="#84BE84" rx="3" ry="3" style="stroke:#038048;stroke-width:1.0;"/><text fill="#000000" font-family="sans-serif" font-size="14" lengthAdjust="spacing" textLength="114" x="368.5" y="542.1495">is_owned(): bool</text><ellipse cx="359.5" cy="555.0997" fill="#84BE84" rx="3" ry="3" style="stroke:#038048;stroke-width:1.0;"/><text fill="#000000" font-family="sans-serif" font-size="14" lengthAdjust="spacing" textLength="99" x="368.5" y="558.4464">buffer(): &amp;[u8]</text><line style="stroke:#181818;stroke-width:1.0;stroke-dasharray:1.0,2.0;" x1="349.5" x2="386.5" y1="504.7091" y2="504.7091"/><text fill="#000000" font-family="sans-serif" font-size="14" lengthAdjust="spacing" textLength="80" x="386.5" y="509.0557">&#171;methods&#187;</text><line style="stroke:#181818;stroke-width:1.0;stroke-dasharray:1.0,2.0;" x1="466.5" x2="503.5" y1="504.7091" y2="504.7091"/></g><!--class SectionHeaders--><g id="elem_SectionHeaders"><rect codeLine="24" fill="#F1F1F1" height="76.5938" id="SectionHeaders" rx="2.5" ry="2.5" style="stroke:#181818;stroke-width:0.5;" width="384" x="436.5" y="33.45"/><ellipse cx="496.75" cy="49.45" fill="#F1F1F1" rx="11" ry="11" style="stroke:#181818;stroke-width:1.0;"/><path d="M496.2344,50.0125 Q494.375,49.3094 493.7188,48.5438 Q493.0781,47.7625 493.0781,46.45 Q493.0781,44.7625 494.1563,43.7938 Q495.2344,42.825 497.1094,42.825 Q497.9688,42.825 498.8125,43.0281 Q499.6719,43.2156 500.5156,43.6063 L500.5156,45.9969 Q499.7344,45.4344 498.9063,45.1531 Q498.0938,44.8563 497.2969,44.8563 Q496.4219,44.8563 495.9375,45.2156 Q495.4688,45.575 495.4688,46.2313 Q495.4688,46.7469 495.8125,47.0906 Q496.1563,47.4188 497.25,47.825 L498.3125,48.2313 Q499.7969,48.7781 500.5,49.6844 Q501.2188,50.5906 501.2188,51.9656 Q501.2188,53.8406 500.1094,54.7625 Q499,55.6844 496.75,55.6844 Q495.8281,55.6844 494.9063,55.4656 Q493.9844,55.2469 493.125,54.825 L493.125,52.2938 Q494.0938,52.9813 495.0156,53.325 Q495.9375,53.6688 496.8281,53.6688 Q497.7344,53.6688 498.2344,53.2625 Q498.7344,52.8406 498.7344,52.1063 Q498.7344,51.5438 498.3906,51.1375 Q498.0625,50.7156 497.4375,50.4656 L496.2344,50.0125 Z " fill="#000000"/><ellipse cx="522.25" cy="48.95" fill="#84BE84" rx="3" ry="3" style="stroke:#038048;stroke-width:1.0;"/><text fill="#000000" font-family="sans-serif" font-size="14" lengthAdjust="spacing" textLength="110" x="528.25" y="54.2967">SectionHeaders</text><rect fill="#FFFFFF" height="15.9688" style="stroke:#181818;stroke-width:1.0;stroke-dasharray:2.0,2.0;" width="132" x="691.5" y="30.45"/><text fill="#000000" font-family="sans-serif" font-size="12" font-style="italic" lengthAdjust="spacing" textLength="130" x="692.5" y="42.5887">Item=SectionHeader</text><line style="stroke:#181818;stroke-width:0.5;" x1="437.5" x2="819.5" y1="65.45" y2="65.45"/><ellipse cx="447.5" cy="99.3953" fill="#84BE84" rx="3" ry="3" style="stroke:#038048;stroke-width:1.0;"/><text fill="#000000" font-family="sans-serif" font-size="14" lengthAdjust="spacing" textLength="358" x="456.5" y="102.742">as_string_section(&amp;self, index: usize): StringSection</text><line style="stroke:#181818;stroke-width:1.0;stroke-dasharray:1.0,2.0;" x1="437.5" x2="588.5" y1="81.5984" y2="81.5984"/><text fill="#000000" font-family="sans-serif" font-size="14" lengthAdjust="spacing" textLength="80" x="588.5" y="85.9451">&#171;methods&#187;</text><line style="stroke:#181818;stroke-width:1.0;stroke-dasharray:1.0,2.0;" x1="668.5" x2="819.5" y1="81.5984" y2="81.5984"/></g><!--class StringSection--><g id="elem_StringSection"><rect codeLine="29" fill="#F1F1F1" height="113.1875" id="StringSection" rx="2.5" ry="2.5" style="stroke:#181818;stroke-width:0.5;" width="398" x="462.5" y="213.48"/><ellipse cx="605.75" cy="229.48" fill="#F1F1F1" rx="11" ry="11" style="stroke:#181818;stroke-width:1.0;"/><path d="M605.2344,230.0425 Q603.375,229.3394 602.7188,228.5738 Q602.0781,227.7925 602.0781,226.48 Q602.0781,224.7925 603.1563,223.8238 Q604.2344,222.855 606.1094,222.855 Q606.9688,222.855 607.8125,223.0581 Q608.6719,223.2456 609.5156,223.6363 L609.5156,226.0269 Q608.7344,225.4644 607.9063,225.1831 Q607.0938,224.8863 606.2969,224.8863 Q605.4219,224.8863 604.9375,225.2456 Q604.4688,225.605 604.4688,226.2613 Q604.4688,226.7769 604.8125,227.1206 Q605.1563,227.4488 606.25,227.855 L607.3125,228.2613 Q608.7969,228.8081 609.5,229.7144 Q610.2188,230.6206 610.2188,231.9956 Q610.2188,233.8706 609.1094,234.7925 Q608,235.7144 605.75,235.7144 Q604.8281,235.7144 603.9063,235.4956 Q602.9844,235.2769 602.125,234.855 L602.125,232.3238 Q603.0938,233.0113 604.0156,233.355 Q604.9375,233.6988 605.8281,233.6988 Q606.7344,233.6988 607.2344,233.2925 Q607.7344,232.8706 607.7344,232.1363 Q607.7344,231.5738 607.3906,231.1675 Q607.0625,230.7456 606.4375,230.4956 L605.2344,230.0425 Z " fill="#000000"/><ellipse cx="631.25" cy="228.98" fill="#84BE84" rx="3" ry="3" style="stroke:#038048;stroke-width:1.0;"/><text fill="#000000" font-family="sans-serif" font-size="14" lengthAdjust="spacing" textLength="92" x="637.25" y="234.3267">StringSection</text><line style="stroke:#181818;stroke-width:0.5;" x1="463.5" x2="859.5" y1="245.48" y2="245.48"/><polygon fill="#FFFF44" points="473.5,274.4253,477.5,278.4253,473.5,282.4253,469.5,278.4253" style="stroke:#B38D22;stroke-width:1.0;"/><text fill="#000000" font-family="sans-serif" font-size="14" lengthAdjust="spacing" textLength="372" x="482.5" y="282.772">new(section: SectionHeader): Option&lt;StringSection&gt;</text><line style="stroke:#181818;stroke-width:1.0;stroke-dasharray:1.0,2.0;" x1="463.5" x2="611.5" y1="261.6284" y2="261.6284"/><text fill="#000000" font-family="sans-serif" font-size="14" lengthAdjust="spacing" textLength="100" x="611.5" y="265.9751">&#171;Constructor&#187;</text><line style="stroke:#181818;stroke-width:1.0;stroke-dasharray:1.0,2.0;" x1="711.5" x2="859.5" y1="261.6284" y2="261.6284"/><ellipse cx="473.5" cy="316.0191" fill="#84BE84" rx="3" ry="3" style="stroke:#038048;stroke-width:1.0;"/><text fill="#000000" font-family="sans-serif" font-size="14" lengthAdjust="spacing" textLength="291" x="482.5" y="319.3657">from_offset(offset: usize): Option&lt;String&gt;</text><line style="stroke:#181818;stroke-width:1.0;stroke-dasharray:1.0,2.0;" x1="463.5" x2="621.5" y1="298.2222" y2="298.2222"/><text fill="#000000" font-family="sans-serif" font-size="14" lengthAdjust="spacing" textLength="80" x="621.5" y="302.5689">&#171;methods&#187;</text><line style="stroke:#181818;stroke-width:1.0;stroke-dasharray:1.0,2.0;" x1="701.5" x2="859.5" y1="298.2222" y2="298.2222"/></g><!--class SectionHeader--><g id="elem_SectionHeader"><rect codeLine="36" fill="#F1F1F1" height="80.5938" id="SectionHeader" rx="2.5" ry="2.5" style="stroke:#181818;stroke-width:0.5;" width="466" x="913.5" y="31.45"/><ellipse cx="1085.75" cy="47.45" fill="#F1F1F1" rx="11" ry="11" style="stroke:#181818;stroke-width:1.0;"/><path d="M1085.2344,48.0125 Q1083.375,47.3094 1082.7188,46.5438 Q1082.0781,45.7625 1082.0781,44.45 Q1082.0781,42.7625 1083.1563,41.7938 Q1084.2344,40.825 1086.1094,40.825 Q1086.9688,40.825 1087.8125,41.0281 Q1088.6719,41.2156 1089.5156,41.6063 L1089.5156,43.9969 Q1088.7344,43.4344 1087.9063,43.1531 Q1087.0938,42.8563 1086.2969,42.8563 Q1085.4219,42.8563 1084.9375,43.2156 Q1084.4688,43.575 1084.4688,44.2313 Q1084.4688,44.7469 1084.8125,45.0906 Q1085.1563,45.4188 1086.25,45.825 L1087.3125,46.2313 Q1088.7969,46.7781 1089.5,47.6844 Q1090.2188,48.5906 1090.2188,49.9656 Q1090.2188,51.8406 1089.1094,52.7625 Q1088,53.6844 1085.75,53.6844 Q1084.8281,53.6844 1083.9063,53.4656 Q1082.9844,53.2469 1082.125,52.825 L1082.125,50.2938 Q1083.0938,50.9813 1084.0156,51.325 Q1084.9375,51.6688 1085.8281,51.6688 Q1086.7344,51.6688 1087.2344,51.2625 Q1087.7344,50.8406 1087.7344,50.1063 Q1087.7344,49.5438 1087.3906,49.1375 Q1087.0625,48.7156 1086.4375,48.4656 L1085.2344,48.0125 Z " fill="#000000"/><ellipse cx="1111.25" cy="46.95" fill="#84BE84" rx="3" ry="3" style="stroke:#038048;stroke-width:1.0;"/><text fill="#000000" font-family="sans-serif" font-size="14" lengthAdjust="spacing" textLength="102" x="1117.25" y="52.2967">SectionHeader</text><line style="stroke:#181818;stroke-width:0.5;" x1="914.5" x2="1378.5" y1="63.45" y2="63.45"/><line style="stroke:#181818;stroke-width:0.5;" x1="914.5" x2="1378.5" y1="71.45" y2="71.45"/><polygon fill="#FFFF44" points="924.5,88.2469,928.5,92.2469,924.5,96.2469,920.5,92.2469" style="stroke:#B38D22;stroke-width:1.0;"/><text fill="#000000" font-family="sans-serif" font-size="14" lengthAdjust="spacing" textLength="440" x="933.5" y="88.4451">new(elf; ReadElf; index: usize; strings: Option&lt;StringSection&gt;):</text><text fill="#000000" font-family="sans-serif" font-size="14" lengthAdjust="spacing" textLength="172" x="937.5" y="104.742">Option&lt;SectionHeader&gt;</text></g><!--link ReadElf to SectionHeaders--><g id="link_ReadElf_SectionHeaders"><path codeLine="40" d="M343.2,71.74 C373.19,71.74 399.08,71.74 430.27,71.74 " fill="none" id="ReadElf-to-SectionHeaders" style="stroke:#181818;stroke-width:1.0;"/><polygon fill="#181818" points="436.27,71.74,427.27,67.74,431.27,71.74,427.27,75.74,436.27,71.74" style="stroke:#181818;stroke-width:1.0;"/><text fill="#000000" font-family="sans-serif" font-size="13" lengthAdjust="spacing" textLength="57" x="361.25" y="64.8069">&#171;create&#187;</text></g><!--reverse link ReadElf to BinParser--><g id="link_ReadElf_BinParser"><path codeLine="41" d="M193.5,148.76 C193.5,182.55 193.5,210.52 193.5,237.61 " fill="none" id="ReadElf-backto-BinParser" style="stroke:#181818;stroke-width:1.0;"/><polygon fill="#181818" points="193.5,136.76,189.5,142.76,193.5,148.76,197.5,142.76,193.5,136.76" style="stroke:#181818;stroke-width:1.0;"/></g><!--link SectionHeaders to SectionHeader--><g id="link_SectionHeaders_SectionHeader"><path codeLine="42" d="M820.65,71.74 C850.74,71.74 876.12,71.74 907.01,71.74 " fill="none" id="SectionHeaders-to-SectionHeader" style="stroke:#181818;stroke-width:1.0;"/><polygon fill="#181818" points="913.01,71.74,904.01,67.74,908.01,71.74,904.01,75.74,913.01,71.74" style="stroke:#181818;stroke-width:1.0;"/><text fill="#000000" font-family="sans-serif" font-size="13" lengthAdjust="spacing" textLength="57" x="838.5" y="64.8069">&#171;create&#187;</text></g><!--link SectionHeaders to StringSection--><g id="link_SectionHeaders_StringSection"><path codeLine="43" d="M634.78,110.13 C639.68,139.28 645.564,174.3032 651.124,207.3332 " fill="none" id="SectionHeaders-to-StringSection" style="stroke:#181818;stroke-width:1.0;"/><polygon fill="#181818" points="652.12,213.25,654.5705,203.7109,651.29,208.3194,646.6815,205.0388,652.12,213.25" style="stroke:#181818;stroke-width:1.0;"/><text fill="#000000" font-family="sans-serif" font-size="13" lengthAdjust="spacing" textLength="57" x="647.5" y="179.5469">&#171;create&#187;</text></g><!--reverse link SectionHeader to StringSection--><g id="link_SectionHeader_StringSection"><path codeLine="44" d="M1037.227,116.9731 C965.817,145.8831 879.27,180.92 799.93,213.04 " fill="none" id="SectionHeader-backto-StringSection" style="stroke:#181818;stroke-width:1.0;"/><polygon fill="none" points="1048.35,112.47,1041.2874,111.0139,1037.227,116.9731,1044.2895,118.4292,1048.35,112.47" style="stroke:#181818;stroke-width:1.0;"/><text fill="#000000" font-family="sans-serif" font-size="13" lengthAdjust="spacing" textLength="46" x="904.5" y="179.5469">&#171;uses&#187;</text></g><!--reverse link BinParser to StringSection--><g id="link_BinParser_StringSection"><path codeLine="45" d="M386.48,270.08 C413.34,270.08 435.07,270.08 462.16,270.08 " fill="none" id="BinParser-backto-StringSection" style="stroke:#181818;stroke-width:1.0;"/><polygon fill="#181818" points="380.48,270.08,389.48,274.08,385.48,270.08,389.48,266.08,380.48,270.08" style="stroke:#181818;stroke-width:1.0;"/><text fill="#000000" font-family="sans-serif" font-size="13" lengthAdjust="spacing" textLength="46" x="398.25" y="263.1469">&#171;uses&#187;</text></g><!--link BinParser to Buffer--><g id="link_BinParser_Buffer"><path codeLine="46" d="M228.13,302.68 C259.7,331.49 303.0482,371.0453 343.8082,408.2453 " fill="none" id="BinParser-to-Buffer" style="stroke:#181818;stroke-width:1.0;"/><polygon fill="#181818" points="348.24,412.29,344.2888,403.2685,344.5469,408.9194,338.8959,409.1775,348.24,412.29" style="stroke:#181818;stroke-width:1.0;"/><text fill="#000000" font-family="sans-serif" font-size="13" lengthAdjust="spacing" textLength="57" x="303.5" y="369.7369">&#171;create&#187;</text></g><!--reverse link StringSection to Buffer--><g id="link_StringSection_Buffer"><path codeLine="47" d="M590.8619,334.9914 C561.7519,361.3314 535.61,384.98 504.68,412.97 " fill="none" id="StringSection-backto-Buffer" style="stroke:#181818;stroke-width:1.0;"/><polygon fill="#181818" points="599.76,326.94,592.6272,327.9997,590.8619,334.9914,597.9948,333.9317,599.76,326.94" style="stroke:#181818;stroke-width:1.0;"/></g><!--SRC=[VLDTQy8m57tlhmWCf4uh38QCsWNc66nF3eMzRAFKzaO3RI99Ejt6_lloKMsZg2-sfwVdd7jFCv1ArBb2SyYAfvAWtm3ftsY4aeHGA0k9iRwpOBJ9X0GHeodV9SKtGqlA6YYUKlPgBx6ZQbNALgc4N57EKieAsCMelXctyXMeDU_g3_RijSu2GeRz62qSzEoGu2y81fGf42JB0HrCczI35QYqoZOX9qI2qdxZso6Iz0VqfVdJWhEDqKkcDI4ch144LbV80Ttnlp91CwQw0H_a74ZOUw_lFliEcMsPdZDyWpofxt3_qdHKfaA_hJCiEIyF6DyoA7nqQRCOp5hPa4rD_ZwI5mNLlOVXxWYd8JAP-jM4FGab6Q9zGysQ5fRKA7i1kW-wNe-SEGeNhTyLWstOE1sLsNRXIU9BwOdWLUhARJlsYtLY-EpEciWsc1vyil_m9zu69iXjIPu9sOy_sE69jtvZl3zBaOZmKMCereFb0Z8561-8rr4HjLzpSFJAgOolSaml3DshwJmTSMDzogubICFr7aIbLcuFNOVNWjQzEKo-hIVb9hQqu1y0]--></g></svg>