<svg xmlns="http://www.w3.org/2000/svg" xmlns:xlink="http://www.w3.org/1999/xlink" contentStyleType="text/css" height="732px" preserveAspectRatio="none" style="width:1274px;height:732px;background:#FFFFFF;" version="1.1" viewBox="0 0 1274 732" width="1274px" zoomAndPan="magnify"><defs/><g><!--class Iterator--><g id="elem_Iterator"><rect codeLine="2" fill="#F1F1F1" height="64.2969" id="Iterator" rx="2.5" ry="2.5" style="stroke:#181818;stroke-width:0.5;" width="277" x="417" y="7"/><ellipse cx="521.25" cy="23" fill="#B4A7E5" rx="11" ry="11" style="stroke:#181818;stroke-width:1.0;"/><path d="M517.1719,18.7656 L517.1719,16.6094 L524.5625,16.6094 L524.5625,18.7656 L522.0938,18.7656 L522.0938,26.8438 L524.5625,26.8438 L524.5625,29 L517.1719,29 L517.1719,26.8438 L519.6406,26.8438 L519.6406,18.7656 L517.1719,18.7656 Z " fill="#000000"/><ellipse cx="546.75" cy="22.5" fill="#84BE84" rx="3" ry="3" style="stroke:#038048;stroke-width:1.0;"/><text fill="#000000" font-family="sans-serif" font-size="14" font-style="italic" lengthAdjust="spacing" textLength="49" x="552.75" y="27.8467">Iterator</text><line style="stroke:#181818;stroke-width:0.5;" x1="418" x2="693" y1="39" y2="39"/><line style="stroke:#181818;stroke-width:0.5;" x1="418" x2="693" y1="47" y2="47"/><ellipse cx="428" cy="60.6484" fill="#84BE84" rx="3" ry="3" style="stroke:#038048;stroke-width:1.0;"/><text fill="#000000" font-family="sans-serif" font-size="14" lengthAdjust="spacing" textLength="251" x="437" y="63.9951">next(&amp;mut self): Option&lt;Self::Item&gt;</text></g><!--class ReadElf--><g id="elem_ReadElf"><rect codeLine="6" fill="#F1F1F1" height="145.7813" id="ReadElf" rx="2.5" ry="2.5" style="stroke:#181818;stroke-width:0.5;" width="283" x="7" y="190.34"/><ellipse cx="112.75" cy="206.34" fill="#F1F1F1" rx="11" ry="11" style="stroke:#181818;stroke-width:1.0;"/><path d="M112.2344,206.9025 Q110.375,206.1994 109.7188,205.4338 Q109.0781,204.6525 109.0781,203.34 Q109.0781,201.6525 110.1563,200.6838 Q111.2344,199.715 113.1094,199.715 Q113.9688,199.715 114.8125,199.9181 Q115.6719,200.1056 116.5156,200.4963 L116.5156,202.8869 Q115.7344,202.3244 114.9063,202.0431 Q114.0938,201.7463 113.2969,201.7463 Q112.4219,201.7463 111.9375,202.1056 Q111.4688,202.465 111.4688,203.1213 Q111.4688,203.6369 111.8125,203.9806 Q112.1563,204.3088 113.25,204.715 L114.3125,205.1213 Q115.7969,205.6681 116.5,206.5744 Q117.2188,207.4806 117.2188,208.8556 Q117.2188,210.7306 116.1094,211.6525 Q115,212.5744 112.75,212.5744 Q111.8281,212.5744 110.9063,212.3556 Q109.9844,212.1369 109.125,211.715 L109.125,209.1838 Q110.0938,209.8713 111.0156,210.215 Q111.9375,210.5588 112.8281,210.5588 Q113.7344,210.5588 114.2344,210.1525 Q114.7344,209.7306 114.7344,208.9963 Q114.7344,208.4338 114.3906,208.0275 Q114.0625,207.6056 113.4375,207.3556 L112.2344,206.9025 Z " fill="#000000"/><ellipse cx="138.25" cy="205.84" fill="#84BE84" rx="3" ry="3" style="stroke:#038048;stroke-width:1.0;"/><text fill="#000000" font-family="sans-serif" font-size="14" lengthAdjust="spacing" textLength="52" x="144.25" y="211.1867">ReadElf</text><line style="stroke:#181818;stroke-width:0.5;" x1="8" x2="289" y1="222.34" y2="222.34"/><rect fill="none" height="6" style="stroke:#C82930;stroke-width:1.0;" width="6" x="15" y="253.2853"/><text fill="#000000" font-family="sans-serif" font-size="14" lengthAdjust="spacing" textLength="196" x="27" y="259.632">program_header_offset: u64</text><rect fill="none" height="6" style="stroke:#C82930;stroke-width:1.0;" width="6" x="15" y="269.5822"/><text fill="#000000" font-family="sans-serif" font-size="14" lengthAdjust="spacing" textLength="185" x="27" y="275.9289">program_header_size: u16</text><rect fill="none" height="6" style="stroke:#C82930;stroke-width:1.0;" width="6" x="15" y="285.8791"/><text fill="#000000" font-family="sans-serif" font-size="14" lengthAdjust="spacing" textLength="197" x="27" y="292.2257">program_header_count: u16</text><line style="stroke:#181818;stroke-width:1.0;stroke-dasharray:1.0,2.0;" x1="8" x2="121.5" y1="238.4884" y2="238.4884"/><text fill="#000000" font-family="sans-serif" font-size="14" lengthAdjust="spacing" textLength="54" x="121.5" y="242.8351">&#171;fields&#187;</text><line style="stroke:#181818;stroke-width:1.0;stroke-dasharray:1.0,2.0;" x1="175.5" x2="289" y1="238.4884" y2="238.4884"/><ellipse cx="18" cy="325.4728" fill="#84BE84" rx="3" ry="3" style="stroke:#038048;stroke-width:1.0;"/><text fill="#000000" font-family="sans-serif" font-size="14" lengthAdjust="spacing" textLength="257" x="27" y="328.8195">program_headers(): ProgramHeaders</text><line style="stroke:#181818;stroke-width:1.0;stroke-dasharray:1.0,2.0;" x1="8" x2="108.5" y1="307.6759" y2="307.6759"/><text fill="#000000" font-family="sans-serif" font-size="14" lengthAdjust="spacing" textLength="80" x="108.5" y="312.0226">&#171;methods&#187;</text><line style="stroke:#181818;stroke-width:1.0;stroke-dasharray:1.0,2.0;" x1="188.5" x2="289" y1="307.6759" y2="307.6759"/></g><!--class ProgramHeaders--><g id="elem_ProgramHeaders"><rect codeLine="15" fill="#F1F1F1" height="198.6719" id="ProgramHeaders" rx="2.5" ry="2.5" style="stroke:#181818;stroke-width:0.5;" width="343" x="384" y="163.89"/><ellipse cx="418.8" cy="179.89" fill="#F1F1F1" rx="11" ry="11" style="stroke:#181818;stroke-width:1.0;"/><path d="M418.2844,180.4525 Q416.425,179.7494 415.7688,178.9838 Q415.1281,178.2025 415.1281,176.89 Q415.1281,175.2025 416.2063,174.2338 Q417.2844,173.265 419.1594,173.265 Q420.0188,173.265 420.8625,173.4681 Q421.7219,173.6556 422.5656,174.0463 L422.5656,176.4369 Q421.7844,175.8744 420.9563,175.5931 Q420.1438,175.2963 419.3469,175.2963 Q418.4719,175.2963 417.9875,175.6556 Q417.5188,176.015 417.5188,176.6713 Q417.5188,177.1869 417.8625,177.5306 Q418.2063,177.8588 419.3,178.265 L420.3625,178.6713 Q421.8469,179.2181 422.55,180.1244 Q423.2688,181.0306 423.2688,182.4056 Q423.2688,184.2806 422.1594,185.2025 Q421.05,186.1244 418.8,186.1244 Q417.8781,186.1244 416.9563,185.9056 Q416.0344,185.6869 415.175,185.265 L415.175,182.7338 Q416.1438,183.4213 417.0656,183.765 Q417.9875,184.1088 418.8781,184.1088 Q419.7844,184.1088 420.2844,183.7025 Q420.7844,183.2806 420.7844,182.5463 Q420.7844,181.9838 420.4406,181.5775 Q420.1125,181.1556 419.4875,180.9056 L418.2844,180.4525 Z " fill="#000000"/><ellipse cx="442.2" cy="179.39" fill="#84BE84" rx="3" ry="3" style="stroke:#038048;stroke-width:1.0;"/><text fill="#000000" font-family="sans-serif" font-size="14" lengthAdjust="spacing" textLength="116" x="448.2" y="184.7367">ProgramHeaders</text><rect fill="#FFFFFF" height="15.9688" style="stroke:#181818;stroke-width:1.0;stroke-dasharray:2.0,2.0;" width="138" x="592" y="160.89"/><text fill="#000000" font-family="sans-serif" font-size="12" font-style="italic" lengthAdjust="spacing" textLength="136" x="593" y="173.0287">Item=ProgramHeader</text><line style="stroke:#181818;stroke-width:0.5;" x1="385" x2="726" y1="195.89" y2="195.89"/><polygon fill="#FFFF44" points="395,224.8353,399,228.8353,395,232.8353,391,228.8353" style="stroke:#B38D22;stroke-width:1.0;"/><text fill="#000000" font-family="sans-serif" font-size="14" lengthAdjust="spacing" textLength="253" x="404" y="233.182">new(elf: &amp;ReadElf): ProgramHeaders</text><line style="stroke:#181818;stroke-width:1.0;stroke-dasharray:1.0,2.0;" x1="385" x2="505.5" y1="212.0384" y2="212.0384"/><text fill="#000000" font-family="sans-serif" font-size="14" lengthAdjust="spacing" textLength="100" x="505.5" y="216.3851">&#171;Constructor&#187;</text><line style="stroke:#181818;stroke-width:1.0;stroke-dasharray:1.0,2.0;" x1="605.5" x2="726" y1="212.0384" y2="212.0384"/><ellipse cx="395" cy="266.4291" fill="#84BE84" rx="3" ry="3" style="stroke:#038048;stroke-width:1.0;"/><text fill="#000000" font-family="sans-serif" font-size="14" lengthAdjust="spacing" textLength="294" x="404" y="269.7757">next(&amp;mut self): Option&lt;ProgramHeader&gt;</text><ellipse cx="395" cy="282.7259" fill="#84BE84" rx="3" ry="3" style="stroke:#038048;stroke-width:1.0;"/><text fill="#000000" font-family="sans-serif" font-size="14" lengthAdjust="spacing" textLength="278" x="404" y="286.0726">size_hint(&amp;self): (usize, Option&lt;usize&gt;)</text><line style="stroke:#181818;stroke-width:1.0;stroke-dasharray:1.0,2.0;" x1="385" x2="522" y1="248.6322" y2="248.6322"/><text fill="#000000" font-family="sans-serif" font-size="14" lengthAdjust="spacing" textLength="67" x="522" y="252.9789">&#171;Iterator&#187;</text><line style="stroke:#181818;stroke-width:1.0;stroke-dasharray:1.0,2.0;" x1="589" x2="726" y1="248.6322" y2="248.6322"/><ellipse cx="395" cy="319.3197" fill="#84BE84" rx="3" ry="3" style="stroke:#038048;stroke-width:1.0;"/><text fill="#000000" font-family="sans-serif" font-size="14" lengthAdjust="spacing" textLength="113" x="404" y="322.6664">len(&amp;self): usize</text><ellipse cx="395" cy="335.6166" fill="#84BE84" rx="3" ry="3" style="stroke:#038048;stroke-width:1.0;"/><text fill="#000000" font-family="sans-serif" font-size="14" lengthAdjust="spacing" textLength="146" x="404" y="338.9632">is_empty(&amp;self): bool</text><ellipse cx="395" cy="351.9134" fill="#84BE84" rx="3" ry="3" style="stroke:#038048;stroke-width:1.0;"/><text fill="#000000" font-family="sans-serif" font-size="14" lengthAdjust="spacing" textLength="317" x="404" y="355.2601">index(index: usize): Option&lt;ProgramHeader&gt;</text><line style="stroke:#181818;stroke-width:1.0;stroke-dasharray:1.0,2.0;" x1="385" x2="515.5" y1="301.5228" y2="301.5228"/><text fill="#000000" font-family="sans-serif" font-size="14" lengthAdjust="spacing" textLength="80" x="515.5" y="305.8695">&#171;methods&#187;</text><line style="stroke:#181818;stroke-width:1.0;stroke-dasharray:1.0,2.0;" x1="595.5" x2="726" y1="301.5228" y2="301.5228"/></g><!--class ProgramHeader--><g id="elem_ProgramHeader"><rect codeLine="27" fill="#F1F1F1" height="263.8594" id="ProgramHeader" rx="2.5" ry="2.5" style="stroke:#181818;stroke-width:0.5;" width="423" x="821" y="131.3"/><ellipse cx="968.75" cy="147.3" fill="#F1F1F1" rx="11" ry="11" style="stroke:#181818;stroke-width:1.0;"/><path d="M968.2344,147.8625 Q966.375,147.1594 965.7188,146.3938 Q965.0781,145.6125 965.0781,144.3 Q965.0781,142.6125 966.1563,141.6438 Q967.2344,140.675 969.1094,140.675 Q969.9688,140.675 970.8125,140.8781 Q971.6719,141.0656 972.5156,141.4563 L972.5156,143.8469 Q971.7344,143.2844 970.9063,143.0031 Q970.0938,142.7063 969.2969,142.7063 Q968.4219,142.7063 967.9375,143.0656 Q967.4688,143.425 967.4688,144.0813 Q967.4688,144.5969 967.8125,144.9406 Q968.1563,145.2688 969.25,145.675 L970.3125,146.0813 Q971.7969,146.6281 972.5,147.5344 Q973.2188,148.4406 973.2188,149.8156 Q973.2188,151.6906 972.1094,152.6125 Q971,153.5344 968.75,153.5344 Q967.8281,153.5344 966.9063,153.3156 Q965.9844,153.0969 965.125,152.675 L965.125,150.1438 Q966.0938,150.8313 967.0156,151.175 Q967.9375,151.5188 968.8281,151.5188 Q969.7344,151.5188 970.2344,151.1125 Q970.7344,150.6906 970.7344,149.9563 Q970.7344,149.3938 970.3906,148.9875 Q970.0625,148.5656 969.4375,148.3156 L968.2344,147.8625 Z " fill="#000000"/><ellipse cx="994.25" cy="146.8" fill="#84BE84" rx="3" ry="3" style="stroke:#038048;stroke-width:1.0;"/><text fill="#000000" font-family="sans-serif" font-size="14" lengthAdjust="spacing" textLength="108" x="1000.25" y="152.1467">ProgramHeader</text><line style="stroke:#181818;stroke-width:0.5;" x1="822" x2="1243" y1="163.3" y2="163.3"/><polygon fill="#FFFF44" points="832,192.2453,836,196.2453,832,200.2453,828,196.2453" style="stroke:#B38D22;stroke-width:1.0;"/><text fill="#000000" font-family="sans-serif" font-size="14" lengthAdjust="spacing" textLength="397" x="841" y="200.592">new(elf: &amp;ReadElf; index: u16): Option&lt;ProgramHeader&gt;</text><line style="stroke:#181818;stroke-width:1.0;stroke-dasharray:1.0,2.0;" x1="822" x2="982.5" y1="179.4484" y2="179.4484"/><text fill="#000000" font-family="sans-serif" font-size="14" lengthAdjust="spacing" textLength="100" x="982.5" y="183.7951">&#171;Constructor&#187;</text><line style="stroke:#181818;stroke-width:1.0;stroke-dasharray:1.0,2.0;" x1="1082.5" x2="1243" y1="179.4484" y2="179.4484"/><ellipse cx="832" cy="233.8391" fill="none" rx="3" ry="3" style="stroke:#038048;stroke-width:1.0;"/><text fill="#000000" font-family="sans-serif" font-size="14" lengthAdjust="spacing" textLength="205" x="841" y="237.1857">segment_type: SegmentType</text><ellipse cx="832" cy="250.1359" fill="none" rx="3" ry="3" style="stroke:#038048;stroke-width:1.0;"/><text fill="#000000" font-family="sans-serif" font-size="14" lengthAdjust="spacing" textLength="140" x="841" y="253.4826">flags: SegmentFlags</text><ellipse cx="832" cy="266.4328" fill="none" rx="3" ry="3" style="stroke:#038048;stroke-width:1.0;"/><text fill="#000000" font-family="sans-serif" font-size="14" lengthAdjust="spacing" textLength="101" x="841" y="269.7795">file_offset: u64</text><ellipse cx="832" cy="282.7297" fill="none" rx="3" ry="3" style="stroke:#038048;stroke-width:1.0;"/><text fill="#000000" font-family="sans-serif" font-size="14" lengthAdjust="spacing" textLength="139" x="841" y="286.0764">virtual_address: u64</text><ellipse cx="832" cy="299.0266" fill="none" rx="3" ry="3" style="stroke:#038048;stroke-width:1.0;"/><text fill="#000000" font-family="sans-serif" font-size="14" lengthAdjust="spacing" textLength="154" x="841" y="302.3732">physical_address: u64</text><ellipse cx="832" cy="315.3234" fill="none" rx="3" ry="3" style="stroke:#038048;stroke-width:1.0;"/><text fill="#000000" font-family="sans-serif" font-size="14" lengthAdjust="spacing" textLength="90" x="841" y="318.6701">file_size: u64</text><ellipse cx="832" cy="331.6203" fill="none" rx="3" ry="3" style="stroke:#038048;stroke-width:1.0;"/><text fill="#000000" font-family="sans-serif" font-size="14" lengthAdjust="spacing" textLength="127" x="841" y="334.967">memory_size: u64</text><ellipse cx="832" cy="347.9172" fill="none" rx="3" ry="3" style="stroke:#038048;stroke-width:1.0;"/><text fill="#000000" font-family="sans-serif" font-size="14" lengthAdjust="spacing" textLength="104" x="841" y="351.2639">alignment: u64</text><line style="stroke:#181818;stroke-width:1.0;stroke-dasharray:1.0,2.0;" x1="822" x2="1005.5" y1="216.0422" y2="216.0422"/><text fill="#000000" font-family="sans-serif" font-size="14" lengthAdjust="spacing" textLength="54" x="1005.5" y="220.3889">&#171;fields&#187;</text><line style="stroke:#181818;stroke-width:1.0;stroke-dasharray:1.0,2.0;" x1="1059.5" x2="1243" y1="216.0422" y2="216.0422"/><ellipse cx="832" cy="384.5109" fill="#84BE84" rx="3" ry="3" style="stroke:#038048;stroke-width:1.0;"/><text fill="#000000" font-family="sans-serif" font-size="14" lengthAdjust="spacing" textLength="117" x="841" y="387.8576">is_aligned(): bool</text><line style="stroke:#181818;stroke-width:1.0;stroke-dasharray:1.0,2.0;" x1="822" x2="992.5" y1="366.7141" y2="366.7141"/><text fill="#000000" font-family="sans-serif" font-size="14" lengthAdjust="spacing" textLength="80" x="992.5" y="371.0607">&#171;methods&#187;</text><line style="stroke:#181818;stroke-width:1.0;stroke-dasharray:1.0,2.0;" x1="1072.5" x2="1243" y1="366.7141" y2="366.7141"/></g><!--class SegmentType--><g id="elem_SegmentType"><rect codeLine="43" fill="#F1F1F1" height="270.4531" id="SegmentType" rx="2.5" ry="2.5" style="stroke:#181818;stroke-width:0.5;" width="216" x="798.5" y="455.16"/><ellipse cx="848.25" cy="476.4569" fill="#EB937F" rx="11" ry="11" style="stroke:#181818;stroke-width:1.0;"/><path d="M852.3594,482.4569 L844.6406,482.4569 L844.6406,470.0663 L852.3594,470.0663 L852.3594,472.2225 L847.0938,472.2225 L847.0938,474.8944 L851.8594,474.8944 L851.8594,477.0506 L847.0938,477.0506 L847.0938,480.3006 L852.3594,480.3006 L852.3594,482.4569 Z " fill="#000000"/><ellipse cx="873.75" cy="475.9569" fill="#84BE84" rx="3" ry="3" style="stroke:#038048;stroke-width:1.0;"/><text fill="#000000" font-family="sans-serif" font-size="14" lengthAdjust="spacing" textLength="97" x="879.75" y="473.1551">SegmentType</text><text fill="#000000" font-family="sans-serif" font-size="14" lengthAdjust="spacing" textLength="42" x="907.25" y="489.452">(PT_*)</text><line style="stroke:#181818;stroke-width:0.5;" x1="799.5" x2="1013.5" y1="497.7538" y2="497.7538"/><ellipse cx="809.5" cy="531.6991" fill="#84BE84" rx="3" ry="3" style="stroke:#038048;stroke-width:1.0;"/><text fill="#000000" font-family="sans-serif" font-size="14" lengthAdjust="spacing" textLength="190" x="818.5" y="535.0457">from(v: u32): SegmentType</text><ellipse cx="809.5" cy="547.9959" fill="#84BE84" rx="3" ry="3" style="stroke:#038048;stroke-width:1.0;"/><text fill="#000000" font-family="sans-serif" font-size="14" lengthAdjust="spacing" textLength="70" x="818.5" y="551.3426">to_string()</text><line style="stroke:#181818;stroke-width:1.0;stroke-dasharray:1.0,2.0;" x1="799.5" x2="866.5" y1="513.9022" y2="513.9022"/><text fill="#000000" font-family="sans-serif" font-size="14" lengthAdjust="spacing" textLength="80" x="866.5" y="518.2489">&#171;methods&#187;</text><line style="stroke:#181818;stroke-width:1.0;stroke-dasharray:1.0,2.0;" x1="946.5" x2="1013.5" y1="513.9022" y2="513.9022"/><ellipse cx="809.5" cy="584.5897" fill="none" rx="3" ry="3" style="stroke:#038048;stroke-width:1.0;"/><text fill="#000000" font-family="sans-serif" font-size="14" lengthAdjust="spacing" textLength="54" x="818.5" y="587.9364">Null = 0</text><ellipse cx="809.5" cy="600.8866" fill="none" rx="3" ry="3" style="stroke:#038048;stroke-width:1.0;"/><text fill="#000000" font-family="sans-serif" font-size="14" lengthAdjust="spacing" textLength="62" x="818.5" y="604.2332">Load = 1</text><ellipse cx="809.5" cy="617.1834" fill="none" rx="3" ry="3" style="stroke:#038048;stroke-width:1.0;"/><text fill="#000000" font-family="sans-serif" font-size="14" lengthAdjust="spacing" textLength="88" x="818.5" y="620.5301">Dynamic = 2</text><ellipse cx="809.5" cy="633.4803" fill="none" rx="3" ry="3" style="stroke:#038048;stroke-width:1.0;"/><text fill="#000000" font-family="sans-serif" font-size="14" lengthAdjust="spacing" textLength="102" x="818.5" y="636.827">Interpretor = 3</text><ellipse cx="809.5" cy="649.7772" fill="none" rx="3" ry="3" style="stroke:#038048;stroke-width:1.0;"/><text fill="#000000" font-family="sans-serif" font-size="14" lengthAdjust="spacing" textLength="62" x="818.5" y="653.1239">Note = 4</text><ellipse cx="809.5" cy="666.0741" fill="none" rx="3" ry="3" style="stroke:#038048;stroke-width:1.0;"/><text fill="#000000" font-family="sans-serif" font-size="14" lengthAdjust="spacing" textLength="66" x="818.5" y="669.4207">ShLib = 5</text><ellipse cx="809.5" cy="682.3709" fill="none" rx="3" ry="3" style="stroke:#038048;stroke-width:1.0;"/><text fill="#000000" font-family="sans-serif" font-size="14" lengthAdjust="spacing" textLength="62" x="818.5" y="685.7176">PHdr = 6</text><ellipse cx="809.5" cy="698.6678" fill="none" rx="3" ry="3" style="stroke:#038048;stroke-width:1.0;"/><text fill="#000000" font-family="sans-serif" font-size="14" lengthAdjust="spacing" textLength="49" x="818.5" y="702.0145">Tls = 7</text><ellipse cx="809.5" cy="714.9647" fill="#84BE84" rx="3" ry="3" style="stroke:#038048;stroke-width:1.0;"/><text fill="#000000" font-family="sans-serif" font-size="14" lengthAdjust="spacing" textLength="147" x="818.5" y="718.3114">Unknown(value: u32)</text><line style="stroke:#181818;stroke-width:1.0;stroke-dasharray:1.0,2.0;" x1="799.5" x2="871" y1="566.7928" y2="566.7928"/><text fill="#000000" font-family="sans-serif" font-size="14" lengthAdjust="spacing" textLength="71" x="871" y="571.1395">&#171;variants&#187;</text><line style="stroke:#181818;stroke-width:1.0;stroke-dasharray:1.0,2.0;" x1="942" x2="1013.5" y1="566.7928" y2="566.7928"/></g><!--class SegmentFlags--><g id="elem_SegmentFlags"><rect codeLine="59" fill="#F1F1F1" height="188.9688" id="SegmentFlags" rx="2.5" ry="2.5" style="stroke:#181818;stroke-width:0.5;" width="218" x="1049.5" y="495.9"/><ellipse cx="1099.25" cy="517.1969" fill="#F1F1F1" rx="11" ry="11" style="stroke:#181818;stroke-width:1.0;"/><path d="M1098.7344,517.7594 Q1096.875,517.0563 1096.2188,516.2906 Q1095.5781,515.5094 1095.5781,514.1969 Q1095.5781,512.5094 1096.6563,511.5406 Q1097.7344,510.5719 1099.6094,510.5719 Q1100.4688,510.5719 1101.3125,510.775 Q1102.1719,510.9625 1103.0156,511.3531 L1103.0156,513.7438 Q1102.2344,513.1813 1101.4063,512.9 Q1100.5938,512.6031 1099.7969,512.6031 Q1098.9219,512.6031 1098.4375,512.9625 Q1097.9688,513.3219 1097.9688,513.9781 Q1097.9688,514.4938 1098.3125,514.8375 Q1098.6563,515.1656 1099.75,515.5719 L1100.8125,515.9781 Q1102.2969,516.525 1103,517.4313 Q1103.7188,518.3375 1103.7188,519.7125 Q1103.7188,521.5875 1102.6094,522.5094 Q1101.5,523.4313 1099.25,523.4313 Q1098.3281,523.4313 1097.4063,523.2125 Q1096.4844,522.9938 1095.625,522.5719 L1095.625,520.0406 Q1096.5938,520.7281 1097.5156,521.0719 Q1098.4375,521.4156 1099.3281,521.4156 Q1100.2344,521.4156 1100.7344,521.0094 Q1101.2344,520.5875 1101.2344,519.8531 Q1101.2344,519.2906 1100.8906,518.8844 Q1100.5625,518.4625 1099.9375,518.2125 L1098.7344,517.7594 Z " fill="#000000"/><ellipse cx="1124.75" cy="516.6969" fill="#84BE84" rx="3" ry="3" style="stroke:#038048;stroke-width:1.0;"/><text fill="#000000" font-family="sans-serif" font-size="14" lengthAdjust="spacing" textLength="99" x="1130.75" y="513.8951">SegmentFlags</text><text fill="#000000" font-family="sans-serif" font-size="14" lengthAdjust="spacing" textLength="41" x="1159.75" y="530.192">(PF_*)</text><line style="stroke:#181818;stroke-width:0.5;" x1="1050.5" x2="1266.5" y1="538.4938" y2="538.4938"/><ellipse cx="1060.5" cy="572.4391" fill="#84BE84" rx="3" ry="3" style="stroke:#038048;stroke-width:1.0;"/><text fill="#000000" font-family="sans-serif" font-size="14" lengthAdjust="spacing" textLength="192" x="1069.5" y="575.7857">from(v: u32): SegmentFlags</text><ellipse cx="1060.5" cy="588.7359" fill="#84BE84" rx="3" ry="3" style="stroke:#038048;stroke-width:1.0;"/><text fill="#000000" font-family="sans-serif" font-size="14" lengthAdjust="spacing" textLength="78" x="1069.5" y="592.0826">flags(): u32</text><ellipse cx="1060.5" cy="605.0328" fill="#84BE84" rx="3" ry="3" style="stroke:#038048;stroke-width:1.0;"/><text fill="#000000" font-family="sans-serif" font-size="14" lengthAdjust="spacing" textLength="70" x="1069.5" y="608.3795">to_string()</text><line style="stroke:#181818;stroke-width:1.0;stroke-dasharray:1.0,2.0;" x1="1050.5" x2="1118.5" y1="554.6422" y2="554.6422"/><text fill="#000000" font-family="sans-serif" font-size="14" lengthAdjust="spacing" textLength="80" x="1118.5" y="558.9889">&#171;methods&#187;</text><line style="stroke:#181818;stroke-width:1.0;stroke-dasharray:1.0,2.0;" x1="1198.5" x2="1266.5" y1="554.6422" y2="554.6422"/><ellipse cx="1060.5" cy="641.6266" fill="none" rx="3" ry="3" style="stroke:#038048;stroke-width:1.0;"/><text fill="#000000" font-family="sans-serif" font-size="14" lengthAdjust="spacing" textLength="38" x="1069.5" y="644.9732">X = 1</text><ellipse cx="1060.5" cy="657.9234" fill="none" rx="3" ry="3" style="stroke:#038048;stroke-width:1.0;"/><text fill="#000000" font-family="sans-serif" font-size="14" lengthAdjust="spacing" textLength="42" x="1069.5" y="661.2701">W = 2</text><ellipse cx="1060.5" cy="674.2203" fill="none" rx="3" ry="3" style="stroke:#038048;stroke-width:1.0;"/><text fill="#000000" font-family="sans-serif" font-size="14" lengthAdjust="spacing" textLength="39" x="1069.5" y="677.567">R = 4</text><line style="stroke:#181818;stroke-width:1.0;stroke-dasharray:1.0,2.0;" x1="1050.5" x2="1115" y1="623.8297" y2="623.8297"/><text fill="#000000" font-family="sans-serif" font-size="14" lengthAdjust="spacing" textLength="87" x="1115" y="628.1764">&#171;constants&#187;</text><line style="stroke:#181818;stroke-width:1.0;stroke-dasharray:1.0,2.0;" x1="1202" x2="1266.5" y1="623.8297" y2="623.8297"/></g><!--link ReadElf to ProgramHeaders--><g id="link_ReadElf_ProgramHeaders"><path codeLine="70" d="M290.28,263.23 C320.45,263.23 346.61,263.23 377.76,263.23 " fill="none" id="ReadElf-to-ProgramHeaders" style="stroke:#181818;stroke-width:1.0;"/><polygon fill="#181818" points="383.76,263.23,374.76,259.23,378.76,263.23,374.76,267.23,383.76,263.23" style="stroke:#181818;stroke-width:1.0;"/><text fill="#000000" font-family="sans-serif" font-size="13" lengthAdjust="spacing" textLength="57" x="308.5" y="256.2969">&#171;create&#187;</text></g><!--reverse link Iterator to ProgramHeaders--><g id="link_Iterator_ProgramHeaders"><path codeLine="71" d="M555.5,89.5 C555.5,113.65 555.5,130.43 555.5,163.7 " fill="none" id="Iterator-backto-ProgramHeaders" style="stroke:#181818;stroke-width:1.0;stroke-dasharray:7.0,7.0;"/><polygon fill="none" points="555.5,71.5,549.5,89.5,561.5,89.5,555.5,71.5" style="stroke:#181818;stroke-width:1.0;"/></g><!--link ProgramHeaders to ProgramHeader--><g id="link_ProgramHeaders_ProgramHeader"><path codeLine="72" d="M727.37,263.23 C757.67,263.23 783.53,263.23 814.78,263.23 " fill="none" id="ProgramHeaders-to-ProgramHeader" style="stroke:#181818;stroke-width:1.0;"/><polygon fill="#181818" points="820.78,263.23,811.78,259.23,815.78,263.23,811.78,267.23,820.78,263.23" style="stroke:#181818;stroke-width:1.0;"/><text fill="#000000" font-family="sans-serif" font-size="13" lengthAdjust="spacing" textLength="57" x="745.5" y="256.2969">&#171;create&#187;</text></g><!--reverse link ProgramHeader to SegmentType--><g id="link_ProgramHeader_SegmentType"><path codeLine="73" d="M977.2784,406.7309 C969.7384,426.2109 966.28,435.12 958.71,454.66 " fill="none" id="ProgramHeader-backto-SegmentType" style="stroke:#181818;stroke-width:1.0;"/><polygon fill="#181818" points="981.61,395.54,975.7139,399.6916,977.2784,406.7309,983.1745,402.5793,981.61,395.54" style="stroke:#181818;stroke-width:1.0;"/></g><!--reverse link ProgramHeader to SegmentFlags--><g id="link_ProgramHeader_SegmentFlags"><path codeLine="74" d="M1087.7237,406.7301 C1100.6937,440.2201 1110.05,464.36 1122.14,495.55 " fill="none" id="ProgramHeader-backto-SegmentFlags" style="stroke:#181818;stroke-width:1.0;"/><polygon fill="#181818" points="1083.39,395.54,1081.8268,402.5796,1087.7237,406.7301,1089.2869,399.6905,1083.39,395.54" style="stroke:#181818;stroke-width:1.0;"/></g><!--SRC=[dLJRRXen47tdAwnKGYPRK4bQAb7ObxPH8aKj2bJjGwMLipiBLdrPsLuIUldtskjTy79x20-8SyxCs3upJ4I50PMJ5D2T_K6CLEXF1zbF9E3Pu2ul3TB0yjuOVIqCbM8ojsWyjj4yxlphT29jL9aQz00a-ypoEdimG9D9Je5bEeujgiX-eUHI4PwiR2oeHEQv1ZD6vUZjKLtJts3LuUYecifIc9rSdSZ1h6HuPDHEqjY-O-QfMy-4RsWh4_V6QOkBm-TzbCBdIRKxy9M09-mSGjtQaSCJjnKQouFxddAzVGqVw_n9LhQ3k5i7uz9nhvka2iMzS_um4DliAjpJL2V02xFPQezIibeI6JpZwhjEENdBKzQ-mCKFg3bnE3hhoj79YpGiEGYJc4rXHshkqS82B-UCBFMMlt6e5YY3WpcDrbIPah24P9a2hGEbM6qqJOzALQbwf1kE0vTgiyyIHfV2NMJ7dUYURLCL31bkUkGy1r7oy968Q7GHu9y2pnR9PUyYRCHXzLn9ZjVs4jTNlIEc6PdOpb6nnC64hOcYH9Ymp9UICJH5RpowboIpQEZHfuqWdAQMkFB4dTj7XGAtYARekguW3LXKspDVtTD72zzvEBlDNAZV0j62QGlUU_1D_1BoIU0rOINuTuGp6ROxjAWYd4StB_Ge723tqpN71fonBNN_WZtVVkni-hupwA4omhwYMRXzrO_tDWmQkv8AY84uxcmN- -Jl81liBwEzpCDgxM9jwRAVzLk3SLgkFFaF]--></g></svg>