<svg xmlns="http://www.w3.org/2000/svg" xmlns:xlink="http://www.w3.org/1999/xlink" contentStyleType="text/css" height="665px" preserveAspectRatio="none" style="width:1147px;height:665px;background:#FFFFFF;" version="1.1" viewBox="0 0 1147 665" width="1147px" zoomAndPan="magnify"><defs/><g><!--class Iterator--><g id="elem_Iterator"><rect codeLine="2" fill="#F1F1F1" height="64.2969" id="Iterator" rx="2.5" ry="2.5" style="stroke:#181818;stroke-width:0.5;" width="277" x="405" y="7"/><ellipse cx="509.25" cy="23" fill="#B4A7E5" rx="11" ry="11" style="stroke:#181818;stroke-width:1.0;"/><path d="M505.1719,18.7656 L505.1719,16.6094 L512.5625,16.6094 L512.5625,18.7656 L510.0938,18.7656 L510.0938,26.8438 L512.5625,26.8438 L512.5625,29 L505.1719,29 L505.1719,26.8438 L507.6406,26.8438 L507.6406,18.7656 L505.1719,18.7656 Z " fill="#000000"/><ellipse cx="534.75" cy="22.5" fill="#84BE84" rx="3" ry="3" style="stroke:#038048;stroke-width:1.0;"/><text fill="#000000" font-family="sans-serif" font-size="14" font-style="italic" lengthAdjust="spacing" textLength="49" x="540.75" y="27.8467">Iterator</text><line style="stroke:#181818;stroke-width:0.5;" x1="406" x2="681" y1="39" y2="39"/><line style="stroke:#181818;stroke-width:0.5;" x1="406" x2="681" y1="47" y2="47"/><ellipse cx="416" cy="60.6484" fill="#84BE84" rx="3" ry="3" style="stroke:#038048;stroke-width:1.0;"/><text fill="#000000" font-family="sans-serif" font-size="14" lengthAdjust="spacing" textLength="251" x="425" y="63.9951">next(&amp;mut self): Option&lt;Self::Item&gt;</text></g><!--class ReadElf--><g id="elem_ReadElf"><rect codeLine="6" fill="#F1F1F1" height="76.5938" id="ReadElf" rx="2.5" ry="2.5" style="stroke:#181818;stroke-width:0.5;" width="283" x="7" y="196.48"/><ellipse cx="112.75" cy="212.48" fill="#F1F1F1" rx="11" ry="11" style="stroke:#181818;stroke-width:1.0;"/><path d="M112.2344,213.0425 Q110.375,212.3394 109.7188,211.5738 Q109.0781,210.7925 109.0781,209.48 Q109.0781,207.7925 110.1563,206.8238 Q111.2344,205.855 113.1094,205.855 Q113.9688,205.855 114.8125,206.0581 Q115.6719,206.2456 116.5156,206.6363 L116.5156,209.0269 Q115.7344,208.4644 114.9063,208.1831 Q114.0938,207.8863 113.2969,207.8863 Q112.4219,207.8863 111.9375,208.2456 Q111.4688,208.605 111.4688,209.2613 Q111.4688,209.7769 111.8125,210.1206 Q112.1563,210.4488 113.25,210.855 L114.3125,211.2613 Q115.7969,211.8081 116.5,212.7144 Q117.2188,213.6206 117.2188,214.9956 Q117.2188,216.8706 116.1094,217.7925 Q115,218.7144 112.75,218.7144 Q111.8281,218.7144 110.9063,218.4956 Q109.9844,218.2769 109.125,217.855 L109.125,215.3238 Q110.0938,216.0113 111.0156,216.355 Q111.9375,216.6988 112.8281,216.6988 Q113.7344,216.6988 114.2344,216.2925 Q114.7344,215.8706 114.7344,215.1363 Q114.7344,214.5738 114.3906,214.1675 Q114.0625,213.7456 113.4375,213.4956 L112.2344,213.0425 Z " fill="#000000"/><ellipse cx="138.25" cy="211.98" fill="#84BE84" rx="3" ry="3" style="stroke:#038048;stroke-width:1.0;"/><text fill="#000000" font-family="sans-serif" font-size="14" lengthAdjust="spacing" textLength="52" x="144.25" y="217.3267">ReadElf</text><line style="stroke:#181818;stroke-width:0.5;" x1="8" x2="289" y1="228.48" y2="228.48"/><ellipse cx="18" cy="262.4253" fill="#84BE84" rx="3" ry="3" style="stroke:#038048;stroke-width:1.0;"/><text fill="#000000" font-family="sans-serif" font-size="14" lengthAdjust="spacing" textLength="257" x="27" y="265.772">program_headers(): ProgramHeaders</text><line style="stroke:#181818;stroke-width:1.0;stroke-dasharray:1.0,2.0;" x1="8" x2="108.5" y1="244.6284" y2="244.6284"/><text fill="#000000" font-family="sans-serif" font-size="14" lengthAdjust="spacing" textLength="80" x="108.5" y="248.9751">&#171;methods&#187;</text><line style="stroke:#181818;stroke-width:1.0;stroke-dasharray:1.0,2.0;" x1="188.5" x2="289" y1="244.6284" y2="244.6284"/></g><!--class ProgramHeaders--><g id="elem_ProgramHeaders"><rect codeLine="11" fill="#F1F1F1" height="145.7813" id="ProgramHeaders" rx="2.5" ry="2.5" style="stroke:#181818;stroke-width:0.5;" width="320" x="383.5" y="161.89"/><ellipse cx="407.95" cy="177.89" fill="#F1F1F1" rx="11" ry="11" style="stroke:#181818;stroke-width:1.0;"/><path d="M407.4344,178.4525 Q405.575,177.7494 404.9188,176.9838 Q404.2781,176.2025 404.2781,174.89 Q404.2781,173.2025 405.3563,172.2338 Q406.4344,171.265 408.3094,171.265 Q409.1688,171.265 410.0125,171.4681 Q410.8719,171.6556 411.7156,172.0463 L411.7156,174.4369 Q410.9344,173.8744 410.1063,173.5931 Q409.2938,173.2963 408.4969,173.2963 Q407.6219,173.2963 407.1375,173.6556 Q406.6688,174.015 406.6688,174.6713 Q406.6688,175.1869 407.0125,175.5306 Q407.3563,175.8588 408.45,176.265 L409.5125,176.6713 Q410.9969,177.2181 411.7,178.1244 Q412.4188,179.0306 412.4188,180.4056 Q412.4188,182.2806 411.3094,183.2025 Q410.2,184.1244 407.95,184.1244 Q407.0281,184.1244 406.1063,183.9056 Q405.1844,183.6869 404.325,183.265 L404.325,180.7338 Q405.2938,181.4213 406.2156,181.765 Q407.1375,182.1088 408.0281,182.1088 Q408.9344,182.1088 409.4344,181.7025 Q409.9344,181.2806 409.9344,180.5463 Q409.9344,179.9838 409.5906,179.5775 Q409.2625,179.1556 408.6375,178.9056 L407.4344,178.4525 Z " fill="#000000"/><ellipse cx="429.05" cy="177.39" fill="#84BE84" rx="3" ry="3" style="stroke:#038048;stroke-width:1.0;"/><text fill="#000000" font-family="sans-serif" font-size="14" lengthAdjust="spacing" textLength="116" x="435.05" y="182.7367">ProgramHeaders</text><rect fill="#FFFFFF" height="15.9688" style="stroke:#181818;stroke-width:1.0;stroke-dasharray:2.0,2.0;" width="138" x="568.5" y="158.89"/><text fill="#000000" font-family="sans-serif" font-size="12" font-style="italic" lengthAdjust="spacing" textLength="136" x="569.5" y="171.0287">Item=ProgramHeader</text><line style="stroke:#181818;stroke-width:0.5;" x1="384.5" x2="702.5" y1="193.89" y2="193.89"/><ellipse cx="394.5" cy="227.8353" fill="#84BE84" rx="3" ry="3" style="stroke:#038048;stroke-width:1.0;"/><text fill="#000000" font-family="sans-serif" font-size="14" lengthAdjust="spacing" textLength="294" x="403.5" y="231.182">next(&amp;mut self): Option&lt;ProgramHeader&gt;</text><ellipse cx="394.5" cy="244.1322" fill="#84BE84" rx="3" ry="3" style="stroke:#038048;stroke-width:1.0;"/><text fill="#000000" font-family="sans-serif" font-size="14" lengthAdjust="spacing" textLength="278" x="403.5" y="247.4789">size_hint(&amp;self): (usize, Option&lt;usize&gt;)</text><line style="stroke:#181818;stroke-width:1.0;stroke-dasharray:1.0,2.0;" x1="384.5" x2="510" y1="210.0384" y2="210.0384"/><text fill="#000000" font-family="sans-serif" font-size="14" lengthAdjust="spacing" textLength="67" x="510" y="214.3851">&#171;Iterator&#187;</text><line style="stroke:#181818;stroke-width:1.0;stroke-dasharray:1.0,2.0;" x1="577" x2="702.5" y1="210.0384" y2="210.0384"/><ellipse cx="394.5" cy="280.7259" fill="#84BE84" rx="3" ry="3" style="stroke:#038048;stroke-width:1.0;"/><text fill="#000000" font-family="sans-serif" font-size="14" lengthAdjust="spacing" textLength="113" x="403.5" y="284.0726">len(&amp;self): usize</text><ellipse cx="394.5" cy="297.0228" fill="#84BE84" rx="3" ry="3" style="stroke:#038048;stroke-width:1.0;"/><text fill="#000000" font-family="sans-serif" font-size="14" lengthAdjust="spacing" textLength="146" x="403.5" y="300.3695">is_empty(&amp;self): bool</text><line style="stroke:#181818;stroke-width:1.0;stroke-dasharray:1.0,2.0;" x1="384.5" x2="503.5" y1="262.9291" y2="262.9291"/><text fill="#000000" font-family="sans-serif" font-size="14" lengthAdjust="spacing" textLength="80" x="503.5" y="267.2757">&#171;methods&#187;</text><line style="stroke:#181818;stroke-width:1.0;stroke-dasharray:1.0,2.0;" x1="583.5" x2="702.5" y1="262.9291" y2="262.9291"/></g><!--class ProgramHeader--><g id="elem_ProgramHeader"><rect codeLine="20" fill="#F1F1F1" height="206.9688" id="ProgramHeader" rx="2.5" ry="2.5" style="stroke:#181818;stroke-width:0.5;" width="217" x="797" y="131.29"/><ellipse cx="841.75" cy="147.29" fill="#F1F1F1" rx="11" ry="11" style="stroke:#181818;stroke-width:1.0;"/><path d="M841.2344,147.8525 Q839.375,147.1494 838.7188,146.3837 Q838.0781,145.6025 838.0781,144.29 Q838.0781,142.6025 839.1563,141.6337 Q840.2344,140.665 842.1094,140.665 Q842.9688,140.665 843.8125,140.8681 Q844.6719,141.0556 845.5156,141.4462 L845.5156,143.8369 Q844.7344,143.2744 843.9063,142.9931 Q843.0938,142.6962 842.2969,142.6962 Q841.4219,142.6962 840.9375,143.0556 Q840.4688,143.415 840.4688,144.0712 Q840.4688,144.5869 840.8125,144.9306 Q841.1563,145.2587 842.25,145.665 L843.3125,146.0712 Q844.7969,146.6181 845.5,147.5244 Q846.2188,148.4306 846.2188,149.8056 Q846.2188,151.6806 845.1094,152.6025 Q844,153.5244 841.75,153.5244 Q840.8281,153.5244 839.9063,153.3056 Q838.9844,153.0869 838.125,152.665 L838.125,150.1337 Q839.0938,150.8212 840.0156,151.165 Q840.9375,151.5087 841.8281,151.5087 Q842.7344,151.5087 843.2344,151.1025 Q843.7344,150.6806 843.7344,149.9462 Q843.7344,149.3837 843.3906,148.9775 Q843.0625,148.5556 842.4375,148.3056 L841.2344,147.8525 Z " fill="#000000"/><ellipse cx="867.25" cy="146.79" fill="#84BE84" rx="3" ry="3" style="stroke:#038048;stroke-width:1.0;"/><text fill="#000000" font-family="sans-serif" font-size="14" lengthAdjust="spacing" textLength="108" x="873.25" y="152.1367">ProgramHeader</text><line style="stroke:#181818;stroke-width:0.5;" x1="798" x2="1013" y1="163.29" y2="163.29"/><text fill="#000000" font-family="sans-serif" font-size="14" lengthAdjust="spacing" textLength="205" x="803" y="180.2851">segment_type: SegmentType</text><text fill="#000000" font-family="sans-serif" font-size="14" lengthAdjust="spacing" textLength="140" x="803" y="196.582">flags: SegmentFlags</text><text fill="#000000" font-family="sans-serif" font-size="14" lengthAdjust="spacing" textLength="101" x="803" y="212.8789">file_offset: u64</text><text fill="#000000" font-family="sans-serif" font-size="14" lengthAdjust="spacing" textLength="139" x="803" y="229.1757">virtual_address: u64</text><text fill="#000000" font-family="sans-serif" font-size="14" lengthAdjust="spacing" textLength="154" x="803" y="245.4726">physical_address: u64</text><text fill="#000000" font-family="sans-serif" font-size="14" lengthAdjust="spacing" textLength="90" x="803" y="261.7695">file_size: u64</text><text fill="#000000" font-family="sans-serif" font-size="14" lengthAdjust="spacing" textLength="127" x="803" y="278.0664">memory_size: u64</text><text fill="#000000" font-family="sans-serif" font-size="14" lengthAdjust="spacing" textLength="104" x="803" y="294.3632">alignment: u64</text><text fill="#000000" font-family="sans-serif" font-size="14" lengthAdjust="spacing" textLength="117" x="803" y="330.957">is_aligned(): bool</text><line style="stroke:#181818;stroke-width:1.0;stroke-dasharray:1.0,2.0;" x1="798" x2="865.5" y1="309.8134" y2="309.8134"/><text fill="#000000" font-family="sans-serif" font-size="14" lengthAdjust="spacing" textLength="80" x="865.5" y="314.1601">&#171;methods&#187;</text><line style="stroke:#181818;stroke-width:1.0;stroke-dasharray:1.0,2.0;" x1="945.5" x2="1013" y1="309.8134" y2="309.8134"/></g><!--class SegmentType--><g id="elem_SegmentType"><rect codeLine="33" fill="#F1F1F1" height="259.8594" id="SegmentType" rx="2.5" ry="2.5" style="stroke:#181818;stroke-width:0.5;" width="216" x="671.5" y="398.26"/><ellipse cx="721.25" cy="414.26" fill="#EB937F" rx="11" ry="11" style="stroke:#181818;stroke-width:1.0;"/><path d="M725.3594,420.26 L717.6406,420.26 L717.6406,407.8694 L725.3594,407.8694 L725.3594,410.0256 L720.0938,410.0256 L720.0938,412.6975 L724.8594,412.6975 L724.8594,414.8538 L720.0938,414.8538 L720.0938,418.1038 L725.3594,418.1038 L725.3594,420.26 Z " fill="#000000"/><ellipse cx="746.75" cy="413.76" fill="#84BE84" rx="3" ry="3" style="stroke:#038048;stroke-width:1.0;"/><text fill="#000000" font-family="sans-serif" font-size="14" lengthAdjust="spacing" textLength="97" x="752.75" y="419.1067">SegmentType</text><line style="stroke:#181818;stroke-width:0.5;" x1="672.5" x2="886.5" y1="430.26" y2="430.26"/><ellipse cx="682.5" cy="464.2053" fill="#84BE84" rx="3" ry="3" style="stroke:#038048;stroke-width:1.0;"/><text fill="#000000" font-family="sans-serif" font-size="14" lengthAdjust="spacing" textLength="190" x="691.5" y="467.552">from(v: u32): SegmentType</text><ellipse cx="682.5" cy="480.5022" fill="#84BE84" rx="3" ry="3" style="stroke:#038048;stroke-width:1.0;"/><text fill="#000000" font-family="sans-serif" font-size="14" lengthAdjust="spacing" textLength="70" x="691.5" y="483.8489">to_string()</text><line style="stroke:#181818;stroke-width:1.0;stroke-dasharray:1.0,2.0;" x1="672.5" x2="739.5" y1="446.4084" y2="446.4084"/><text fill="#000000" font-family="sans-serif" font-size="14" lengthAdjust="spacing" textLength="80" x="739.5" y="450.7551">&#171;methods&#187;</text><line style="stroke:#181818;stroke-width:1.0;stroke-dasharray:1.0,2.0;" x1="819.5" x2="886.5" y1="446.4084" y2="446.4084"/><ellipse cx="682.5" cy="517.0959" fill="none" rx="3" ry="3" style="stroke:#038048;stroke-width:1.0;"/><text fill="#000000" font-family="sans-serif" font-size="14" lengthAdjust="spacing" textLength="54" x="691.5" y="520.4426">Null = 0</text><ellipse cx="682.5" cy="533.3928" fill="none" rx="3" ry="3" style="stroke:#038048;stroke-width:1.0;"/><text fill="#000000" font-family="sans-serif" font-size="14" lengthAdjust="spacing" textLength="62" x="691.5" y="536.7395">Load = 1</text><ellipse cx="682.5" cy="549.6897" fill="none" rx="3" ry="3" style="stroke:#038048;stroke-width:1.0;"/><text fill="#000000" font-family="sans-serif" font-size="14" lengthAdjust="spacing" textLength="88" x="691.5" y="553.0364">Dynamic = 2</text><ellipse cx="682.5" cy="565.9866" fill="none" rx="3" ry="3" style="stroke:#038048;stroke-width:1.0;"/><text fill="#000000" font-family="sans-serif" font-size="14" lengthAdjust="spacing" textLength="102" x="691.5" y="569.3332">Interpretor = 3</text><ellipse cx="682.5" cy="582.2834" fill="none" rx="3" ry="3" style="stroke:#038048;stroke-width:1.0;"/><text fill="#000000" font-family="sans-serif" font-size="14" lengthAdjust="spacing" textLength="62" x="691.5" y="585.6301">Note = 4</text><ellipse cx="682.5" cy="598.5803" fill="none" rx="3" ry="3" style="stroke:#038048;stroke-width:1.0;"/><text fill="#000000" font-family="sans-serif" font-size="14" lengthAdjust="spacing" textLength="66" x="691.5" y="601.927">ShLib = 5</text><ellipse cx="682.5" cy="614.8772" fill="none" rx="3" ry="3" style="stroke:#038048;stroke-width:1.0;"/><text fill="#000000" font-family="sans-serif" font-size="14" lengthAdjust="spacing" textLength="62" x="691.5" y="618.2239">PHdr = 6</text><ellipse cx="682.5" cy="631.1741" fill="none" rx="3" ry="3" style="stroke:#038048;stroke-width:1.0;"/><text fill="#000000" font-family="sans-serif" font-size="14" lengthAdjust="spacing" textLength="49" x="691.5" y="634.5207">Tls = 7</text><ellipse cx="682.5" cy="647.4709" fill="#84BE84" rx="3" ry="3" style="stroke:#038048;stroke-width:1.0;"/><text fill="#000000" font-family="sans-serif" font-size="14" lengthAdjust="spacing" textLength="147" x="691.5" y="650.8176">Unknown(value: u32)</text><line style="stroke:#181818;stroke-width:1.0;stroke-dasharray:1.0,2.0;" x1="672.5" x2="744" y1="499.2991" y2="499.2991"/><text fill="#000000" font-family="sans-serif" font-size="14" lengthAdjust="spacing" textLength="71" x="744" y="503.6457">&#171;variants&#187;</text><line style="stroke:#181818;stroke-width:1.0;stroke-dasharray:1.0,2.0;" x1="815" x2="886.5" y1="499.2991" y2="499.2991"/></g><!--class SegmentFlags--><g id="elem_SegmentFlags"><rect codeLine="49" fill="#F1F1F1" height="178.375" id="SegmentFlags" rx="2.5" ry="2.5" style="stroke:#181818;stroke-width:0.5;" width="218" x="922.5" y="439"/><ellipse cx="972.25" cy="455" fill="#F1F1F1" rx="11" ry="11" style="stroke:#181818;stroke-width:1.0;"/><path d="M971.7344,455.5625 Q969.875,454.8594 969.2188,454.0938 Q968.5781,453.3125 968.5781,452 Q968.5781,450.3125 969.6563,449.3438 Q970.7344,448.375 972.6094,448.375 Q973.4688,448.375 974.3125,448.5781 Q975.1719,448.7656 976.0156,449.1563 L976.0156,451.5469 Q975.2344,450.9844 974.4063,450.7031 Q973.5938,450.4063 972.7969,450.4063 Q971.9219,450.4063 971.4375,450.7656 Q970.9688,451.125 970.9688,451.7813 Q970.9688,452.2969 971.3125,452.6406 Q971.6563,452.9688 972.75,453.375 L973.8125,453.7813 Q975.2969,454.3281 976,455.2344 Q976.7188,456.1406 976.7188,457.5156 Q976.7188,459.3906 975.6094,460.3125 Q974.5,461.2344 972.25,461.2344 Q971.3281,461.2344 970.4063,461.0156 Q969.4844,460.7969 968.625,460.375 L968.625,457.8438 Q969.5938,458.5313 970.5156,458.875 Q971.4375,459.2188 972.3281,459.2188 Q973.2344,459.2188 973.7344,458.8125 Q974.2344,458.3906 974.2344,457.6563 Q974.2344,457.0938 973.8906,456.6875 Q973.5625,456.2656 972.9375,456.0156 L971.7344,455.5625 Z " fill="#000000"/><ellipse cx="997.75" cy="454.5" fill="#84BE84" rx="3" ry="3" style="stroke:#038048;stroke-width:1.0;"/><text fill="#000000" font-family="sans-serif" font-size="14" lengthAdjust="spacing" textLength="99" x="1003.75" y="459.8467">SegmentFlags</text><line style="stroke:#181818;stroke-width:0.5;" x1="923.5" x2="1139.5" y1="471" y2="471"/><ellipse cx="933.5" cy="504.9453" fill="#84BE84" rx="3" ry="3" style="stroke:#038048;stroke-width:1.0;"/><text fill="#000000" font-family="sans-serif" font-size="14" lengthAdjust="spacing" textLength="192" x="942.5" y="508.292">from(v: u32): SegmentFlags</text><ellipse cx="933.5" cy="521.2422" fill="#84BE84" rx="3" ry="3" style="stroke:#038048;stroke-width:1.0;"/><text fill="#000000" font-family="sans-serif" font-size="14" lengthAdjust="spacing" textLength="78" x="942.5" y="524.5889">flags(): u32</text><ellipse cx="933.5" cy="537.5391" fill="#84BE84" rx="3" ry="3" style="stroke:#038048;stroke-width:1.0;"/><text fill="#000000" font-family="sans-serif" font-size="14" lengthAdjust="spacing" textLength="70" x="942.5" y="540.8857">to_string()</text><line style="stroke:#181818;stroke-width:1.0;stroke-dasharray:1.0,2.0;" x1="923.5" x2="991.5" y1="487.1484" y2="487.1484"/><text fill="#000000" font-family="sans-serif" font-size="14" lengthAdjust="spacing" textLength="80" x="991.5" y="491.4951">&#171;methods&#187;</text><line style="stroke:#181818;stroke-width:1.0;stroke-dasharray:1.0,2.0;" x1="1071.5" x2="1139.5" y1="487.1484" y2="487.1484"/><ellipse cx="933.5" cy="574.1328" fill="none" rx="3" ry="3" style="stroke:#038048;stroke-width:1.0;"/><text fill="#000000" font-family="sans-serif" font-size="14" lengthAdjust="spacing" textLength="38" x="942.5" y="577.4795">X = 1</text><ellipse cx="933.5" cy="590.4297" fill="none" rx="3" ry="3" style="stroke:#038048;stroke-width:1.0;"/><text fill="#000000" font-family="sans-serif" font-size="14" lengthAdjust="spacing" textLength="42" x="942.5" y="593.7764">W = 2</text><ellipse cx="933.5" cy="606.7266" fill="none" rx="3" ry="3" style="stroke:#038048;stroke-width:1.0;"/><text fill="#000000" font-family="sans-serif" font-size="14" lengthAdjust="spacing" textLength="39" x="942.5" y="610.0732">R = 4</text><line style="stroke:#181818;stroke-width:1.0;stroke-dasharray:1.0,2.0;" x1="923.5" x2="988" y1="556.3359" y2="556.3359"/><text fill="#000000" font-family="sans-serif" font-size="14" lengthAdjust="spacing" textLength="87" x="988" y="560.6826">&#171;constants&#187;</text><line style="stroke:#181818;stroke-width:1.0;stroke-dasharray:1.0,2.0;" x1="1075" x2="1139.5" y1="556.3359" y2="556.3359"/></g><!--link ReadElf to ProgramHeaders--><g id="link_ReadElf_ProgramHeaders"><path codeLine="60" d="M290.27,234.78 C320.36,234.78 346.33,234.78 377.07,234.78 " fill="none" id="ReadElf-to-ProgramHeaders" style="stroke:#181818;stroke-width:1.0;"/><polygon fill="#181818" points="383.07,234.78,374.07,230.78,378.07,234.78,374.07,238.78,383.07,234.78" style="stroke:#181818;stroke-width:1.0;"/><text fill="#000000" font-family="sans-serif" font-size="13" lengthAdjust="spacing" textLength="57" x="308.25" y="227.8469">&#171;create&#187;</text></g><!--reverse link Iterator to ProgramHeaders--><g id="link_Iterator_ProgramHeaders"><path codeLine="61" d="M543.5,89.68 C543.5,114.01 543.5,130.63 543.5,161.63 " fill="none" id="Iterator-backto-ProgramHeaders" style="stroke:#181818;stroke-width:1.0;stroke-dasharray:7.0,7.0;"/><polygon fill="none" points="543.5,71.68,537.5,89.68,549.5,89.68,543.5,71.68" style="stroke:#181818;stroke-width:1.0;"/></g><!--link ProgramHeaders to ProgramHeader--><g id="link_ProgramHeaders_ProgramHeader"><path codeLine="62" d="M703.86,234.78 C735.25,234.78 761.49,234.78 790.71,234.78 " fill="none" id="ProgramHeaders-to-ProgramHeader" style="stroke:#181818;stroke-width:1.0;"/><polygon fill="#181818" points="796.71,234.78,787.71,230.78,791.71,234.78,787.71,238.78,796.71,234.78" style="stroke:#181818;stroke-width:1.0;"/><text fill="#000000" font-family="sans-serif" font-size="13" lengthAdjust="spacing" textLength="57" x="721.75" y="227.8469">&#171;create&#187;</text></g><!--reverse link ProgramHeader to SegmentType--><g id="link_ProgramHeader_SegmentType"><path codeLine="63" d="M856.3169,349.5342 C848.0269,368.7042 844.03,377.95 835.44,397.81 " fill="none" id="ProgramHeader-backto-SegmentType" style="stroke:#181818;stroke-width:1.0;"/><polygon fill="#181818" points="861.08,338.52,855.0271,342.4394,856.3169,349.5342,862.3699,345.6148,861.08,338.52" style="stroke:#181818;stroke-width:1.0;"/></g><!--reverse link ProgramHeader to SegmentFlags--><g id="link_ProgramHeader_SegmentFlags"><path codeLine="64" d="M954.6827,349.5344 C968.8527,382.3044 979.64,407.25 993.33,438.9 " fill="none" id="ProgramHeader-backto-SegmentFlags" style="stroke:#181818;stroke-width:1.0;"/><polygon fill="#181818" points="949.92,338.52,948.6299,345.6148,954.6827,349.5344,955.9728,342.4396,949.92,338.52" style="stroke:#181818;stroke-width:1.0;"/></g><!--SRC=[dLJBRjim4BphAtWAvAessgHD0K7MgIqI86Y3E4Lo4nXf9H7bGo0fj-hZtxiKRUkHs8Vwv9bT3Zb3hY8cBUYIva2kyG-rIfFV0S5V9E6d3Sz4Qua1NYvYyhMnJCbaWoYEiLkamTyWY8pLRMx97T3Y4oztgrShaYG2RAqAawO8lMQZLQMfo6fi1cr2LBtrr9LdnehJIk9sN4-uTBpP_lYZtOuvc8huNiD-GLPZ6k7PhZbi7VTwlwX7wUAKEmxoiBflzpGp6OZ6TeVQarBygD6T9mEL06apspKGaur7zmZwQibfPGxqPuSyppXagYmDM3p2vRkUt39jMyepMXGQZ1aAJTqPbhzKwNMSWu4I89JkPYJbh9Bk20FrSZQOGTyBHJWE06GhnkPElvvIAn5kSQkByyNpJ2AhCWoKoIeStTAMQaQb7SjyQJadQ_B6enj52qHlFVhOIIfOZiIv9wxTV3GQt62ioSLEGLb0v0r7c_g6FI5yx-7jLU5QBpswvmR11m- -oUzI_P3Xbl8Ml8_nEnXVvtyaCJo3g7yVBcbiE15EhgInitGUXp0UXXZkUhjurlsOB_KodKqeYPsa1ceXJOF3voJviofMyp6VhNokDXMRbbujY-Na-e-N-qp-0G00]--></g></svg>