<svg xmlns="http://www.w3.org/2000/svg" xmlns:xlink="http://www.w3.org/1999/xlink" contentStyleType="text/css" height="665px" preserveAspectRatio="none" style="width:1171px;height:665px;background:#FFFFFF;" version="1.1" viewBox="0 0 1171 665" width="1171px" zoomAndPan="magnify"><defs/><g><!--class Iterator--><g id="elem_Iterator"><rect codeLine="1" fill="#F1F1F1" height="64.2969" id="Iterator" rx="2.5" ry="2.5" style="stroke:#181818;stroke-width:0.5;" width="277" x="417" y="7"/><ellipse cx="521.25" cy="23" fill="#B4A7E5" rx="11" ry="11" style="stroke:#181818;stroke-width:1.0;"/><path d="M517.1719,18.7656 L517.1719,16.6094 L524.5625,16.6094 L524.5625,18.7656 L522.0938,18.7656 L522.0938,26.8438 L524.5625,26.8438 L524.5625,29 L517.1719,29 L517.1719,26.8438 L519.6406,26.8438 L519.6406,18.7656 L517.1719,18.7656 Z " fill="#000000"/><ellipse cx="546.75" cy="22.5" fill="#84BE84" rx="3" ry="3" style="stroke:#038048;stroke-width:1.0;"/><text fill="#000000" font-family="sans-serif" font-size="14" font-style="italic" lengthAdjust="spacing" textLength="49" x="552.75" y="27.8467">Iterator</text><line style="stroke:#181818;stroke-width:0.5;" x1="418" x2="693" y1="39" y2="39"/><line style="stroke:#181818;stroke-width:0.5;" x1="418" x2="693" y1="47" y2="47"/><ellipse cx="428" cy="60.6484" fill="#84BE84" rx="3" ry="3" style="stroke:#038048;stroke-width:1.0;"/><text fill="#000000" font-family="sans-serif" font-size="14" lengthAdjust="spacing" textLength="251" x="437" y="63.9951">next(&amp;mut self): Option&lt;Self::Item&gt;</text></g><!--class ReadElf--><g id="elem_ReadElf"><rect codeLine="5" fill="#F1F1F1" height="145.7813" id="ReadElf" rx="2.5" ry="2.5" style="stroke:#181818;stroke-width:0.5;" width="283" x="7" y="161.89"/><ellipse cx="112.75" cy="177.89" fill="#F1F1F1" rx="11" ry="11" style="stroke:#181818;stroke-width:1.0;"/><path d="M112.2344,178.4525 Q110.375,177.7494 109.7188,176.9838 Q109.0781,176.2025 109.0781,174.89 Q109.0781,173.2025 110.1563,172.2338 Q111.2344,171.265 113.1094,171.265 Q113.9688,171.265 114.8125,171.4681 Q115.6719,171.6556 116.5156,172.0463 L116.5156,174.4369 Q115.7344,173.8744 114.9063,173.5931 Q114.0938,173.2963 113.2969,173.2963 Q112.4219,173.2963 111.9375,173.6556 Q111.4688,174.015 111.4688,174.6713 Q111.4688,175.1869 111.8125,175.5306 Q112.1563,175.8588 113.25,176.265 L114.3125,176.6713 Q115.7969,177.2181 116.5,178.1244 Q117.2188,179.0306 117.2188,180.4056 Q117.2188,182.2806 116.1094,183.2025 Q115,184.1244 112.75,184.1244 Q111.8281,184.1244 110.9063,183.9056 Q109.9844,183.6869 109.125,183.265 L109.125,180.7338 Q110.0938,181.4213 111.0156,181.765 Q111.9375,182.1088 112.8281,182.1088 Q113.7344,182.1088 114.2344,181.7025 Q114.7344,181.2806 114.7344,180.5463 Q114.7344,179.9838 114.3906,179.5775 Q114.0625,179.1556 113.4375,178.9056 L112.2344,178.4525 Z " fill="#000000"/><ellipse cx="138.25" cy="177.39" fill="#84BE84" rx="3" ry="3" style="stroke:#038048;stroke-width:1.0;"/><text fill="#000000" font-family="sans-serif" font-size="14" lengthAdjust="spacing" textLength="52" x="144.25" y="182.7367">ReadElf</text><line style="stroke:#181818;stroke-width:0.5;" x1="8" x2="289" y1="193.89" y2="193.89"/><rect fill="none" height="6" style="stroke:#C82930;stroke-width:1.0;" width="6" x="15" y="224.8353"/><text fill="#000000" font-family="sans-serif" font-size="14" lengthAdjust="spacing" textLength="196" x="27" y="231.182">program_header_offset: u64</text><rect fill="none" height="6" style="stroke:#C82930;stroke-width:1.0;" width="6" x="15" y="241.1322"/><text fill="#000000" font-family="sans-serif" font-size="14" lengthAdjust="spacing" textLength="185" x="27" y="247.4789">program_header_size: u16</text><rect fill="none" height="6" style="stroke:#C82930;stroke-width:1.0;" width="6" x="15" y="257.4291"/><text fill="#000000" font-family="sans-serif" font-size="14" lengthAdjust="spacing" textLength="197" x="27" y="263.7757">program_header_count: u16</text><line style="stroke:#181818;stroke-width:1.0;stroke-dasharray:1.0,2.0;" x1="8" x2="121.5" y1="210.0384" y2="210.0384"/><text fill="#000000" font-family="sans-serif" font-size="14" lengthAdjust="spacing" textLength="54" x="121.5" y="214.3851">&#171;fields&#187;</text><line style="stroke:#181818;stroke-width:1.0;stroke-dasharray:1.0,2.0;" x1="175.5" x2="289" y1="210.0384" y2="210.0384"/><ellipse cx="18" cy="297.0228" fill="#84BE84" rx="3" ry="3" style="stroke:#038048;stroke-width:1.0;"/><text fill="#000000" font-family="sans-serif" font-size="14" lengthAdjust="spacing" textLength="257" x="27" y="300.3695">program_headers(): ProgramHeaders</text><line style="stroke:#181818;stroke-width:1.0;stroke-dasharray:1.0,2.0;" x1="8" x2="108.5" y1="279.2259" y2="279.2259"/><text fill="#000000" font-family="sans-serif" font-size="14" lengthAdjust="spacing" textLength="80" x="108.5" y="283.5726">&#171;methods&#187;</text><line style="stroke:#181818;stroke-width:1.0;stroke-dasharray:1.0,2.0;" x1="188.5" x2="289" y1="279.2259" y2="279.2259"/></g><!--class ProgramHeaders--><g id="elem_ProgramHeaders"><rect codeLine="14" fill="#F1F1F1" height="162.0781" id="ProgramHeaders" rx="2.5" ry="2.5" style="stroke:#181818;stroke-width:0.5;" width="343" x="384" y="153.74"/><ellipse cx="418.8" cy="169.74" fill="#F1F1F1" rx="11" ry="11" style="stroke:#181818;stroke-width:1.0;"/><path d="M418.2844,170.3025 Q416.425,169.5994 415.7688,168.8338 Q415.1281,168.0525 415.1281,166.74 Q415.1281,165.0525 416.2063,164.0838 Q417.2844,163.115 419.1594,163.115 Q420.0188,163.115 420.8625,163.3181 Q421.7219,163.5056 422.5656,163.8963 L422.5656,166.2869 Q421.7844,165.7244 420.9563,165.4431 Q420.1438,165.1463 419.3469,165.1463 Q418.4719,165.1463 417.9875,165.5056 Q417.5188,165.865 417.5188,166.5213 Q417.5188,167.0369 417.8625,167.3806 Q418.2063,167.7088 419.3,168.115 L420.3625,168.5213 Q421.8469,169.0681 422.55,169.9744 Q423.2688,170.8806 423.2688,172.2556 Q423.2688,174.1306 422.1594,175.0525 Q421.05,175.9744 418.8,175.9744 Q417.8781,175.9744 416.9563,175.7556 Q416.0344,175.5369 415.175,175.115 L415.175,172.5838 Q416.1438,173.2713 417.0656,173.615 Q417.9875,173.9588 418.8781,173.9588 Q419.7844,173.9588 420.2844,173.5525 Q420.7844,173.1306 420.7844,172.3963 Q420.7844,171.8338 420.4406,171.4275 Q420.1125,171.0056 419.4875,170.7556 L418.2844,170.3025 Z " fill="#000000"/><ellipse cx="442.2" cy="169.24" fill="#84BE84" rx="3" ry="3" style="stroke:#038048;stroke-width:1.0;"/><text fill="#000000" font-family="sans-serif" font-size="14" lengthAdjust="spacing" textLength="116" x="448.2" y="174.5867">ProgramHeaders</text><rect fill="#FFFFFF" height="15.9688" style="stroke:#181818;stroke-width:1.0;stroke-dasharray:2.0,2.0;" width="138" x="592" y="150.74"/><text fill="#000000" font-family="sans-serif" font-size="12" font-style="italic" lengthAdjust="spacing" textLength="136" x="593" y="162.8787">Item=ProgramHeader</text><line style="stroke:#181818;stroke-width:0.5;" x1="385" x2="726" y1="185.74" y2="185.74"/><ellipse cx="395" cy="219.6853" fill="#84BE84" rx="3" ry="3" style="stroke:#038048;stroke-width:1.0;"/><text fill="#000000" font-family="sans-serif" font-size="14" lengthAdjust="spacing" textLength="294" x="404" y="223.032">next(&amp;mut self): Option&lt;ProgramHeader&gt;</text><ellipse cx="395" cy="235.9822" fill="#84BE84" rx="3" ry="3" style="stroke:#038048;stroke-width:1.0;"/><text fill="#000000" font-family="sans-serif" font-size="14" lengthAdjust="spacing" textLength="278" x="404" y="239.3289">size_hint(&amp;self): (usize, Option&lt;usize&gt;)</text><line style="stroke:#181818;stroke-width:1.0;stroke-dasharray:1.0,2.0;" x1="385" x2="522" y1="201.8884" y2="201.8884"/><text fill="#000000" font-family="sans-serif" font-size="14" lengthAdjust="spacing" textLength="67" x="522" y="206.2351">&#171;Iterator&#187;</text><line style="stroke:#181818;stroke-width:1.0;stroke-dasharray:1.0,2.0;" x1="589" x2="726" y1="201.8884" y2="201.8884"/><ellipse cx="395" cy="272.5759" fill="#84BE84" rx="3" ry="3" style="stroke:#038048;stroke-width:1.0;"/><text fill="#000000" font-family="sans-serif" font-size="14" lengthAdjust="spacing" textLength="113" x="404" y="275.9226">len(&amp;self): usize</text><ellipse cx="395" cy="288.8728" fill="#84BE84" rx="3" ry="3" style="stroke:#038048;stroke-width:1.0;"/><text fill="#000000" font-family="sans-serif" font-size="14" lengthAdjust="spacing" textLength="146" x="404" y="292.2195">is_empty(&amp;self): bool</text><ellipse cx="395" cy="305.1697" fill="#84BE84" rx="3" ry="3" style="stroke:#038048;stroke-width:1.0;"/><text fill="#000000" font-family="sans-serif" font-size="14" lengthAdjust="spacing" textLength="317" x="404" y="308.5164">index(index: usize): Option&lt;ProgramHeader&gt;</text><line style="stroke:#181818;stroke-width:1.0;stroke-dasharray:1.0,2.0;" x1="385" x2="515.5" y1="254.7791" y2="254.7791"/><text fill="#000000" font-family="sans-serif" font-size="14" lengthAdjust="spacing" textLength="80" x="515.5" y="259.1257">&#171;methods&#187;</text><line style="stroke:#181818;stroke-width:1.0;stroke-dasharray:1.0,2.0;" x1="595.5" x2="726" y1="254.7791" y2="254.7791"/></g><!--class ProgramHeader--><g id="elem_ProgramHeader"><rect codeLine="24" fill="#F1F1F1" height="206.9688" id="ProgramHeader" rx="2.5" ry="2.5" style="stroke:#181818;stroke-width:0.5;" width="217" x="821" y="131.29"/><ellipse cx="865.75" cy="147.29" fill="#F1F1F1" rx="11" ry="11" style="stroke:#181818;stroke-width:1.0;"/><path d="M865.2344,147.8525 Q863.375,147.1494 862.7188,146.3837 Q862.0781,145.6025 862.0781,144.29 Q862.0781,142.6025 863.1563,141.6337 Q864.2344,140.665 866.1094,140.665 Q866.9688,140.665 867.8125,140.8681 Q868.6719,141.0556 869.5156,141.4462 L869.5156,143.8369 Q868.7344,143.2744 867.9063,142.9931 Q867.0938,142.6962 866.2969,142.6962 Q865.4219,142.6962 864.9375,143.0556 Q864.4688,143.415 864.4688,144.0712 Q864.4688,144.5869 864.8125,144.9306 Q865.1563,145.2587 866.25,145.665 L867.3125,146.0712 Q868.7969,146.6181 869.5,147.5244 Q870.2188,148.4306 870.2188,149.8056 Q870.2188,151.6806 869.1094,152.6025 Q868,153.5244 865.75,153.5244 Q864.8281,153.5244 863.9063,153.3056 Q862.9844,153.0869 862.125,152.665 L862.125,150.1337 Q863.0938,150.8212 864.0156,151.165 Q864.9375,151.5087 865.8281,151.5087 Q866.7344,151.5087 867.2344,151.1025 Q867.7344,150.6806 867.7344,149.9462 Q867.7344,149.3837 867.3906,148.9775 Q867.0625,148.5556 866.4375,148.3056 L865.2344,147.8525 Z " fill="#000000"/><ellipse cx="891.25" cy="146.79" fill="#84BE84" rx="3" ry="3" style="stroke:#038048;stroke-width:1.0;"/><text fill="#000000" font-family="sans-serif" font-size="14" lengthAdjust="spacing" textLength="108" x="897.25" y="152.1367">ProgramHeader</text><line style="stroke:#181818;stroke-width:0.5;" x1="822" x2="1037" y1="163.29" y2="163.29"/><text fill="#000000" font-family="sans-serif" font-size="14" lengthAdjust="spacing" textLength="205" x="827" y="180.2851">segment_type: SegmentType</text><text fill="#000000" font-family="sans-serif" font-size="14" lengthAdjust="spacing" textLength="140" x="827" y="196.582">flags: SegmentFlags</text><text fill="#000000" font-family="sans-serif" font-size="14" lengthAdjust="spacing" textLength="101" x="827" y="212.8789">file_offset: u64</text><text fill="#000000" font-family="sans-serif" font-size="14" lengthAdjust="spacing" textLength="139" x="827" y="229.1757">virtual_address: u64</text><text fill="#000000" font-family="sans-serif" font-size="14" lengthAdjust="spacing" textLength="154" x="827" y="245.4726">physical_address: u64</text><text fill="#000000" font-family="sans-serif" font-size="14" lengthAdjust="spacing" textLength="90" x="827" y="261.7695">file_size: u64</text><text fill="#000000" font-family="sans-serif" font-size="14" lengthAdjust="spacing" textLength="127" x="827" y="278.0664">memory_size: u64</text><text fill="#000000" font-family="sans-serif" font-size="14" lengthAdjust="spacing" textLength="104" x="827" y="294.3632">alignment: u64</text><text fill="#000000" font-family="sans-serif" font-size="14" lengthAdjust="spacing" textLength="117" x="827" y="330.957">is_aligned(): bool</text><line style="stroke:#181818;stroke-width:1.0;stroke-dasharray:1.0,2.0;" x1="822" x2="889.5" y1="309.8134" y2="309.8134"/><text fill="#000000" font-family="sans-serif" font-size="14" lengthAdjust="spacing" textLength="80" x="889.5" y="314.1601">&#171;methods&#187;</text><line style="stroke:#181818;stroke-width:1.0;stroke-dasharray:1.0,2.0;" x1="969.5" x2="1037" y1="309.8134" y2="309.8134"/></g><!--class SegmentType--><g id="elem_SegmentType"><rect codeLine="37" fill="#F1F1F1" height="259.8594" id="SegmentType" rx="2.5" ry="2.5" style="stroke:#181818;stroke-width:0.5;" width="216" x="695.5" y="398.26"/><ellipse cx="745.25" cy="414.26" fill="#EB937F" rx="11" ry="11" style="stroke:#181818;stroke-width:1.0;"/><path d="M749.3594,420.26 L741.6406,420.26 L741.6406,407.8694 L749.3594,407.8694 L749.3594,410.0256 L744.0938,410.0256 L744.0938,412.6975 L748.8594,412.6975 L748.8594,414.8538 L744.0938,414.8538 L744.0938,418.1038 L749.3594,418.1038 L749.3594,420.26 Z " fill="#000000"/><ellipse cx="770.75" cy="413.76" fill="#84BE84" rx="3" ry="3" style="stroke:#038048;stroke-width:1.0;"/><text fill="#000000" font-family="sans-serif" font-size="14" lengthAdjust="spacing" textLength="97" x="776.75" y="419.1067">SegmentType</text><line style="stroke:#181818;stroke-width:0.5;" x1="696.5" x2="910.5" y1="430.26" y2="430.26"/><ellipse cx="706.5" cy="464.2053" fill="#84BE84" rx="3" ry="3" style="stroke:#038048;stroke-width:1.0;"/><text fill="#000000" font-family="sans-serif" font-size="14" lengthAdjust="spacing" textLength="190" x="715.5" y="467.552">from(v: u32): SegmentType</text><ellipse cx="706.5" cy="480.5022" fill="#84BE84" rx="3" ry="3" style="stroke:#038048;stroke-width:1.0;"/><text fill="#000000" font-family="sans-serif" font-size="14" lengthAdjust="spacing" textLength="70" x="715.5" y="483.8489">to_string()</text><line style="stroke:#181818;stroke-width:1.0;stroke-dasharray:1.0,2.0;" x1="696.5" x2="763.5" y1="446.4084" y2="446.4084"/><text fill="#000000" font-family="sans-serif" font-size="14" lengthAdjust="spacing" textLength="80" x="763.5" y="450.7551">&#171;methods&#187;</text><line style="stroke:#181818;stroke-width:1.0;stroke-dasharray:1.0,2.0;" x1="843.5" x2="910.5" y1="446.4084" y2="446.4084"/><ellipse cx="706.5" cy="517.0959" fill="none" rx="3" ry="3" style="stroke:#038048;stroke-width:1.0;"/><text fill="#000000" font-family="sans-serif" font-size="14" lengthAdjust="spacing" textLength="54" x="715.5" y="520.4426">Null = 0</text><ellipse cx="706.5" cy="533.3928" fill="none" rx="3" ry="3" style="stroke:#038048;stroke-width:1.0;"/><text fill="#000000" font-family="sans-serif" font-size="14" lengthAdjust="spacing" textLength="62" x="715.5" y="536.7395">Load = 1</text><ellipse cx="706.5" cy="549.6897" fill="none" rx="3" ry="3" style="stroke:#038048;stroke-width:1.0;"/><text fill="#000000" font-family="sans-serif" font-size="14" lengthAdjust="spacing" textLength="88" x="715.5" y="553.0364">Dynamic = 2</text><ellipse cx="706.5" cy="565.9866" fill="none" rx="3" ry="3" style="stroke:#038048;stroke-width:1.0;"/><text fill="#000000" font-family="sans-serif" font-size="14" lengthAdjust="spacing" textLength="102" x="715.5" y="569.3332">Interpretor = 3</text><ellipse cx="706.5" cy="582.2834" fill="none" rx="3" ry="3" style="stroke:#038048;stroke-width:1.0;"/><text fill="#000000" font-family="sans-serif" font-size="14" lengthAdjust="spacing" textLength="62" x="715.5" y="585.6301">Note = 4</text><ellipse cx="706.5" cy="598.5803" fill="none" rx="3" ry="3" style="stroke:#038048;stroke-width:1.0;"/><text fill="#000000" font-family="sans-serif" font-size="14" lengthAdjust="spacing" textLength="66" x="715.5" y="601.927">ShLib = 5</text><ellipse cx="706.5" cy="614.8772" fill="none" rx="3" ry="3" style="stroke:#038048;stroke-width:1.0;"/><text fill="#000000" font-family="sans-serif" font-size="14" lengthAdjust="spacing" textLength="62" x="715.5" y="618.2239">PHdr = 6</text><ellipse cx="706.5" cy="631.1741" fill="none" rx="3" ry="3" style="stroke:#038048;stroke-width:1.0;"/><text fill="#000000" font-family="sans-serif" font-size="14" lengthAdjust="spacing" textLength="49" x="715.5" y="634.5207">Tls = 7</text><ellipse cx="706.5" cy="647.4709" fill="#84BE84" rx="3" ry="3" style="stroke:#038048;stroke-width:1.0;"/><text fill="#000000" font-family="sans-serif" font-size="14" lengthAdjust="spacing" textLength="147" x="715.5" y="650.8176">Unknown(value: u32)</text><line style="stroke:#181818;stroke-width:1.0;stroke-dasharray:1.0,2.0;" x1="696.5" x2="768" y1="499.2991" y2="499.2991"/><text fill="#000000" font-family="sans-serif" font-size="14" lengthAdjust="spacing" textLength="71" x="768" y="503.6457">&#171;variants&#187;</text><line style="stroke:#181818;stroke-width:1.0;stroke-dasharray:1.0,2.0;" x1="839" x2="910.5" y1="499.2991" y2="499.2991"/></g><!--class SegmentFlags--><g id="elem_SegmentFlags"><rect codeLine="53" fill="#F1F1F1" height="178.375" id="SegmentFlags" rx="2.5" ry="2.5" style="stroke:#181818;stroke-width:0.5;" width="218" x="946.5" y="439"/><ellipse cx="996.25" cy="455" fill="#F1F1F1" rx="11" ry="11" style="stroke:#181818;stroke-width:1.0;"/><path d="M995.7344,455.5625 Q993.875,454.8594 993.2188,454.0938 Q992.5781,453.3125 992.5781,452 Q992.5781,450.3125 993.6563,449.3438 Q994.7344,448.375 996.6094,448.375 Q997.4688,448.375 998.3125,448.5781 Q999.1719,448.7656 1000.0156,449.1563 L1000.0156,451.5469 Q999.2344,450.9844 998.4063,450.7031 Q997.5938,450.4063 996.7969,450.4063 Q995.9219,450.4063 995.4375,450.7656 Q994.9688,451.125 994.9688,451.7813 Q994.9688,452.2969 995.3125,452.6406 Q995.6563,452.9688 996.75,453.375 L997.8125,453.7813 Q999.2969,454.3281 1000,455.2344 Q1000.7188,456.1406 1000.7188,457.5156 Q1000.7188,459.3906 999.6094,460.3125 Q998.5,461.2344 996.25,461.2344 Q995.3281,461.2344 994.4063,461.0156 Q993.4844,460.7969 992.625,460.375 L992.625,457.8438 Q993.5938,458.5313 994.5156,458.875 Q995.4375,459.2188 996.3281,459.2188 Q997.2344,459.2188 997.7344,458.8125 Q998.2344,458.3906 998.2344,457.6563 Q998.2344,457.0938 997.8906,456.6875 Q997.5625,456.2656 996.9375,456.0156 L995.7344,455.5625 Z " fill="#000000"/><ellipse cx="1021.75" cy="454.5" fill="#84BE84" rx="3" ry="3" style="stroke:#038048;stroke-width:1.0;"/><text fill="#000000" font-family="sans-serif" font-size="14" lengthAdjust="spacing" textLength="99" x="1027.75" y="459.8467">SegmentFlags</text><line style="stroke:#181818;stroke-width:0.5;" x1="947.5" x2="1163.5" y1="471" y2="471"/><ellipse cx="957.5" cy="504.9453" fill="#84BE84" rx="3" ry="3" style="stroke:#038048;stroke-width:1.0;"/><text fill="#000000" font-family="sans-serif" font-size="14" lengthAdjust="spacing" textLength="192" x="966.5" y="508.292">from(v: u32): SegmentFlags</text><ellipse cx="957.5" cy="521.2422" fill="#84BE84" rx="3" ry="3" style="stroke:#038048;stroke-width:1.0;"/><text fill="#000000" font-family="sans-serif" font-size="14" lengthAdjust="spacing" textLength="78" x="966.5" y="524.5889">flags(): u32</text><ellipse cx="957.5" cy="537.5391" fill="#84BE84" rx="3" ry="3" style="stroke:#038048;stroke-width:1.0;"/><text fill="#000000" font-family="sans-serif" font-size="14" lengthAdjust="spacing" textLength="70" x="966.5" y="540.8857">to_string()</text><line style="stroke:#181818;stroke-width:1.0;stroke-dasharray:1.0,2.0;" x1="947.5" x2="1015.5" y1="487.1484" y2="487.1484"/><text fill="#000000" font-family="sans-serif" font-size="14" lengthAdjust="spacing" textLength="80" x="1015.5" y="491.4951">&#171;methods&#187;</text><line style="stroke:#181818;stroke-width:1.0;stroke-dasharray:1.0,2.0;" x1="1095.5" x2="1163.5" y1="487.1484" y2="487.1484"/><ellipse cx="957.5" cy="574.1328" fill="none" rx="3" ry="3" style="stroke:#038048;stroke-width:1.0;"/><text fill="#000000" font-family="sans-serif" font-size="14" lengthAdjust="spacing" textLength="38" x="966.5" y="577.4795">X = 1</text><ellipse cx="957.5" cy="590.4297" fill="none" rx="3" ry="3" style="stroke:#038048;stroke-width:1.0;"/><text fill="#000000" font-family="sans-serif" font-size="14" lengthAdjust="spacing" textLength="42" x="966.5" y="593.7764">W = 2</text><ellipse cx="957.5" cy="606.7266" fill="none" rx="3" ry="3" style="stroke:#038048;stroke-width:1.0;"/><text fill="#000000" font-family="sans-serif" font-size="14" lengthAdjust="spacing" textLength="39" x="966.5" y="610.0732">R = 4</text><line style="stroke:#181818;stroke-width:1.0;stroke-dasharray:1.0,2.0;" x1="947.5" x2="1012" y1="556.3359" y2="556.3359"/><text fill="#000000" font-family="sans-serif" font-size="14" lengthAdjust="spacing" textLength="87" x="1012" y="560.6826">&#171;constants&#187;</text><line style="stroke:#181818;stroke-width:1.0;stroke-dasharray:1.0,2.0;" x1="1099" x2="1163.5" y1="556.3359" y2="556.3359"/></g><!--link ReadElf to ProgramHeaders--><g id="link_ReadElf_ProgramHeaders"><path codeLine="64" d="M290.28,234.78 C320.45,234.78 346.61,234.78 377.76,234.78 " fill="none" id="ReadElf-to-ProgramHeaders" style="stroke:#181818;stroke-width:1.0;"/><polygon fill="#181818" points="383.76,234.78,374.76,230.78,378.76,234.78,374.76,238.78,383.76,234.78" style="stroke:#181818;stroke-width:1.0;"/><text fill="#000000" font-family="sans-serif" font-size="13" lengthAdjust="spacing" textLength="57" x="308.5" y="227.8469">&#171;create&#187;</text></g><!--reverse link Iterator to ProgramHeaders--><g id="link_Iterator_ProgramHeaders"><path codeLine="65" d="M555.5,89.68 C555.5,111.87 555.5,124.61 555.5,153.36 " fill="none" id="Iterator-backto-ProgramHeaders" style="stroke:#181818;stroke-width:1.0;stroke-dasharray:7.0,7.0;"/><polygon fill="none" points="555.5,71.68,549.5,89.68,561.5,89.68,555.5,71.68" style="stroke:#181818;stroke-width:1.0;"/></g><!--link ProgramHeaders to ProgramHeader--><g id="link_ProgramHeaders_ProgramHeader"><path codeLine="66" d="M727.45,234.78 C759.11,234.78 785.34,234.78 814.5,234.78 " fill="none" id="ProgramHeaders-to-ProgramHeader" style="stroke:#181818;stroke-width:1.0;"/><polygon fill="#181818" points="820.5,234.78,811.5,230.78,815.5,234.78,811.5,238.78,820.5,234.78" style="stroke:#181818;stroke-width:1.0;"/><text fill="#000000" font-family="sans-serif" font-size="13" lengthAdjust="spacing" textLength="57" x="745.5" y="227.8469">&#171;create&#187;</text></g><!--reverse link ProgramHeader to SegmentType--><g id="link_ProgramHeader_SegmentType"><path codeLine="67" d="M880.3169,349.5342 C872.0269,368.7042 868.03,377.95 859.44,397.81 " fill="none" id="ProgramHeader-backto-SegmentType" style="stroke:#181818;stroke-width:1.0;"/><polygon fill="#181818" points="885.08,338.52,879.0271,342.4394,880.3169,349.5342,886.3699,345.6148,885.08,338.52" style="stroke:#181818;stroke-width:1.0;"/></g><!--reverse link ProgramHeader to SegmentFlags--><g id="link_ProgramHeader_SegmentFlags"><path codeLine="68" d="M978.6827,349.5344 C992.8527,382.3044 1003.64,407.25 1017.33,438.9 " fill="none" id="ProgramHeader-backto-SegmentFlags" style="stroke:#181818;stroke-width:1.0;"/><polygon fill="#181818" points="973.92,338.52,972.6299,345.6148,978.6827,349.5344,979.9728,342.4396,973.92,338.52" style="stroke:#181818;stroke-width:1.0;"/></g><!--SRC=[dLJBRjim4BphAtWAvAeocgHD0SFMgIqI86Y3E4Lo4nXfPHFbGo0fD-hZtxiaPKlo8uVw87XcTfVSMP89anPqHGiWD_Y7MgN9xuZWBv7mOkCpqLXYW5UJ6VbMMwRaV8beDiDeaKL_eoWnLZU59VT0oy-ywhAdKpAVLmnuQR8CaIVJMgkLfY9VOopeN5ML0JiZpTNxexfXlm3LywkZQg4QQNlPhoZ0hjLmoMISP6BiuovGru4PzZ1Mvgx7nOZBXkrj3HkiTigpSP4GwxhBr-X_VDO5nutZtcwJFCechtN7GUwoVNYWcSb1rBRTQSzAyKwI9Rp4_jkbdDpbAMCw3moi14YRsxR6AIq3Ua3WrOhJbTdHNnmAFEDmCFWDqxQXFATbgS6ONgZNhM75CSNNwGv8HmaGIhTx9ELi9TqMUkgub-YPZuKotXhc303PY65pmmDmE8zAAn5lSAdBYycX9ubLEHhAv2eUJ7L3DQFI3ijyRJWd2_8ke5j5IqJd0Nrg9HMiGE8Y43Vk1jSQtDLTaCkkWhA0A3ISBDUtx1dXXm3lhaiN6kvDyi0DWey1V9S_fFefumtb3OG-XkTWECx_SA8_1ea_7yvf37Z5d499O_VSUUhDUEnjkFVjubwt3r6gqsplHfEPAwc1MiYoQFVWpVzCo-d-ix2NULXjN6milKdBT3J-qxBtv1y0]--></g></svg>