<svg xmlns="http://www.w3.org/2000/svg" xmlns:xlink="http://www.w3.org/1999/xlink" contentStyleType="text/css" height="891px" preserveAspectRatio="none" style="width:1276px;height:891px;background:#FFFFFF;" version="1.1" viewBox="0 0 1276 891" width="1276px" zoomAndPan="magnify"><defs/><g><!--class Iterator--><g id="elem_Iterator"><rect codeLine="2" fill="#F1F1F1" height="64.2969" id="Iterator" rx="2.5" ry="2.5" style="stroke:#181818;stroke-width:0.5;" width="277" x="400.5" y="7"/><ellipse cx="504.75" cy="23" fill="#B4A7E5" rx="11" ry="11" style="stroke:#181818;stroke-width:1.0;"/><path d="M500.6719,18.7656 L500.6719,16.6094 L508.0625,16.6094 L508.0625,18.7656 L505.5938,18.7656 L505.5938,26.8438 L508.0625,26.8438 L508.0625,29 L500.6719,29 L500.6719,26.8438 L503.1406,26.8438 L503.1406,18.7656 L500.6719,18.7656 Z " fill="#000000"/><ellipse cx="530.25" cy="22.5" fill="#84BE84" rx="3" ry="3" style="stroke:#038048;stroke-width:1.0;"/><text fill="#000000" font-family="sans-serif" font-size="14" font-style="italic" lengthAdjust="spacing" textLength="49" x="536.25" y="27.8467">Iterator</text><line style="stroke:#181818;stroke-width:0.5;" x1="401.5" x2="676.5" y1="39" y2="39"/><line style="stroke:#181818;stroke-width:0.5;" x1="401.5" x2="676.5" y1="47" y2="47"/><ellipse cx="411.5" cy="60.6484" fill="#84BE84" rx="3" ry="3" style="stroke:#038048;stroke-width:1.0;"/><text fill="#000000" font-family="sans-serif" font-size="14" lengthAdjust="spacing" textLength="251" x="420.5" y="63.9951">next(&amp;mut self): Option&lt;Self::Item&gt;</text></g><!--class ReadElf--><g id="elem_ReadElf"><rect codeLine="6" fill="#F1F1F1" height="162.0781" id="ReadElf" rx="2.5" ry="2.5" style="stroke:#181818;stroke-width:0.5;" width="270" x="7" y="188.34"/><ellipse cx="106.25" cy="204.34" fill="#F1F1F1" rx="11" ry="11" style="stroke:#181818;stroke-width:1.0;"/><path d="M105.7344,204.9025 Q103.875,204.1994 103.2188,203.4338 Q102.5781,202.6525 102.5781,201.34 Q102.5781,199.6525 103.6563,198.6838 Q104.7344,197.715 106.6094,197.715 Q107.4688,197.715 108.3125,197.9181 Q109.1719,198.1056 110.0156,198.4963 L110.0156,200.8869 Q109.2344,200.3244 108.4063,200.0431 Q107.5938,199.7463 106.7969,199.7463 Q105.9219,199.7463 105.4375,200.1056 Q104.9688,200.465 104.9688,201.1213 Q104.9688,201.6369 105.3125,201.9806 Q105.6563,202.3088 106.75,202.715 L107.8125,203.1213 Q109.2969,203.6681 110,204.5744 Q110.7188,205.4806 110.7188,206.8556 Q110.7188,208.7306 109.6094,209.6525 Q108.5,210.5744 106.25,210.5744 Q105.3281,210.5744 104.4063,210.3556 Q103.4844,210.1369 102.625,209.715 L102.625,207.1838 Q103.5938,207.8713 104.5156,208.215 Q105.4375,208.5588 106.3281,208.5588 Q107.2344,208.5588 107.7344,208.1525 Q108.2344,207.7306 108.2344,206.9963 Q108.2344,206.4338 107.8906,206.0275 Q107.5625,205.6056 106.9375,205.3556 L105.7344,204.9025 Z " fill="#000000"/><ellipse cx="131.75" cy="203.84" fill="#84BE84" rx="3" ry="3" style="stroke:#038048;stroke-width:1.0;"/><text fill="#000000" font-family="sans-serif" font-size="14" lengthAdjust="spacing" textLength="52" x="137.75" y="209.1867">ReadElf</text><line style="stroke:#181818;stroke-width:0.5;" x1="8" x2="276" y1="220.34" y2="220.34"/><rect fill="none" height="6" style="stroke:#C82930;stroke-width:1.0;" width="6" x="15" y="251.2853"/><text fill="#000000" font-family="sans-serif" font-size="14" lengthAdjust="spacing" textLength="189" x="27" y="257.632">section_header_offset: u64</text><rect fill="none" height="6" style="stroke:#C82930;stroke-width:1.0;" width="6" x="15" y="267.5822"/><text fill="#000000" font-family="sans-serif" font-size="14" lengthAdjust="spacing" textLength="178" x="27" y="273.9289">section_header_size: u16</text><rect fill="none" height="6" style="stroke:#C82930;stroke-width:1.0;" width="6" x="15" y="283.8791"/><text fill="#000000" font-family="sans-serif" font-size="14" lengthAdjust="spacing" textLength="190" x="27" y="290.2257">section_header_count: u16</text><rect fill="none" height="6" style="stroke:#C82930;stroke-width:1.0;" width="6" x="15" y="300.1759"/><text fill="#000000" font-family="sans-serif" font-size="14" lengthAdjust="spacing" textLength="177" x="27" y="306.5226">string_section_index: u16</text><line style="stroke:#181818;stroke-width:1.0;stroke-dasharray:1.0,2.0;" x1="8" x2="115" y1="236.4884" y2="236.4884"/><text fill="#000000" font-family="sans-serif" font-size="14" lengthAdjust="spacing" textLength="54" x="115" y="240.8351">&#171;fields&#187;</text><line style="stroke:#181818;stroke-width:1.0;stroke-dasharray:1.0,2.0;" x1="169" x2="276" y1="236.4884" y2="236.4884"/><ellipse cx="18" cy="339.7697" fill="#84BE84" rx="3" ry="3" style="stroke:#038048;stroke-width:1.0;"/><text fill="#000000" font-family="sans-serif" font-size="14" lengthAdjust="spacing" textLength="244" x="27" y="343.1164">section_headers(): SectionHeaders</text><line style="stroke:#181818;stroke-width:1.0;stroke-dasharray:1.0,2.0;" x1="8" x2="102" y1="321.9728" y2="321.9728"/><text fill="#000000" font-family="sans-serif" font-size="14" lengthAdjust="spacing" textLength="80" x="102" y="326.3195">&#171;methods&#187;</text><line style="stroke:#181818;stroke-width:1.0;stroke-dasharray:1.0,2.0;" x1="182" x2="276" y1="321.9728" y2="321.9728"/></g><!--class SectionHeaders--><g id="elem_SectionHeaders"><rect codeLine="16" fill="#F1F1F1" height="198.6719" id="SectionHeaders" rx="2.5" ry="2.5" style="stroke:#181818;stroke-width:0.5;" width="337" x="370.5" y="170.04"/><ellipse cx="408" cy="186.04" fill="#F1F1F1" rx="11" ry="11" style="stroke:#181818;stroke-width:1.0;"/><path d="M407.4844,186.6025 Q405.625,185.8994 404.9688,185.1338 Q404.3281,184.3525 404.3281,183.04 Q404.3281,181.3525 405.4063,180.3838 Q406.4844,179.415 408.3594,179.415 Q409.2188,179.415 410.0625,179.6181 Q410.9219,179.8056 411.7656,180.1963 L411.7656,182.5869 Q410.9844,182.0244 410.1563,181.7431 Q409.3438,181.4463 408.5469,181.4463 Q407.6719,181.4463 407.1875,181.8056 Q406.7188,182.165 406.7188,182.8213 Q406.7188,183.3369 407.0625,183.6806 Q407.4063,184.0088 408.5,184.415 L409.5625,184.8213 Q411.0469,185.3681 411.75,186.2744 Q412.4688,187.1806 412.4688,188.5556 Q412.4688,190.4306 411.3594,191.3525 Q410.25,192.2744 408,192.2744 Q407.0781,192.2744 406.1563,192.0556 Q405.2344,191.8369 404.375,191.415 L404.375,188.8838 Q405.3438,189.5713 406.2656,189.915 Q407.1875,190.2588 408.0781,190.2588 Q408.9844,190.2588 409.4844,189.8525 Q409.9844,189.4306 409.9844,188.6963 Q409.9844,188.1338 409.6406,187.7275 Q409.3125,187.3056 408.6875,187.0556 L407.4844,186.6025 Z " fill="#000000"/><ellipse cx="432" cy="185.54" fill="#84BE84" rx="3" ry="3" style="stroke:#038048;stroke-width:1.0;"/><text fill="#000000" font-family="sans-serif" font-size="14" lengthAdjust="spacing" textLength="110" x="438" y="190.8867">SectionHeaders</text><rect fill="#FFFFFF" height="15.9688" style="stroke:#181818;stroke-width:1.0;stroke-dasharray:2.0,2.0;" width="132" x="578.5" y="167.04"/><text fill="#000000" font-family="sans-serif" font-size="12" font-style="italic" lengthAdjust="spacing" textLength="130" x="579.5" y="179.1787">Item=SectionHeader</text><line style="stroke:#181818;stroke-width:0.5;" x1="371.5" x2="706.5" y1="202.04" y2="202.04"/><polygon fill="#FFFF44" points="381.5,230.9853,385.5,234.9853,381.5,238.9853,377.5,234.9853" style="stroke:#B38D22;stroke-width:1.0;"/><text fill="#000000" font-family="sans-serif" font-size="14" lengthAdjust="spacing" textLength="247" x="390.5" y="239.332">new(elf: &amp;ReadElf): SectionHeaders</text><line style="stroke:#181818;stroke-width:1.0;stroke-dasharray:1.0,2.0;" x1="371.5" x2="489" y1="218.1884" y2="218.1884"/><text fill="#000000" font-family="sans-serif" font-size="14" lengthAdjust="spacing" textLength="100" x="489" y="222.5351">&#171;Constructor&#187;</text><line style="stroke:#181818;stroke-width:1.0;stroke-dasharray:1.0,2.0;" x1="589" x2="706.5" y1="218.1884" y2="218.1884"/><ellipse cx="381.5" cy="272.5791" fill="#84BE84" rx="3" ry="3" style="stroke:#038048;stroke-width:1.0;"/><text fill="#000000" font-family="sans-serif" font-size="14" lengthAdjust="spacing" textLength="288" x="390.5" y="275.9257">next(&amp;mut self): Option&lt;SectionHeader&gt;</text><ellipse cx="381.5" cy="288.8759" fill="#84BE84" rx="3" ry="3" style="stroke:#038048;stroke-width:1.0;"/><text fill="#000000" font-family="sans-serif" font-size="14" lengthAdjust="spacing" textLength="278" x="390.5" y="292.2226">size_hint(&amp;self): (usize, Option&lt;usize&gt;)</text><line style="stroke:#181818;stroke-width:1.0;stroke-dasharray:1.0,2.0;" x1="371.5" x2="505.5" y1="254.7822" y2="254.7822"/><text fill="#000000" font-family="sans-serif" font-size="14" lengthAdjust="spacing" textLength="67" x="505.5" y="259.1289">&#171;Iterator&#187;</text><line style="stroke:#181818;stroke-width:1.0;stroke-dasharray:1.0,2.0;" x1="572.5" x2="706.5" y1="254.7822" y2="254.7822"/><ellipse cx="381.5" cy="325.4697" fill="#84BE84" rx="3" ry="3" style="stroke:#038048;stroke-width:1.0;"/><text fill="#000000" font-family="sans-serif" font-size="14" lengthAdjust="spacing" textLength="113" x="390.5" y="328.8164">len(&amp;self): usize</text><ellipse cx="381.5" cy="341.7666" fill="#84BE84" rx="3" ry="3" style="stroke:#038048;stroke-width:1.0;"/><text fill="#000000" font-family="sans-serif" font-size="14" lengthAdjust="spacing" textLength="146" x="390.5" y="345.1132">is_empty(&amp;self): bool</text><ellipse cx="381.5" cy="358.0634" fill="#84BE84" rx="3" ry="3" style="stroke:#038048;stroke-width:1.0;"/><text fill="#000000" font-family="sans-serif" font-size="14" lengthAdjust="spacing" textLength="311" x="390.5" y="361.4101">index(index: usize): Option&lt;SectionHeader&gt;</text><line style="stroke:#181818;stroke-width:1.0;stroke-dasharray:1.0,2.0;" x1="371.5" x2="499" y1="307.6728" y2="307.6728"/><text fill="#000000" font-family="sans-serif" font-size="14" lengthAdjust="spacing" textLength="80" x="499" y="312.0195">&#171;methods&#187;</text><line style="stroke:#181818;stroke-width:1.0;stroke-dasharray:1.0,2.0;" x1="579" x2="706.5" y1="307.6728" y2="307.6728"/></g><!--class SectionHeader--><g id="elem_SectionHeader"><rect codeLine="28" fill="#F1F1F1" height="276.1563" id="SectionHeader" rx="2.5" ry="2.5" style="stroke:#181818;stroke-width:0.5;" width="468" x="801" y="131.3"/><ellipse cx="974.25" cy="147.3" fill="#F1F1F1" rx="11" ry="11" style="stroke:#181818;stroke-width:1.0;"/><path d="M973.7344,147.8625 Q971.875,147.1594 971.2188,146.3938 Q970.5781,145.6125 970.5781,144.3 Q970.5781,142.6125 971.6563,141.6438 Q972.7344,140.675 974.6094,140.675 Q975.4688,140.675 976.3125,140.8781 Q977.1719,141.0656 978.0156,141.4563 L978.0156,143.8469 Q977.2344,143.2844 976.4063,143.0031 Q975.5938,142.7063 974.7969,142.7063 Q973.9219,142.7063 973.4375,143.0656 Q972.9688,143.425 972.9688,144.0813 Q972.9688,144.5969 973.3125,144.9406 Q973.6563,145.2688 974.75,145.675 L975.8125,146.0813 Q977.2969,146.6281 978,147.5344 Q978.7188,148.4406 978.7188,149.8156 Q978.7188,151.6906 977.6094,152.6125 Q976.5,153.5344 974.25,153.5344 Q973.3281,153.5344 972.4063,153.3156 Q971.4844,153.0969 970.625,152.675 L970.625,150.1438 Q971.5938,150.8313 972.5156,151.175 Q973.4375,151.5188 974.3281,151.5188 Q975.2344,151.5188 975.7344,151.1125 Q976.2344,150.6906 976.2344,149.9563 Q976.2344,149.3938 975.8906,148.9875 Q975.5625,148.5656 974.9375,148.3156 L973.7344,147.8625 Z " fill="#000000"/><ellipse cx="999.75" cy="146.8" fill="#84BE84" rx="3" ry="3" style="stroke:#038048;stroke-width:1.0;"/><text fill="#000000" font-family="sans-serif" font-size="14" lengthAdjust="spacing" textLength="102" x="1005.75" y="152.1467">SectionHeader</text><line style="stroke:#181818;stroke-width:0.5;" x1="802" x2="1268" y1="163.3" y2="163.3"/><polygon fill="#FFFF44" points="812,200.3938,816,204.3938,812,208.3938,808,204.3938" style="stroke:#B38D22;stroke-width:1.0;"/><text fill="#000000" font-family="sans-serif" font-size="14" lengthAdjust="spacing" textLength="442" x="821" y="200.592">new(elf: &amp;ReadElf; index: u16; strings: Option&lt;StringSection&gt;):</text><text fill="#000000" font-family="sans-serif" font-size="14" lengthAdjust="spacing" textLength="172" x="825" y="216.8889">Option&lt;SectionHeader&gt;</text><line style="stroke:#181818;stroke-width:1.0;stroke-dasharray:1.0,2.0;" x1="802" x2="985" y1="179.4484" y2="179.4484"/><text fill="#000000" font-family="sans-serif" font-size="14" lengthAdjust="spacing" textLength="100" x="985" y="183.7951">&#171;Constructor&#187;</text><line style="stroke:#181818;stroke-width:1.0;stroke-dasharray:1.0,2.0;" x1="1085" x2="1268" y1="179.4484" y2="179.4484"/><ellipse cx="812" cy="250.1359" fill="none" rx="3" ry="3" style="stroke:#038048;stroke-width:1.0;"/><text fill="#000000" font-family="sans-serif" font-size="14" lengthAdjust="spacing" textLength="158" x="821" y="253.4826">name: Option&lt;String&gt;</text><ellipse cx="812" cy="266.4328" fill="none" rx="3" ry="3" style="stroke:#038048;stroke-width:1.0;"/><text fill="#000000" font-family="sans-serif" font-size="14" lengthAdjust="spacing" textLength="183" x="821" y="269.7795">section_type: SectionType</text><ellipse cx="812" cy="282.7297" fill="none" rx="3" ry="3" style="stroke:#038048;stroke-width:1.0;"/><text fill="#000000" font-family="sans-serif" font-size="14" lengthAdjust="spacing" textLength="129" x="821" y="286.0764">flags: SectionFlags</text><ellipse cx="812" cy="299.0266" fill="none" rx="3" ry="3" style="stroke:#038048;stroke-width:1.0;"/><text fill="#000000" font-family="sans-serif" font-size="14" lengthAdjust="spacing" textLength="139" x="821" y="302.3732">virtual_address: u64</text><ellipse cx="812" cy="315.3234" fill="none" rx="3" ry="3" style="stroke:#038048;stroke-width:1.0;"/><text fill="#000000" font-family="sans-serif" font-size="14" lengthAdjust="spacing" textLength="101" x="821" y="318.6701">file_offset: u64</text><ellipse cx="812" cy="331.6203" fill="none" rx="3" ry="3" style="stroke:#038048;stroke-width:1.0;"/><text fill="#000000" font-family="sans-serif" font-size="14" lengthAdjust="spacing" textLength="90" x="821" y="334.967">file_size: u64</text><ellipse cx="812" cy="347.9172" fill="none" rx="3" ry="3" style="stroke:#038048;stroke-width:1.0;"/><text fill="#000000" font-family="sans-serif" font-size="14" lengthAdjust="spacing" textLength="117" x="821" y="351.2639">section_link: u32</text><ellipse cx="812" cy="364.2141" fill="none" rx="3" ry="3" style="stroke:#038048;stroke-width:1.0;"/><text fill="#000000" font-family="sans-serif" font-size="14" lengthAdjust="spacing" textLength="119" x="821" y="367.5607">section_info: u32</text><ellipse cx="812" cy="380.5109" fill="none" rx="3" ry="3" style="stroke:#038048;stroke-width:1.0;"/><text fill="#000000" font-family="sans-serif" font-size="14" lengthAdjust="spacing" textLength="104" x="821" y="383.8576">alignment: u64</text><ellipse cx="812" cy="396.8078" fill="none" rx="3" ry="3" style="stroke:#038048;stroke-width:1.0;"/><text fill="#000000" font-family="sans-serif" font-size="14" lengthAdjust="spacing" textLength="106" x="821" y="400.1545">entry_size: u64</text><line style="stroke:#181818;stroke-width:1.0;stroke-dasharray:1.0,2.0;" x1="802" x2="1008" y1="232.3391" y2="232.3391"/><text fill="#000000" font-family="sans-serif" font-size="14" lengthAdjust="spacing" textLength="54" x="1008" y="236.6857">&#171;fields&#187;</text><line style="stroke:#181818;stroke-width:1.0;stroke-dasharray:1.0,2.0;" x1="1062" x2="1268" y1="232.3391" y2="232.3391"/></g><!--class SectionType--><g id="elem_SectionType"><rect codeLine="44" fill="#F1F1F1" height="417.125" id="SectionType" rx="2.5" ry="2.5" style="stroke:#181818;stroke-width:0.5;" width="205" x="1012.5" y="467.45"/><ellipse cx="1062.25" cy="488.7469" fill="#EB937F" rx="11" ry="11" style="stroke:#181818;stroke-width:1.0;"/><path d="M1066.3594,494.7469 L1058.6406,494.7469 L1058.6406,482.3563 L1066.3594,482.3563 L1066.3594,484.5125 L1061.0938,484.5125 L1061.0938,487.1844 L1065.8594,487.1844 L1065.8594,489.3406 L1061.0938,489.3406 L1061.0938,492.5906 L1066.3594,492.5906 L1066.3594,494.7469 Z " fill="#000000"/><ellipse cx="1087.75" cy="488.2469" fill="#84BE84" rx="3" ry="3" style="stroke:#038048;stroke-width:1.0;"/><text fill="#000000" font-family="sans-serif" font-size="14" lengthAdjust="spacing" textLength="86" x="1093.75" y="485.4451">SectionType</text><text fill="#000000" font-family="sans-serif" font-size="14" lengthAdjust="spacing" textLength="52" x="1110.75" y="501.742">(SHT_*)</text><line style="stroke:#181818;stroke-width:0.5;" x1="1013.5" x2="1216.5" y1="510.0438" y2="510.0438"/><ellipse cx="1023.5" cy="543.9891" fill="#84BE84" rx="3" ry="3" style="stroke:#038048;stroke-width:1.0;"/><text fill="#000000" font-family="sans-serif" font-size="14" lengthAdjust="spacing" textLength="179" x="1032.5" y="547.3357">from(v: u32): SectionType</text><ellipse cx="1023.5" cy="560.2859" fill="#84BE84" rx="3" ry="3" style="stroke:#038048;stroke-width:1.0;"/><text fill="#000000" font-family="sans-serif" font-size="14" lengthAdjust="spacing" textLength="70" x="1032.5" y="563.6326">to_string()</text><line style="stroke:#181818;stroke-width:1.0;stroke-dasharray:1.0,2.0;" x1="1013.5" x2="1075" y1="526.1922" y2="526.1922"/><text fill="#000000" font-family="sans-serif" font-size="14" lengthAdjust="spacing" textLength="80" x="1075" y="530.5389">&#171;methods&#187;</text><line style="stroke:#181818;stroke-width:1.0;stroke-dasharray:1.0,2.0;" x1="1155" x2="1216.5" y1="526.1922" y2="526.1922"/><ellipse cx="1023.5" cy="596.8797" fill="none" rx="3" ry="3" style="stroke:#038048;stroke-width:1.0;"/><text fill="#000000" font-family="sans-serif" font-size="14" lengthAdjust="spacing" textLength="54" x="1032.5" y="600.2264">Null = 0</text><ellipse cx="1023.5" cy="613.1766" fill="none" rx="3" ry="3" style="stroke:#038048;stroke-width:1.0;"/><text fill="#000000" font-family="sans-serif" font-size="14" lengthAdjust="spacing" textLength="87" x="1032.5" y="616.5232">ProgBits = 1</text><ellipse cx="1023.5" cy="629.4734" fill="none" rx="3" ry="3" style="stroke:#038048;stroke-width:1.0;"/><text fill="#000000" font-family="sans-serif" font-size="14" lengthAdjust="spacing" textLength="84" x="1032.5" y="632.8201">SymTab = 2</text><ellipse cx="1023.5" cy="645.7703" fill="none" rx="3" ry="3" style="stroke:#038048;stroke-width:1.0;"/><text fill="#000000" font-family="sans-serif" font-size="14" lengthAdjust="spacing" textLength="74" x="1032.5" y="649.117">StrTab = 3</text><ellipse cx="1023.5" cy="662.0672" fill="none" rx="3" ry="3" style="stroke:#038048;stroke-width:1.0;"/><text fill="#000000" font-family="sans-serif" font-size="14" lengthAdjust="spacing" textLength="60" x="1032.5" y="665.4139">RelA = 4</text><ellipse cx="1023.5" cy="678.3641" fill="none" rx="3" ry="3" style="stroke:#038048;stroke-width:1.0;"/><text fill="#000000" font-family="sans-serif" font-size="14" lengthAdjust="spacing" textLength="64" x="1032.5" y="681.7107">Hash = 5</text><ellipse cx="1023.5" cy="694.6609" fill="none" rx="3" ry="3" style="stroke:#038048;stroke-width:1.0;"/><text fill="#000000" font-family="sans-serif" font-size="14" lengthAdjust="spacing" textLength="88" x="1032.5" y="698.0076">Dynamic = 6</text><ellipse cx="1023.5" cy="710.9578" fill="none" rx="3" ry="3" style="stroke:#038048;stroke-width:1.0;"/><text fill="#000000" font-family="sans-serif" font-size="14" lengthAdjust="spacing" textLength="62" x="1032.5" y="714.3045">Note = 7</text><ellipse cx="1023.5" cy="727.2547" fill="none" rx="3" ry="3" style="stroke:#038048;stroke-width:1.0;"/><text fill="#000000" font-family="sans-serif" font-size="14" lengthAdjust="spacing" textLength="74" x="1032.5" y="730.6014">NoBits = 8</text><ellipse cx="1023.5" cy="743.5516" fill="none" rx="3" ry="3" style="stroke:#038048;stroke-width:1.0;"/><text fill="#000000" font-family="sans-serif" font-size="14" lengthAdjust="spacing" textLength="51" x="1032.5" y="746.8982">Rel = 9</text><ellipse cx="1023.5" cy="759.8484" fill="none" rx="3" ry="3" style="stroke:#038048;stroke-width:1.0;"/><text fill="#000000" font-family="sans-serif" font-size="14" lengthAdjust="spacing" textLength="75" x="1032.5" y="763.1951">ShLib = 10</text><ellipse cx="1023.5" cy="776.1453" fill="none" rx="3" ry="3" style="stroke:#038048;stroke-width:1.0;"/><text fill="#000000" font-family="sans-serif" font-size="14" lengthAdjust="spacing" textLength="94" x="1032.5" y="779.492">DynSym = 11</text><ellipse cx="1023.5" cy="792.4422" fill="none" rx="3" ry="3" style="stroke:#038048;stroke-width:1.0;"/><text fill="#000000" font-family="sans-serif" font-size="14" lengthAdjust="spacing" textLength="92" x="1032.5" y="795.7889">InitArray = 14</text><ellipse cx="1023.5" cy="808.7391" fill="none" rx="3" ry="3" style="stroke:#038048;stroke-width:1.0;"/><text fill="#000000" font-family="sans-serif" font-size="14" lengthAdjust="spacing" textLength="95" x="1032.5" y="812.0857">FiniArray = 15</text><ellipse cx="1023.5" cy="825.0359" fill="none" rx="3" ry="3" style="stroke:#038048;stroke-width:1.0;"/><text fill="#000000" font-family="sans-serif" font-size="14" lengthAdjust="spacing" textLength="115" x="1032.5" y="828.3826">PreInitArray = 16</text><ellipse cx="1023.5" cy="841.3328" fill="none" rx="3" ry="3" style="stroke:#038048;stroke-width:1.0;"/><text fill="#000000" font-family="sans-serif" font-size="14" lengthAdjust="spacing" textLength="81" x="1032.5" y="844.6795">Group = 17</text><ellipse cx="1023.5" cy="857.6297" fill="none" rx="3" ry="3" style="stroke:#038048;stroke-width:1.0;"/><text fill="#000000" font-family="sans-serif" font-size="14" lengthAdjust="spacing" textLength="130" x="1032.5" y="860.9764">SymTabIndex = 18</text><ellipse cx="1023.5" cy="873.9266" fill="#84BE84" rx="3" ry="3" style="stroke:#038048;stroke-width:1.0;"/><text fill="#000000" font-family="sans-serif" font-size="14" lengthAdjust="spacing" textLength="147" x="1032.5" y="877.2732">Unknown(value: u32)</text><line style="stroke:#181818;stroke-width:1.0;stroke-dasharray:1.0,2.0;" x1="1013.5" x2="1079.5" y1="579.0828" y2="579.0828"/><text fill="#000000" font-family="sans-serif" font-size="14" lengthAdjust="spacing" textLength="71" x="1079.5" y="583.4295">&#171;variants&#187;</text><line style="stroke:#181818;stroke-width:1.0;stroke-dasharray:1.0,2.0;" x1="1150.5" x2="1216.5" y1="579.0828" y2="579.0828"/></g><!--class SectionFlags--><g id="elem_SectionFlags"><rect codeLine="69" fill="#F1F1F1" height="335.6406" id="SectionFlags" rx="2.5" ry="2.5" style="stroke:#181818;stroke-width:0.5;" width="288" x="690" y="508.2"/><ellipse cx="780.25" cy="529.4969" fill="#F1F1F1" rx="11" ry="11" style="stroke:#181818;stroke-width:1.0;"/><path d="M779.7344,530.0594 Q777.875,529.3563 777.2188,528.5906 Q776.5781,527.8094 776.5781,526.4969 Q776.5781,524.8094 777.6563,523.8406 Q778.7344,522.8719 780.6094,522.8719 Q781.4688,522.8719 782.3125,523.075 Q783.1719,523.2625 784.0156,523.6531 L784.0156,526.0438 Q783.2344,525.4813 782.4063,525.2 Q781.5938,524.9031 780.7969,524.9031 Q779.9219,524.9031 779.4375,525.2625 Q778.9688,525.6219 778.9688,526.2781 Q778.9688,526.7938 779.3125,527.1375 Q779.6563,527.4656 780.75,527.8719 L781.8125,528.2781 Q783.2969,528.825 784,529.7313 Q784.7188,530.6375 784.7188,532.0125 Q784.7188,533.8875 783.6094,534.8094 Q782.5,535.7313 780.25,535.7313 Q779.3281,535.7313 778.4063,535.5125 Q777.4844,535.2938 776.625,534.8719 L776.625,532.3406 Q777.5938,533.0281 778.5156,533.3719 Q779.4375,533.7156 780.3281,533.7156 Q781.2344,533.7156 781.7344,533.3094 Q782.2344,532.8875 782.2344,532.1531 Q782.2344,531.5906 781.8906,531.1844 Q781.5625,530.7625 780.9375,530.5125 L779.7344,530.0594 Z " fill="#000000"/><ellipse cx="805.75" cy="528.9969" fill="#84BE84" rx="3" ry="3" style="stroke:#038048;stroke-width:1.0;"/><text fill="#000000" font-family="sans-serif" font-size="14" lengthAdjust="spacing" textLength="88" x="811.75" y="526.1951">SectionFlags</text><text fill="#000000" font-family="sans-serif" font-size="14" lengthAdjust="spacing" textLength="51" x="830.25" y="542.492">(SHF_*)</text><line style="stroke:#181818;stroke-width:0.5;" x1="691" x2="977" y1="550.7938" y2="550.7938"/><ellipse cx="701" cy="584.7391" fill="#84BE84" rx="3" ry="3" style="stroke:#038048;stroke-width:1.0;"/><text fill="#000000" font-family="sans-serif" font-size="14" lengthAdjust="spacing" textLength="181" x="710" y="588.0857">from(v: u64): SectionFlags</text><ellipse cx="701" cy="601.0359" fill="#84BE84" rx="3" ry="3" style="stroke:#038048;stroke-width:1.0;"/><text fill="#000000" font-family="sans-serif" font-size="14" lengthAdjust="spacing" textLength="78" x="710" y="604.3826">flags(): u64</text><ellipse cx="701" cy="617.3328" fill="#84BE84" rx="3" ry="3" style="stroke:#038048;stroke-width:1.0;"/><text fill="#000000" font-family="sans-serif" font-size="14" lengthAdjust="spacing" textLength="70" x="710" y="620.6795">to_string()</text><line style="stroke:#181818;stroke-width:1.0;stroke-dasharray:1.0,2.0;" x1="691" x2="794" y1="566.9422" y2="566.9422"/><text fill="#000000" font-family="sans-serif" font-size="14" lengthAdjust="spacing" textLength="80" x="794" y="571.2889">&#171;methods&#187;</text><line style="stroke:#181818;stroke-width:1.0;stroke-dasharray:1.0,2.0;" x1="874" x2="977" y1="566.9422" y2="566.9422"/><ellipse cx="701" cy="653.9266" fill="none" rx="3" ry="3" style="stroke:#038048;stroke-width:1.0;"/><text fill="#000000" font-family="sans-serif" font-size="14" lengthAdjust="spacing" textLength="152" x="710" y="657.2732">WRITE = 0x00000001</text><ellipse cx="701" cy="670.2234" fill="none" rx="3" ry="3" style="stroke:#038048;stroke-width:1.0;"/><text fill="#000000" font-family="sans-serif" font-size="14" lengthAdjust="spacing" textLength="152" x="710" y="673.5701">ALLOC = 0x00000002</text><ellipse cx="701" cy="686.5203" fill="none" rx="3" ry="3" style="stroke:#038048;stroke-width:1.0;"/><text fill="#000000" font-family="sans-serif" font-size="14" lengthAdjust="spacing" textLength="186" x="710" y="689.867">EXECINSTR = 0x00000004</text><ellipse cx="701" cy="702.8172" fill="none" rx="3" ry="3" style="stroke:#038048;stroke-width:1.0;"/><text fill="#000000" font-family="sans-serif" font-size="14" lengthAdjust="spacing" textLength="159" x="710" y="706.1639">MERGE = 0x00000010</text><ellipse cx="701" cy="719.1141" fill="none" rx="3" ry="3" style="stroke:#038048;stroke-width:1.0;"/><text fill="#000000" font-family="sans-serif" font-size="14" lengthAdjust="spacing" textLength="169" x="710" y="722.4607">STRINGS = 0x00000020</text><ellipse cx="701" cy="735.4109" fill="none" rx="3" ry="3" style="stroke:#038048;stroke-width:1.0;"/><text fill="#000000" font-family="sans-serif" font-size="14" lengthAdjust="spacing" textLength="176" x="710" y="738.7576">INFO_LINK = 0x00000040</text><ellipse cx="701" cy="751.7078" fill="none" rx="3" ry="3" style="stroke:#038048;stroke-width:1.0;"/><text fill="#000000" font-family="sans-serif" font-size="14" lengthAdjust="spacing" textLength="195" x="710" y="755.0545">LINK_ORDER = 0x00000080</text><ellipse cx="701" cy="768.0047" fill="none" rx="3" ry="3" style="stroke:#038048;stroke-width:1.0;"/><text fill="#000000" font-family="sans-serif" font-size="14" lengthAdjust="spacing" textLength="262" x="710" y="771.3514">OS_NONCONFORMING = 0x00000100</text><ellipse cx="701" cy="784.3016" fill="none" rx="3" ry="3" style="stroke:#038048;stroke-width:1.0;"/><text fill="#000000" font-family="sans-serif" font-size="14" lengthAdjust="spacing" textLength="159" x="710" y="787.6482">GROUP = 0x00000200</text><ellipse cx="701" cy="800.5984" fill="none" rx="3" ry="3" style="stroke:#038048;stroke-width:1.0;"/><text fill="#000000" font-family="sans-serif" font-size="14" lengthAdjust="spacing" textLength="133" x="710" y="803.9451">TLS = 0x00000400</text><ellipse cx="701" cy="816.8953" fill="none" rx="3" ry="3" style="stroke:#038048;stroke-width:1.0;"/><text fill="#000000" font-family="sans-serif" font-size="14" lengthAdjust="spacing" textLength="165" x="710" y="820.242">MASKOS = 0x0FF00000</text><ellipse cx="701" cy="833.1922" fill="none" rx="3" ry="3" style="stroke:#038048;stroke-width:1.0;"/><text fill="#000000" font-family="sans-serif" font-size="14" lengthAdjust="spacing" textLength="186" x="710" y="836.5389">MASKPROC = 0xF0000000</text><line style="stroke:#181818;stroke-width:1.0;stroke-dasharray:1.0,2.0;" x1="691" x2="790.5" y1="636.1297" y2="636.1297"/><text fill="#000000" font-family="sans-serif" font-size="14" lengthAdjust="spacing" textLength="87" x="790.5" y="640.4764">&#171;constants&#187;</text><line style="stroke:#181818;stroke-width:1.0;stroke-dasharray:1.0,2.0;" x1="877.5" x2="977" y1="636.1297" y2="636.1297"/></g><g id="elem_GMN8"><path d="M399,640.75 L399,711.2813 A0,0 0 0 0 399,711.2813 L655,711.2813 A0,0 0 0 0 655,711.2813 L655,680.02 L689.74,676.02 L655,672.02 L655,650.75 L645,640.75 L399,640.75 A0,0 0 0 0 399,640.75 " fill="#FEFFDD" style="stroke:#181818;stroke-width:0.5;"/><path d="M645,640.75 L645,650.75 L655,650.75 L645,640.75 " fill="#FEFFDD" style="stroke:#181818;stroke-width:0.5;"/><text fill="#000000" font-family="sans-serif" font-size="13" lengthAdjust="spacing" textLength="235" x="405" y="657.8169">Solaris defines additionally, but won't</text><text fill="#000000" font-family="sans-serif" font-size="13" lengthAdjust="spacing" textLength="153" x="405" y="672.9497">be "officially" supported:</text><text fill="#000000" font-family="sans-serif" font-size="13" lengthAdjust="spacing" textLength="169" x="405" y="688.0825">- ORDERED = 0x04000000</text><text fill="#000000" font-family="sans-serif" font-size="13" lengthAdjust="spacing" textLength="167" x="405" y="703.2153">- EXCLUDE = 0x08000000</text></g><!--link ReadElf to SectionHeaders--><g id="link_ReadElf_SectionHeaders"><path codeLine="95" d="M277.24,269.38 C307.12,269.38 333.15,269.38 364.18,269.38 " fill="none" id="ReadElf-to-SectionHeaders" style="stroke:#181818;stroke-width:1.0;"/><polygon fill="#181818" points="370.18,269.38,361.18,265.38,365.18,269.38,361.18,273.38,370.18,269.38" style="stroke:#181818;stroke-width:1.0;"/><text fill="#000000" font-family="sans-serif" font-size="13" lengthAdjust="spacing" textLength="57" x="295.25" y="262.4469">&#171;create&#187;</text></g><!--reverse link Iterator to SectionHeaders--><g id="link_Iterator_SectionHeaders"><path codeLine="96" d="M539,89.41 C539,114.86 539,134.25 539,169.63 " fill="none" id="Iterator-backto-SectionHeaders" style="stroke:#181818;stroke-width:1.0;stroke-dasharray:7.0,7.0;"/><polygon fill="none" points="539,71.41,533,89.41,545,89.41,539,71.41" style="stroke:#181818;stroke-width:1.0;"/></g><!--link SectionHeaders to SectionHeader--><g id="link_SectionHeaders_SectionHeader"><path codeLine="97" d="M707.96,269.38 C737.86,269.38 763.47,269.38 794.79,269.38 " fill="none" id="SectionHeaders-to-SectionHeader" style="stroke:#181818;stroke-width:1.0;"/><polygon fill="#181818" points="800.79,269.38,791.79,265.38,795.79,269.38,791.79,273.38,800.79,269.38" style="stroke:#181818;stroke-width:1.0;"/><text fill="#000000" font-family="sans-serif" font-size="13" lengthAdjust="spacing" textLength="57" x="725.75" y="262.4469">&#171;create&#187;</text></g><!--reverse link SectionHeader to SectionType--><g id="link_SectionHeader_SectionType"><path codeLine="98" d="M1064.525,419.7026 C1068.305,438.8426 1069.93,447.06 1073.9,467.13 " fill="none" id="SectionHeader-backto-SectionType" style="stroke:#181818;stroke-width:1.0;"/><polygon fill="#181818" points="1062.2,407.93,1059.4383,414.5913,1064.525,419.7026,1067.2867,413.0413,1062.2,407.93" style="stroke:#181818;stroke-width:1.0;"/></g><!--reverse link SectionHeader to SectionFlags--><g id="link_SectionHeader_SectionFlags"><path codeLine="99" d="M961.3329,418.6778 C945.4029,450.7578 933.6,474.51 917.1,507.72 " fill="none" id="SectionHeader-backto-SectionFlags" style="stroke:#181818;stroke-width:1.0;"/><polygon fill="#181818" points="966.67,407.93,960.4189,411.5249,961.3329,418.6778,967.5841,415.0829,966.67,407.93" style="stroke:#181818;stroke-width:1.0;"/></g><!--SRC=[dLRRRjiu47tNLn1P82lNTP2aRffrNG5PnqwCEbOWEMWV2WYCDOg9KgH1KKcys_xxaY8bKuvJOAidppd3kPsXv2vX4aI6bu2cwWUMNA1_FQIUBeDdwH_cfKG5qAmpGE5Q4iw6iR860-MT1zvFp-iMKfHBYIB0wPXczlJH4HeECm8qBO90MHNOAs2fGoGhvGiYuLbMW1oWygo_bo_8Fw3OaxEzx9ANJBgq58Gz9BKNOIayR-cge1paYhiLTTin2r-r6HlesY1kYsrcg4VmgOK5RlSZpimvBhO9_s3mvEi1eaCxi9SPcmYr8awzhulYbc5xK-DBLafW_z0w-wN6tjQ7AYle_6e-55Xpkd8tC2aIoDToqt3td5DBwRdxzVJraLUhV6sqlp75ZsYhzqTaLg7OvgricoFe3BwnNynjx-fs6SvX9rxGNY6vMKEZvK8PXiuerfLOVA8jGpmI8KjC4voc0efYUmsw6Q7mud8Or5w96gjpKyA-A_ZTQHicBECEZ2bvO3amDwgonCO9gpK1LkPk8mWNwC2nlp4_lbuaRpe7hb8lboSJFFSVgm8wUoOZUMA4yfqLVCI2O2RTCFEIKlG97HlhLl27luai579Ya7YJB_2zicsRIXrZlpDs1FH2MRRXQroibFNUM9SR9InPAk3C9kCIbFMXjcogyoQKClwoULOpejES73UnL2aQi8LD6P4NGk2Dncpw2M6amTxNBK7BrPPo9NYvrlO7jy-ftdEDsfBks7V6dvZ_Y6a9PjPxBbQrTwwE5L09EVaVGfxrE_jMkTfn_UvircgljajzbtV4_H9D5sEjxlEnUUpiBcQpSEJYLjpnr_5eEeyNaSlPf3VZwCgDLGkZlAVpgzXXJYqpdK_2P3QTVtQulkKqd8JHvTXDTMx9C4xcuNmKglFHZGg-TJavjYvNKNXtkyLFQtmnSohfr-ZDHVmvjCHaKd5RuZQoivZOXfN2J2ygXKnwCQVgqXGeXOmmK2gdAT42OKetRz6z-bOySVQdzEu17QYt2baIpHoWebolkP2G3hmUgXeTNve2-ZPB3us_ZcPtbtQevnO6bYATtlFgZtvFz8ATpnWQQCK5O0b1u3L_BeO_ZjAZtI_UpicNqTh1sjIRNjfhlLnUfwkL_Gy0]--></g></svg>